<svg width="60" height="60" viewBox="0 0 60 60" fill="none" xmlns="http://www.w3.org/2000/svg">
<g clip-path="url(#clip0_85_1894)">
<path d="M0.818359 21.8902C0.818359 14.4507 0.818359 10.7309 2.26618 7.88943C3.53972 5.38997 5.57185 3.35784 8.07131 2.0843C10.9128 0.636475 14.6326 0.636475 22.0721 0.636475H38.292C45.7315 0.636475 49.4512 0.636475 52.2928 2.0843C54.7922 3.35784 56.8244 5.38997 58.0979 7.88943C59.5457 10.7309 59.5457 14.4507 59.5457 21.8902V38.1101C59.5457 45.5496 59.5457 49.2694 58.0979 52.1109C56.8244 54.6103 54.7922 56.6425 52.2928 57.916C49.4512 59.3638 45.7315 59.3638 38.292 59.3638H22.0721C14.6326 59.3638 10.9128 59.3638 8.07131 57.916C5.57185 56.6425 3.53972 54.6103 2.26618 52.1109C0.818359 49.2694 0.818359 45.5496 0.818359 38.1101V21.8902Z" fill="#001E36"/>
<path d="M13.4028 43.6674V17.8424C13.4028 17.6667 13.4762 17.5664 13.6475 17.5664C16.1762 17.5664 18.7038 17.4158 21.2331 17.4158C25.3374 17.4158 29.7814 18.8191 31.3391 23.1128C31.7062 24.1669 31.902 25.2461 31.902 26.3755C31.902 28.5338 31.4126 30.3157 30.4338 31.7212C27.6996 35.6471 22.9607 35.5861 18.7128 35.5861V43.6423C18.746 43.8808 18.5427 43.9937 18.3457 43.9937H13.6965C13.5007 43.9937 13.4028 43.8933 13.4028 43.6674ZM18.7372 22.4101V30.8428C20.4216 30.9662 22.1841 30.9795 23.8025 30.4412C25.5891 29.9258 26.5676 28.3792 26.5676 26.526C26.6172 24.9469 25.7567 23.4317 24.2919 22.8619C22.693 22.197 20.4631 22.1572 18.7372 22.4101Z" fill="#31A8FF"/>
<path d="M47.1641 29.1767C46.4237 28.7865 45.6351 28.5011 44.82 28.3282C43.7724 28.0817 39.6409 27.2184 39.6394 29.3787C39.676 30.5848 41.5905 31.1757 42.4364 31.5203C45.406 32.5398 48.7665 34.3622 48.7005 38.0257C48.7913 42.5864 44.3725 44.4095 40.5848 44.4099C38.613 44.4304 36.5588 44.1249 34.7542 43.2785C34.5819 43.1873 34.471 42.9923 34.4784 42.7936V38.4297C34.459 38.2548 34.6467 38.1019 34.7936 38.2277C36.5617 39.297 38.6576 39.8162 40.703 39.844C41.606 39.844 43.3956 39.7564 43.382 38.4297C43.382 37.1566 41.2412 36.5712 40.3878 36.2478C39.1508 35.8062 37.9779 35.1945 36.9012 34.4295C35.3966 33.3563 34.4527 31.6355 34.4784 29.7424C34.4696 25.4482 38.537 23.5207 42.2001 23.5198C43.9126 23.5057 45.7515 23.6325 47.3455 24.3279C47.5748 24.3954 47.6223 24.6368 47.6213 24.8532V28.9342C47.6359 29.1876 47.3545 29.2738 47.1641 29.1767Z" fill="#31A8FF"/>
</g>
<defs>
<clipPath id="clip0_85_1894">
<rect width="58.7274" height="58.7274" fill="white" transform="translate(0.818359 0.636475)"/>
</clipPath>
</defs>
</svg>
