<svg width="248" height="373" viewBox="0 0 248 373" fill="none" xmlns="http://www.w3.org/2000/svg">
<path d="M46.3878 193.592L50.7838 173.852H52.9958L48.6278 193.592H46.3878ZM46.3038 193.592L41.9078 173.852H44.1478L48.5158 193.592H46.3038ZM40.5078 193.592V173.852H43.0558V193.592H40.5078ZM51.8758 193.592V173.852H54.4238V193.592H51.8758ZM62.5817 186.788L66.9777 173.852H69.3857L64.9897 186.788H62.5817ZM62.5817 193.592V186.788H64.9897V193.592H62.5817ZM62.5817 186.788L58.1577 173.852H60.7897L64.9897 186.788H62.5817ZM88.2693 197.568C87.7653 197.512 87.2706 197.326 86.7853 197.008C86.2999 196.691 85.8519 196.29 85.4413 195.804C85.0493 195.338 84.7133 194.871 84.4333 194.404L85.3293 193.34C85.8893 193.938 86.4773 194.451 87.0933 194.88C87.7279 195.328 88.4373 195.618 89.2213 195.748L88.2693 197.568ZM88.3533 188.776V178.64H90.9013V188.776H88.3533ZM79.8413 188.776V178.64H82.3893V188.776H79.8413ZM90.9013 178.668H88.3533C88.3533 177.698 88.0826 176.951 87.5413 176.428C87.0186 175.906 86.2906 175.644 85.3573 175.644V173.432C86.4586 173.432 87.4199 173.656 88.2413 174.104C89.0813 174.534 89.7346 175.15 90.2013 175.952C90.6679 176.736 90.9013 177.642 90.9013 178.668ZM79.8413 178.668C79.8413 177.642 80.0746 176.736 80.5413 175.952C81.0079 175.15 81.6613 174.534 82.5013 174.104C83.3413 173.656 84.3026 173.432 85.3853 173.432V175.644C84.4519 175.644 83.7146 175.906 83.1733 176.428C82.6506 176.951 82.3893 177.698 82.3893 178.668H79.8413ZM90.9013 188.748C90.9013 189.794 90.6679 190.708 90.2013 191.492C89.7346 192.276 89.0813 192.892 88.2413 193.34C87.4199 193.788 86.4586 194.012 85.3573 194.012V191.8C86.2906 191.8 87.0186 191.539 87.5413 191.016C88.0826 190.475 88.3533 189.719 88.3533 188.748H90.9013ZM79.8413 188.748H82.3893C82.3893 189.719 82.6506 190.475 83.1733 191.016C83.7146 191.539 84.4519 191.8 85.3853 191.8V194.012C84.3026 194.012 83.3413 193.788 82.5013 193.34C81.6613 192.892 81.0079 192.276 80.5413 191.492C80.0746 190.708 79.8413 189.794 79.8413 188.748ZM103.974 188.804V173.852H106.522V188.804H103.974ZM95.518 188.804V173.852H98.066V188.804H95.518ZM106.522 188.776C106.522 189.803 106.289 190.718 105.822 191.52C105.355 192.304 104.702 192.92 103.862 193.368C103.041 193.798 102.089 194.012 101.006 194.012V191.8C101.939 191.8 102.667 191.539 103.19 191.016C103.713 190.475 103.974 189.728 103.974 188.776H106.522ZM95.518 188.776H98.066C98.066 189.728 98.3273 190.475 98.85 191.016C99.3913 191.539 100.129 191.8 101.062 191.8V194.012C99.9793 194.012 99.018 193.798 98.178 193.368C97.338 192.92 96.6847 192.304 96.218 191.52C95.7513 190.718 95.518 189.803 95.518 188.776ZM112.701 193.592V191.38H120.457V193.592H112.701ZM113.121 184.884V182.616H118.777V184.884H113.121ZM111.273 173.852H113.821V193.592H111.273V173.852ZM112.981 173.852H120.177V176.064H112.981V173.852ZM132.63 189.168C132.63 188.478 132.434 187.871 132.042 187.348C131.65 186.807 131.146 186.303 130.53 185.836C129.914 185.37 129.251 184.894 128.542 184.408C127.851 183.923 127.198 183.391 126.582 182.812C125.966 182.234 125.462 181.58 125.07 180.852C124.678 180.106 124.482 179.247 124.482 178.276H127.03C127.03 178.948 127.226 179.555 127.618 180.096C128.01 180.619 128.514 181.123 129.13 181.608C129.746 182.075 130.399 182.551 131.09 183.036C131.799 183.522 132.462 184.054 133.078 184.632C133.694 185.192 134.198 185.846 134.59 186.592C134.982 187.32 135.178 188.179 135.178 189.168H132.63ZM124.482 178.332C124.482 177.306 124.715 176.428 125.182 175.7C125.649 174.972 126.302 174.412 127.142 174.02C127.982 173.628 128.943 173.432 130.026 173.432V175.616C129.093 175.616 128.355 175.859 127.814 176.344C127.291 176.83 127.03 177.492 127.03 178.332H124.482ZM135.178 189.112C135.178 190.12 134.945 190.998 134.478 191.744C134.011 192.472 133.358 193.032 132.518 193.424C131.697 193.816 130.735 194.012 129.634 194.012V191.8C130.567 191.8 131.295 191.567 131.818 191.1C132.359 190.615 132.63 189.952 132.63 189.112H135.178ZM132.658 178.08C132.565 177.24 132.266 176.624 131.762 176.232C131.277 175.822 130.698 175.616 130.026 175.616V173.432C130.903 173.432 131.697 173.61 132.406 173.964C133.115 174.319 133.703 174.804 134.17 175.42C134.637 176.036 134.926 176.764 135.038 177.604L132.658 178.08ZM126.274 188.048C126.386 189.224 126.731 190.148 127.31 190.82C127.907 191.474 128.682 191.8 129.634 191.8V194.012C128.047 194.012 126.75 193.527 125.742 192.556C124.753 191.586 124.155 190.242 123.95 188.524L126.274 188.048ZM138.055 176.064V173.852H149.675V176.064H138.055ZM142.591 193.592V173.852H145.139V193.592H142.591ZM153.597 193.592V173.852H156.145V193.592H153.597ZM169.57 188.776V178.64H172.118V188.776H169.57ZM161.058 188.776V178.64H163.606V188.776H161.058ZM172.118 178.668H169.57C169.57 177.698 169.299 176.951 168.758 176.428C168.235 175.906 167.507 175.644 166.574 175.644V173.432C167.675 173.432 168.636 173.656 169.458 174.104C170.298 174.534 170.951 175.15 171.418 175.952C171.884 176.736 172.118 177.642 172.118 178.668ZM161.058 178.668C161.058 177.642 161.291 176.736 161.758 175.952C162.224 175.15 162.878 174.534 163.718 174.104C164.558 173.656 165.519 173.432 166.602 173.432V175.644C165.668 175.644 164.931 175.906 164.39 176.428C163.867 176.951 163.606 177.698 163.606 178.668H161.058ZM172.118 188.748C172.118 189.794 171.884 190.708 171.418 191.492C170.951 192.276 170.298 192.892 169.458 193.34C168.636 193.788 167.675 194.012 166.574 194.012V191.8C167.507 191.8 168.235 191.539 168.758 191.016C169.299 190.475 169.57 189.719 169.57 188.748H172.118ZM161.058 188.748H163.606C163.606 189.719 163.867 190.475 164.39 191.016C164.931 191.539 165.668 191.8 166.602 191.8V194.012C165.519 194.012 164.558 193.788 163.718 193.34C162.878 192.892 162.224 192.276 161.758 191.492C161.291 190.708 161.058 189.794 161.058 188.748ZM185.106 193.592L177.21 173.852H179.702L187.598 193.592H185.106ZM176.734 193.592V173.852H179.282V193.592H176.734ZM185.778 193.592V173.852H188.326V193.592H185.778ZM201.071 189.168C201.071 188.478 200.875 187.871 200.483 187.348C200.091 186.807 199.587 186.303 198.971 185.836C198.355 185.37 197.693 184.894 196.983 184.408C196.293 183.923 195.639 183.391 195.023 182.812C194.407 182.234 193.903 181.58 193.511 180.852C193.119 180.106 192.923 179.247 192.923 178.276H195.471C195.471 178.948 195.667 179.555 196.059 180.096C196.451 180.619 196.955 181.123 197.571 181.608C198.187 182.075 198.841 182.551 199.531 183.036C200.241 183.522 200.903 184.054 201.519 184.632C202.135 185.192 202.639 185.846 203.031 186.592C203.423 187.32 203.619 188.179 203.619 189.168H201.071ZM192.923 178.332C192.923 177.306 193.157 176.428 193.623 175.7C194.09 174.972 194.743 174.412 195.583 174.02C196.423 173.628 197.385 173.432 198.467 173.432V175.616C197.534 175.616 196.797 175.859 196.255 176.344C195.733 176.83 195.471 177.492 195.471 178.332H192.923ZM203.619 189.112C203.619 190.12 203.386 190.998 202.919 191.744C202.453 192.472 201.799 193.032 200.959 193.424C200.138 193.816 199.177 194.012 198.075 194.012V191.8C199.009 191.8 199.737 191.567 200.259 191.1C200.801 190.615 201.071 189.952 201.071 189.112H203.619ZM201.099 178.08C201.006 177.24 200.707 176.624 200.203 176.232C199.718 175.822 199.139 175.616 198.467 175.616V173.432C199.345 173.432 200.138 173.61 200.847 173.964C201.557 174.319 202.145 174.804 202.611 175.42C203.078 176.036 203.367 176.764 203.479 177.604L201.099 178.08ZM194.715 188.048C194.827 189.224 195.173 190.148 195.751 190.82C196.349 191.474 197.123 191.8 198.075 191.8V194.012C196.489 194.012 195.191 193.527 194.183 192.556C193.194 191.586 192.597 190.242 192.391 188.524L194.715 188.048Z" fill="black"/>
<g clip-path="url(#clip0_107_537)">
<path d="M135.213 47.4796C133.171 47.4796 130.984 48.5042 129.233 49.2349L128.941 49.3808C126.024 50.6973 122.815 51.8678 120.189 52.7455C119.167 53.0384 118.001 53.4772 116.98 53.7701H116.834C115.959 53.7701 115.375 53.916 115.084 54.5018C114.647 55.2335 114.355 56.404 116.834 59.1839C118.147 60.7933 120.773 62.2567 123.252 62.2567C124.274 62.2567 125.149 62.1108 126.024 61.525C127.628 60.6474 129.816 59.038 130.545 56.6971C130.545 56.6971 131.567 53.3325 131.42 51.2843C132.733 50.6995 134.192 50.1137 135.212 50.1137C135.942 50.1137 136.524 49.529 136.524 48.7973C136.526 48.0656 135.943 47.4798 135.213 47.4798L135.213 47.4796ZM118.731 57.2817C118.439 56.8429 118.148 56.55 117.856 56.1112C118.877 55.8183 119.898 55.5264 121.065 55.0866C121.065 56.55 121.648 58.3052 121.94 59.183C120.773 59.0381 119.46 58.3064 118.731 57.2818V57.2817ZM127.92 55.8193C127.483 57.2827 126.024 58.3063 124.857 59.0379V57.8674V57.4286C124.857 56.5509 124.857 55.0875 124.274 54.21C125.733 53.6252 127.19 53.1854 128.65 52.4547C128.503 53.4783 128.066 54.9416 127.92 55.8193H127.92Z" fill="black"/>
<path d="M109.251 54.941C111.147 54.941 111.438 53.1857 111.584 52.5999C111.584 52.454 111.584 52.1611 111.73 52.1611C112.022 52.0152 112.459 51.7223 112.751 51.5764H112.897C119.315 48.3578 125.003 43.8225 129.087 38.4099C129.67 37.6782 130.254 36.2158 130.983 34.7524C131.566 33.5819 132.442 31.6796 132.733 31.2409C133.316 30.8021 133.463 30.0704 133.025 29.3387C132.588 28.754 131.713 28.607 131.129 28.8999C130.254 29.4846 129.524 31.094 128.357 33.4349C127.774 34.6055 127.19 36.0678 126.753 36.6535C122.961 41.7746 117.71 46.0167 111.584 49.0896H111.439C110.856 49.3824 110.126 49.8213 109.542 50.2601C108.959 50.8448 108.813 51.4306 108.813 52.0154V52.3083C108.23 52.4542 107.792 53.04 107.792 53.6247C107.938 54.3554 108.521 54.9412 109.25 54.9412L109.251 54.941Z" fill="black"/>
<path d="M126.169 82.7379C125.586 80.9826 125.002 79.0804 123.398 77.91C120.626 75.8618 116.397 75.423 114.646 75.2771H113.479C112.75 75.2771 112.167 75.2771 111.583 75.1312C110.27 74.5464 109.541 71.3276 109.541 69.2797C109.978 68.8409 110.562 68.4021 111.291 67.9632C113.041 66.7927 115.52 65.3304 115.083 61.9647C114.645 59.0389 109.832 59.3318 105.894 59.6236C105.311 59.6236 104.727 59.7696 104.435 59.7696H104.143C102.976 59.7696 101.226 59.7696 100.204 60.7942C99.7667 61.233 98.7452 62.5495 100.496 64.8906C100.934 65.4753 104.58 68.2552 106.914 69.4256C106.914 70.889 107.206 73.2291 108.081 75.1313C107.789 75.863 107.206 76.009 105.018 76.009H102.976C100.496 75.863 97.1419 75.863 95.2453 77.7642C94.9533 78.0571 94.6623 78.496 94.3703 78.7888C94.0783 79.0817 93.9328 79.3736 93.6408 79.5205C93.0579 80.1053 93.0579 80.837 93.6408 81.4228C93.9328 81.7156 94.2238 81.8616 94.6623 81.8616C94.9543 81.8616 95.3918 81.7157 95.6838 81.4228C95.9758 81.1299 96.2668 80.691 96.5588 80.3982C96.8508 80.1053 96.9963 79.8134 97.2883 79.5205C98.1632 78.6429 100.06 78.4959 101.81 78.4959V83.3238V88.7367C101.81 88.8826 101.81 89.1755 101.664 89.4684C101.52 90.492 101.374 91.9553 102.54 93.1248C103.852 94.4413 106.186 94.5882 107.936 94.7342C108.519 94.7342 109.103 94.7342 109.395 94.8801H109.687C111.875 95.173 113.626 95.4649 114.938 95.4649C115.96 95.4649 116.835 95.3189 117.272 95.026C118.585 94.2943 118.731 92.3932 118.731 90.7839V90.0522C119.169 86.9793 119.169 84.2007 119.169 81.2736V79.0796C120.19 79.3724 121.065 79.8113 121.793 80.2501C122.815 80.9818 123.252 82.2982 123.69 83.6147C123.982 84.3464 124.273 85.2241 124.565 85.9558C124.857 86.3946 125.294 86.6875 125.732 86.6875C125.877 86.6875 126.169 86.6875 126.315 86.5415C127.044 86.2486 127.19 85.371 126.898 84.7863C126.607 84.2015 126.315 83.4698 126.169 82.7381L126.169 82.7379ZM108.228 83.9084V91.6623V91.8083H107.936C106.769 91.8083 104.873 91.6623 104.29 91.0765C104.145 90.9306 104.145 90.1989 104.29 89.6131V88.5885V83.1757V78.3478H105.02C105.894 78.3478 107.207 78.3478 108.374 78.0549C108.228 79.9582 108.228 82.0063 108.228 83.9085L108.228 83.9084ZM116.105 89.467C116.105 89.7599 116.105 90.0518 115.96 90.4916C115.96 90.9305 115.96 92.101 115.668 92.5398C115.085 92.6857 113.918 92.6857 110.562 92.101V91.6621C110.562 89.1752 110.562 86.5411 110.708 83.9082V77.6179C111.583 77.9107 112.458 77.9107 113.187 77.9107H114.062C114.792 77.9107 115.521 78.0567 116.249 78.2036V78.4965V81.1294C116.542 83.9083 116.542 86.5412 116.105 89.4669L116.105 89.467Z" fill="black"/>
<path d="M82.5588 36.6534C83.4337 36.9463 85.6222 40.4569 86.6427 42.213C87.5177 43.6765 88.3927 45.1388 88.9766 45.7245C89.4141 46.1633 89.8516 46.4562 90.2891 46.895C90.7266 47.1879 91.0186 47.4798 91.4561 47.9196C91.6015 48.2125 91.8935 48.5044 92.039 48.7973C92.622 49.529 93.206 50.4066 94.081 50.9913C95.2479 51.7231 96.5604 51.7231 97.5818 51.7231C98.0192 51.7231 98.4567 51.7231 98.7487 51.869C98.8942 52.0149 99.0407 52.6007 99.1862 52.8936C99.3317 53.1865 99.4782 53.4783 99.6237 53.7712C99.9157 54.2101 100.353 54.5029 100.791 54.5029C100.936 54.5029 101.228 54.5029 101.374 54.357C101.957 54.0641 102.249 53.1865 101.957 52.6017C101.957 52.4558 101.811 52.1629 101.665 52.017C101.373 51.1393 101.082 50.1147 100.206 49.6759C99.4762 49.2371 98.6012 49.2371 97.7262 49.2371C96.8513 49.2371 96.1218 49.2371 95.5388 48.7983C95.1014 48.5054 94.6639 48.0666 94.3719 47.3349C94.0799 47.042 93.9344 46.6032 93.6424 46.3103C93.2049 45.7255 92.6209 45.2857 92.1834 44.9938C91.7459 44.7009 91.4539 44.409 91.1619 44.1162C90.7244 43.5314 89.8495 42.2139 89.12 41.0433C86.6406 36.8012 84.8907 34.1672 82.7021 34.1672C81.9726 34.1672 81.3896 34.752 81.3896 35.4837C81.3917 36.2134 81.8292 36.6532 82.5587 36.6532L82.5588 36.6534Z" fill="black"/>
<path d="M98.0198 61.3782C98.7492 60.5005 99.0412 59.1841 98.6027 58.1596C98.3107 57.135 97.4358 56.2573 96.4153 55.9655C95.5403 55.6726 94.5189 55.5267 93.6438 55.3807C93.0608 55.3807 92.6223 55.2348 92.1848 55.0878C91.6019 54.9419 90.8724 54.7949 90.2884 54.649C89.2669 54.3561 88.101 54.2102 86.934 53.9173C85.184 53.6244 83.4332 53.0397 81.6832 52.4539C80.9537 52.161 80.3707 52.0151 79.6413 51.7222C78.9118 51.4293 78.1823 51.8681 77.8913 52.5998C77.5993 53.3315 78.0368 54.0632 78.7663 54.3551C79.3493 54.501 80.0788 54.7939 80.6627 55.0868C82.2672 55.6716 83.8716 56.2573 85.476 56.5502C85.6215 57.8667 85.9135 58.8913 86.3509 59.7688C87.3724 61.5241 89.9973 62.8417 92.7688 62.9874H93.3518C95.6857 63.1344 97.1446 62.5486 98.0197 61.3781L98.0198 61.3782ZM89.1226 58.4524C88.9771 58.0136 88.6851 57.5748 88.6851 56.989C89.1226 57.1349 89.4146 57.1349 89.8521 57.2819C90.2896 57.4278 90.727 57.4278 91.1645 57.5748C91.019 57.8677 91.019 58.1595 91.1645 58.5994V58.8912V59.3301V59.7689V59.9148C90.1441 59.6229 89.4146 59.0382 89.1226 58.4524H89.1226ZM93.7905 58.8912V58.5984V58.1595C94.52 58.3055 95.2494 58.3055 95.8324 58.5984C96.1244 58.5984 96.1244 58.8912 96.1244 59.0372C96.2699 59.3301 96.1244 59.6219 95.9789 59.7689C95.5414 60.2077 94.8119 60.5006 93.645 60.5006C93.7905 60.3547 93.7905 60.0618 93.7905 59.7689V59.3301C93.936 59.1841 93.7905 59.0382 93.7905 58.8912Z" fill="black"/>
<path d="M186.845 79.373C186.262 78.2025 185.97 76.886 185.678 75.2766C185.386 73.9602 185.095 72.7896 184.657 71.6191C184.219 70.4486 183.635 69.1321 183.198 67.9616C182.323 65.7675 181.302 63.4266 180.719 61.0855C180.573 60.3538 180.281 59.6221 180.136 58.8914C179.262 55.2329 178.387 51.2836 175.469 48.065C172.552 44.8464 169.926 43.9686 167.009 43.091C165.842 42.6522 164.675 42.3593 163.508 41.7746C162.341 41.3357 161.321 40.604 160.008 39.8724C157.091 38.1171 153.736 35.922 149.798 36.9466C149.798 36.9466 149.652 36.9466 149.652 37.0925C149.507 36.3608 149.36 35.7761 149.215 35.0444C148.923 33.8739 148.632 32.5574 148.194 31.3869C148.048 30.9481 147.756 30.3623 147.611 29.9235C147.903 29.9235 148.048 29.7776 148.194 29.4847C148.631 29.0458 149.506 28.607 150.381 28.1682C151.84 27.4365 153.59 26.5588 154.319 24.8036C154.902 23.4871 154.902 22.1707 154.757 20.8532V20.1215C154.757 18.2193 154.757 15.2936 152.86 13.684C151.401 12.3676 149.506 11.9287 147.755 12.2206C145.275 12.6594 142.796 14.5616 141.484 17.0485C141.192 17.6333 140.754 18.219 140.609 18.9507C139.879 18.5119 139.004 17.9261 138.275 17.4873C137.253 16.9025 136.233 16.3168 135.503 15.732C133.753 14.1227 132.149 11.7817 131.274 9.88054C131.128 9.58765 131.128 9.14883 130.982 8.56407C130.836 7.10066 130.399 4.76054 128.21 4.17481C127.189 3.88193 126.023 4.17481 124.856 4.90652C123.689 5.63823 122.231 6.95467 121.939 8.56402V9.00284C121.647 8.56402 121.356 7.97825 120.918 7.53942C120.335 6.95467 119.751 6.51483 119.168 6.07601C118.585 5.63719 118.146 5.3443 117.709 4.90548L117.563 4.75955C116.542 3.73495 115.229 2.56546 113.917 2.85733C112.312 3.29615 112.458 5.3443 112.604 7.24659V7.9783H112.459C111.729 7.68541 111 7.39355 110.125 7.68541C109.396 7.9783 109.104 8.56306 108.813 8.85595C107.938 8.56306 106.916 7.53948 106.188 6.66186L105.75 6.22304C104.146 4.61369 96.9983 0.0784417 93.9362 0.810203C91.1646 1.39496 90.8727 4.76056 90.5817 7.24766C90.5817 8.12531 90.4363 9.14988 90.1443 9.5887C89.8523 10.1735 89.4148 10.4663 88.5398 10.9052C87.8103 11.344 86.7898 11.7828 86.2059 12.8074C85.9139 13.3921 85.6229 13.832 85.3309 14.2708C84.7479 15.2954 84.3094 16.173 83.4345 16.9037C83.289 17.0496 83.1425 17.1966 82.997 17.1966C82.5595 15.8801 81.9755 14.5637 80.9551 13.2462C79.4961 11.4909 75.5587 8.71116 72.6408 10.3205C70.3069 11.6369 68.1195 15.2944 67.682 17.6355C67.2445 19.9765 67.8275 23.0483 70.0159 24.8044C70.3079 25.0973 70.7454 25.2432 71.0374 25.3892C71.1829 25.5351 71.4749 25.5351 71.4749 25.6821C71.6203 25.975 71.9123 26.1209 72.0578 26.2668C72.4953 26.7056 72.9328 27.1445 73.5168 27.5833C72.6418 28.8997 71.9123 30.3632 71.3294 31.8255C69.8704 35.0441 69.5794 38.7016 69.2875 42.3591C69.142 44.2613 68.9955 46.0166 68.558 47.6259C68.4125 48.7964 67.8285 49.8199 67.391 50.9905C67.099 51.7222 66.6615 52.4539 66.516 53.3315C65.4946 56.5501 64.9116 60.2076 64.6196 63.5723C64.4741 65.7664 64.6196 69.278 66.0786 71.619C66.5161 72.2038 67.1001 72.4967 67.391 72.6436C67.5365 72.6436 67.5365 72.6436 67.683 72.7896C68.1205 73.2284 68.558 74.3989 68.9955 75.8624C69.141 76.5941 69.433 77.1788 69.5785 77.9105C70.308 80.6905 71.0374 83.6162 72.642 86.1031C73.2249 87.1277 74.1009 87.7124 74.9759 88.2972C75.4134 88.59 75.7054 88.8819 75.9974 89.1748C78.3313 91.3689 81.1028 92.8323 83.873 94.0027C83.1435 94.8803 82.7061 95.758 82.7061 95.9049C82.2686 96.9295 82.7061 97.6602 82.8515 98.099C82.8515 98.099 82.8515 98.2449 82.997 98.2449C82.8515 98.5378 82.5595 98.8297 82.2675 99.2695C81.9755 99.7083 81.6846 100.001 81.3926 100.586C81.1006 101.171 80.9551 101.611 80.8096 102.195C80.6641 102.488 80.6641 102.78 80.5176 103.073C80.2256 103.805 80.5176 104.536 81.1006 104.828C81.2461 104.974 81.5381 104.974 81.6836 104.974C82.121 104.974 82.705 104.681 82.8505 104.242C83.1425 103.804 83.288 103.218 83.288 102.779C83.4335 102.34 83.4335 102.047 83.58 101.901C83.7255 101.609 84.0175 101.317 84.163 101.024C84.6005 100.585 85.038 99.8533 85.33 99.1216C85.622 98.2439 85.33 97.5122 85.038 96.9275C85.038 96.9275 85.038 96.7816 84.8925 96.7816C85.1845 96.1968 85.7675 95.4651 86.0595 95.3181C86.2049 95.3181 86.3514 95.3181 86.4969 95.1722C86.9344 95.3181 87.2264 95.4651 87.5184 95.611C88.1014 95.757 88.6854 96.1958 89.2684 96.4887C89.8513 96.7816 90.5808 97.2204 91.3103 97.5133C92.3318 97.8062 93.3522 97.9521 94.2271 97.9521C95.1021 97.9521 95.9771 97.9521 96.5611 98.245C97.436 98.6838 98.1655 99.4155 98.895 100.147C100.062 101.318 101.229 102.488 102.979 102.927C103.271 102.927 103.416 103.073 103.708 103.073C104.875 103.073 105.75 102.048 106.48 101.171C106.772 100.732 107.355 100 107.647 100C107.939 100 108.23 100.146 108.668 100.293C109.106 100.439 109.69 100.732 110.273 100.878C110.856 101.024 111.585 101.024 112.169 101.024C113.191 101.17 114.066 101.17 114.941 101.463C115.233 101.463 115.524 101.609 115.67 101.756C116.253 101.902 116.837 102.194 117.567 102.194C120.338 102.487 122.235 102.34 123.693 101.756C124.276 101.463 124.714 101.171 125.152 100.878C125.589 100.585 126.027 100.293 126.464 100.146C128.214 99.7075 129.818 100 131.423 100.292C133.173 100.585 134.777 101.024 136.819 100.585C138.716 100.292 140.174 99.1217 141.632 98.0981C142.07 97.8052 142.362 97.5134 142.654 97.3664C143.383 96.9276 144.113 96.6347 144.841 96.1959C146.008 95.7571 147.175 95.1713 148.196 94.2937C149.217 93.416 150.092 92.0996 150.967 90.929C151.405 90.1973 151.842 89.6126 152.28 89.0268C152.425 88.7339 152.863 88.4421 153.155 88.1492C153.738 87.7104 154.467 87.1246 154.905 86.247C155.342 85.3693 155.488 84.4917 155.634 83.6141C155.634 83.3212 155.78 82.8824 155.78 82.5895C155.925 81.8578 156.363 81.1261 156.655 80.2485C156.947 79.5167 157.238 78.932 157.53 78.2003C158.259 76.0062 158.405 73.6653 158.551 71.3242C158.551 69.8608 158.697 68.5442 158.843 67.3738V66.935C159.135 64.7409 159.573 62.1071 159.281 59.7661C159.135 58.7415 158.698 57.8638 158.259 57.2791C158.259 57.425 157.967 56.8403 157.967 56.2545C157.967 55.8157 157.822 55.3769 157.822 54.7911C157.676 53.0358 157.53 50.9875 156.655 49.2314C155.78 47.4761 154.758 46.0128 153.591 44.5493C152.716 43.2328 151.695 42.0623 150.966 40.7458C150.821 40.3069 150.529 40.014 150.383 39.5752C153.155 38.8435 155.78 40.4529 158.406 42.2081C159.718 42.9398 160.885 43.8175 162.198 44.2562C163.51 44.841 164.822 45.2808 165.99 45.5727C168.761 46.4504 170.803 47.0361 173.137 49.8149C175.616 52.5948 176.491 55.9595 177.366 59.617C177.512 60.3487 177.804 61.0804 177.949 61.958C178.532 64.445 179.553 66.7859 180.574 69.127C181.011 70.2975 181.595 71.468 182.033 72.6385C182.47 73.663 182.616 74.8325 182.908 76.0031C183.2 77.6124 183.637 79.2217 184.367 80.6852C184.659 81.124 185.096 81.4169 185.534 81.4169C185.679 81.4169 185.971 81.4169 186.117 81.271C186.993 80.8352 187.285 80.1035 186.846 79.3728L186.845 79.373ZM143.818 18.5122C144.84 16.7569 146.59 15.2936 148.194 15.0008C149.361 14.8548 150.236 15.1467 151.111 15.8784C152.132 16.756 152.132 18.8041 152.132 20.2677V21.1453C152.132 22.1699 152.132 23.1934 151.84 23.9253C151.548 24.657 150.381 25.3887 149.215 25.9734C148.194 26.5582 147.174 26.998 146.444 27.8756C146.152 27.4368 145.861 27.1439 145.569 26.7051C145.424 26.4122 145.132 26.1203 144.986 25.8274V25.0957C144.549 23.4864 146.59 21.2922 148.195 20.2678C148.778 19.829 149.07 19.0973 148.632 18.3656C148.195 17.7809 147.465 17.6339 146.736 17.9268C145.569 18.6585 144.111 19.975 143.09 21.7303C143.235 21.4375 143.235 21.1456 143.09 20.8527C142.943 20.122 143.235 19.5362 143.818 18.5127L143.818 18.5122ZM73.5158 24.2179C73.0783 23.7791 72.6409 23.6332 72.3489 23.4862C72.2034 23.3403 72.0569 23.1933 71.9114 23.1933C70.7444 22.1687 70.3069 20.1205 70.5989 18.5112C70.8909 16.9018 72.6408 13.8291 74.0997 13.0984C75.2667 12.5136 78.0381 13.976 79.0585 15.2924C79.788 16.317 80.2255 17.3406 80.663 18.511C80.663 18.657 80.8085 18.9499 80.955 19.0958C80.8095 19.2417 80.5175 19.3887 80.372 19.5346L79.3505 20.5592C78.1835 18.0722 76.8711 16.4628 74.8293 15.2924C74.2463 14.8536 73.3703 15.1465 72.9328 15.7312C72.4953 16.316 72.7873 17.1947 73.3703 17.6334C74.9748 18.658 76.1418 19.8275 77.0167 22.0227C77.1622 22.3156 77.3087 22.4615 77.4542 22.6075C76.5792 23.6321 75.8497 24.6556 74.9748 25.8261C74.6828 25.5332 74.3918 25.2413 74.0998 24.9484C74.0988 24.6566 73.8068 24.5106 73.5158 24.2177L73.5158 24.2179ZM151.403 46.1629C152.424 47.6263 153.444 48.9429 154.174 50.4051C154.757 51.5756 154.904 53.3308 155.049 54.9401C155.049 55.5249 155.195 55.9647 155.195 56.5495C155.34 57.72 155.924 58.5976 156.362 59.3294C156.654 59.9142 156.945 60.5 157.091 60.9388C157.383 62.841 156.946 65.181 156.654 67.2292V67.668C156.362 68.9845 156.362 70.448 156.216 71.9102C156.071 73.9583 156.071 76.1524 155.487 78.0548C155.341 78.6395 155.049 79.2253 154.757 79.957C154.32 80.8346 154.028 81.7123 153.736 82.737C153.59 83.1768 153.59 83.4697 153.445 83.9085C153.299 84.6402 153.153 85.225 153.007 85.6638C152.715 86.1026 152.278 86.3955 151.84 86.8343C151.403 87.1272 150.965 87.566 150.528 88.0048C149.945 88.5896 149.506 89.4683 149.069 90.1989C148.339 91.2235 147.61 92.393 146.881 92.9789C146.152 93.5636 145.277 94.0035 144.256 94.4423C143.381 94.8811 142.36 95.32 141.632 95.7588C141.194 96.0517 140.902 96.3435 140.465 96.6364C139.298 97.5141 137.985 98.3917 136.818 98.6846C135.359 98.9774 133.901 98.6846 132.442 98.3917C130.546 97.9529 128.504 97.514 126.171 98.2457C125.442 98.5386 124.712 98.8305 124.275 99.2703C123.837 99.5632 123.545 99.7092 123.253 99.8551C122.232 100.294 120.628 100.294 118.44 100.148C118.148 100.148 117.71 100.002 117.273 99.8551C116.981 99.7092 116.69 99.5622 116.251 99.5622C115.084 99.2693 114.064 99.1234 112.897 99.1234C112.314 99.1234 111.73 98.9775 111.147 98.9775C110.855 98.9775 110.564 98.8315 110.272 98.6846C109.689 98.3917 108.96 98.0998 107.938 98.0998C106.479 98.2457 105.604 99.2703 104.875 100.148C104.583 100.441 104.292 100.733 104.145 100.88C103.124 100.441 102.249 99.7091 101.374 98.8315C100.499 97.9539 99.4772 97.0762 98.3102 96.4905C97.2887 95.9057 96.1228 95.9057 94.9558 95.9057C94.0808 95.9057 93.3513 95.7598 92.7684 95.6128C92.1854 95.4669 91.6014 95.0281 91.0184 94.7352C90.2889 94.2964 89.706 94.0035 88.831 93.7106C85.039 92.3941 81.1007 90.7849 77.8919 87.8591C77.4544 87.4203 77.0169 87.1274 76.5794 86.8345C75.9964 86.3957 75.2669 85.9569 74.9749 85.3711C73.516 83.323 72.933 80.5432 72.2034 77.9101C72.0579 77.1784 71.7659 76.4467 71.6204 75.716C71.3284 74.8383 70.599 72.4974 69.5785 71.4738C69.2865 71.1809 68.849 71.035 68.557 70.8891C68.4116 70.8891 68.4115 70.8891 68.4115 70.7431C67.5366 69.1338 67.2446 66.3539 67.3901 64.5985C67.6821 61.3799 68.1195 57.8682 69.14 54.9425C69.432 54.2108 69.723 53.479 70.015 52.7484C70.598 51.5778 71.182 50.2614 71.3275 48.798C71.6195 47.0427 71.7649 45.1405 72.0569 43.2384C72.3489 39.8737 72.7864 36.3623 73.9534 33.5823C75.8498 29.0473 78.7666 24.8038 82.2676 21.7323C82.7051 21.2934 83.1426 21.0006 83.7266 20.5617C84.3096 20.1229 84.8936 19.83 85.3311 19.2453C86.4981 18.2207 87.081 17.0512 87.8105 16.0267C88.1025 15.5878 88.3935 15.149 88.6855 14.7102C88.9775 14.2714 89.4149 13.9785 90.1444 13.6856C91.0194 13.1008 92.3319 12.5151 92.9159 11.0527C93.3534 10.1751 93.3534 9.15051 93.4989 7.83413C93.6444 6.22477 93.7909 4.03059 94.8114 3.73773C96.4158 3.44484 102.542 6.81055 104.146 8.41985L104.584 8.85867C105.605 10.0292 107.063 11.3456 108.668 11.7844C110.418 12.2232 111.147 11.0527 111.439 10.6139C111.585 10.6139 111.731 10.7598 111.731 10.7598C112.461 11.0527 114.21 11.7844 115.085 10.4669C115.523 9.73521 115.523 8.85757 115.377 7.3941V6.51646C115.523 6.66239 115.669 6.80934 115.815 6.95528L115.96 7.10121C116.543 7.68597 117.127 8.12581 117.71 8.56463C118.293 9.00345 118.732 9.29634 119.169 9.73516C119.461 10.028 119.607 10.3199 119.899 10.6128C120.482 11.4904 121.211 12.6609 122.816 12.8069C123.399 12.8069 123.837 12.661 124.275 12.3681C125.004 11.6364 125.004 10.7587 125.004 9.88109V9.29634C125.15 8.85752 125.734 7.97987 126.609 7.39412C127.192 7.10123 127.63 6.9553 127.921 6.9553C128.359 7.10123 128.651 7.68701 128.796 9.14938C128.942 9.88109 128.942 10.4658 129.234 11.0516C130.109 13.3926 132.005 16.1726 134.192 17.9277C135.067 18.8053 136.38 19.3911 137.547 20.1218C139.006 20.9994 140.61 21.8771 141.339 23.0475C141.484 23.1935 141.484 23.6323 141.631 23.9252C141.776 24.364 141.923 24.8028 142.068 25.3886C142.651 26.2662 143.235 27.2908 143.818 28.1685C144.693 29.485 145.715 30.9485 146.152 32.4107C146.59 33.5812 146.735 34.6048 147.027 35.9222C147.465 37.9703 148.049 40.1644 149.069 42.2126C149.507 43.529 150.381 44.8465 151.403 46.1629H151.403Z" fill="black"/>
</g>
<defs>
<clipPath id="clip0_107_537">
<rect width="123" height="105" fill="white" transform="translate(64.3779 0.0168457)"/>
</clipPath>
</defs>
</svg>
