<svg width="248" height="379" viewBox="0 0 248 379" fill="none" xmlns="http://www.w3.org/2000/svg">
<path d="M153.487 49.7497C153.883 49.7497 154.412 49.4826 154.544 49.0825C155.733 46.8149 158.376 44.9474 162.473 43.7471C164.059 43.3469 168.684 41.8795 169.213 38.2775V37.8774C169.081 37.3442 168.685 36.9431 168.155 36.81C167.495 36.677 166.834 37.2102 166.702 37.8774C166.57 38.8116 165.513 40.145 161.68 41.3455C156.791 42.8129 153.619 45.0806 152.165 48.0154C151.901 48.6826 152.165 49.3498 152.694 49.7499C153.091 49.6168 153.355 49.7499 153.487 49.7499L153.487 49.7497Z" fill="black"/>
<path d="M121.903 64.6903C122.696 64.5573 123.357 64.4233 124.15 64.4233C125.075 66.1577 127.189 67.4912 129.568 68.1584C130.361 68.4255 131.022 68.4255 131.814 68.4255C133.136 68.4255 134.193 68.0254 135.118 67.4913C137.1 66.0238 138.157 64.0231 138.157 61.8885V61.7555C138.157 61.3553 138.422 60.4211 137.629 59.8879C137.364 59.6209 136.572 59.0877 132.079 60.021C131.682 60.1541 131.153 60.1541 130.757 60.2881C130.096 60.4211 129.303 60.5551 128.642 60.6882C126.131 61.3554 123.753 61.8885 121.77 62.1556C121.11 62.1556 120.581 62.8228 120.713 63.49C120.581 64.2902 121.242 64.6903 121.903 64.6903H121.903ZM129.172 63.0898C129.833 62.9568 130.361 62.8228 131.022 62.6897H131.153C131.022 63.0898 131.153 63.49 131.285 63.757C131.55 64.4242 132.078 64.6913 132.739 64.6913C132.871 64.6913 133.004 64.6913 133.267 64.5582C133.928 64.2911 134.456 63.624 134.456 62.8237C134.456 62.4236 134.324 62.1566 134.192 62.0235C134.72 61.8904 135.249 61.8904 135.645 61.7564C135.645 63.0908 134.853 64.2912 133.664 65.2246C133.003 65.7577 131.682 65.8917 130.36 65.4916C129.038 65.0915 127.717 64.4243 127.056 63.6241C127.585 63.6241 128.511 63.357 129.172 63.09L129.172 63.0898Z" fill="black"/>
<path d="M122.035 61.2219C122.961 60.5547 124.017 59.8875 124.943 59.2213C126.528 58.154 128.246 57.0867 129.832 55.7532L130.096 55.6201C131.022 54.8199 132.211 53.8857 132.739 52.4183C133.004 51.7512 132.607 51.084 131.946 50.8178C131.286 50.5508 130.625 50.9509 130.361 51.6181C129.965 52.1513 129.172 52.8175 128.378 53.4847L128.114 53.6177C126.66 54.8181 125.074 55.8854 123.488 56.9527C122.563 57.6199 121.506 58.2871 120.449 58.9533C120.184 59.0864 119.921 59.2204 119.656 59.3534C119.26 59.6205 118.731 59.7536 118.334 60.1537C117.806 60.5538 117.673 61.3541 118.202 61.8881C118.467 62.1552 118.863 62.2883 119.128 62.2883C119.392 62.2883 119.656 62.1552 119.921 62.0212C120.185 61.8881 120.449 61.6211 120.846 61.488C121.243 61.622 121.639 61.489 122.035 61.2219L122.035 61.2219Z" fill="black"/>
<path d="M172.516 38.9443C172.384 37.877 172.384 36.9437 172.384 36.0096C172.384 33.6089 171.723 31.2072 169.741 31.2072C168.42 31.2072 167.099 32.0075 166.041 32.6746C165.513 33.0748 164.852 33.3418 164.456 33.6089L162.87 34.1421C160.095 35.2094 157.32 36.2767 154.545 37.3439C154.148 37.4769 153.619 37.6109 153.091 37.8771C151.769 38.2772 150.316 38.6773 149.126 39.8777C148.598 39.8777 147.805 39.7446 147.145 39.4775C147.541 38.6773 148.07 37.877 148.466 36.9427C148.863 36.1425 149.127 35.2083 149.392 34.4079C150.053 32.2733 150.714 30.2728 152.431 29.0725C152.827 28.8054 153.357 28.6723 153.885 28.4053C154.281 28.2722 154.546 28.1382 154.942 28.0052C155.603 27.7381 156.131 27.338 156.66 27.0709C157.057 26.8039 157.321 26.6708 157.718 26.4037C158.114 26.1367 158.51 26.0036 159.039 25.8705C159.7 25.7375 160.493 25.4704 161.286 24.9363C162.079 24.4031 164.589 22.5356 164.061 20.401C163.797 19.4668 163.269 18.6665 162.476 18.2664C161.022 17.5992 158.776 17.8663 155.737 19.2006C155.34 19.3337 155.076 19.4677 154.811 19.4677C154.679 19.2006 154.811 18.5335 154.943 18.1333C154.943 17.8663 155.075 17.7332 155.075 17.4662C155.207 15.5986 155.736 13.8642 156.397 11.9966C156.793 10.7962 157.058 9.59589 157.322 8.39459C157.322 8.12753 157.587 3.85928 155.868 3.05913C155.604 2.92606 154.547 2.52594 153.622 3.72631C152.829 4.66055 152.565 5.8609 152.168 6.79423C152.037 7.19436 151.904 7.72847 151.772 8.1286C151.507 8.66179 151.244 9.19591 150.846 9.72909C150.45 10.2623 150.186 10.7964 149.789 11.4636C148.6 13.8643 147.939 16.5329 147.278 19.2007C147.146 19.7339 147.014 20.268 146.882 20.8012C146.882 21.0682 146.75 21.3344 146.617 21.6014C146.485 22.0015 146.221 23.2019 146.089 23.736C145.824 23.6029 145.561 23.2028 145.032 22.8018C144.9 22.6687 144.9 22.6687 144.767 22.5347C144.371 22.1346 143.842 21.7345 143.445 21.2003C141.463 19.1997 139.481 17.1981 136.31 16.398C136.178 16.398 136.045 16.2649 135.782 16.2649C134.724 15.8648 133.139 15.1976 132.081 16.2649C131.156 17.3322 132.081 18.6656 132.61 19.5999C132.741 19.733 132.741 19.8669 132.741 19.8669C133.27 21.0673 133.931 21.8675 134.592 22.5347C134.856 22.8017 135.12 23.0679 135.384 23.4689C135.781 24.0021 136.177 24.5362 136.573 25.0694C136.97 25.6026 137.366 26.2698 137.762 26.8039L138.159 27.204C138.423 27.4711 138.555 27.6041 138.555 27.8712C139.083 29.7387 138.027 32.5406 137.233 34.8081C136.969 35.3413 136.837 35.7424 136.705 36.2756C136.441 37.0758 136.177 38.01 136.044 38.8104C132.476 38.8104 129.833 38.9434 127.322 39.0774V38.2772C127.19 36.6767 127.058 34.9422 127.587 33.7419C127.851 33.2087 128.644 32.6746 129.305 32.0074C130.891 30.6731 133.401 28.8056 132.212 26.0047C131.023 23.4699 128.116 24.6704 126.133 25.6046C125.34 26.0047 123.755 26.6719 123.357 26.5388C123.357 26.5388 123.226 26.4058 123.226 26.0057C123.226 25.8726 123.226 25.6055 123.094 25.3385C122.566 22.6707 122.566 21.0693 123.094 20.5361C123.226 20.2691 123.49 20.136 123.755 19.8689C124.019 19.6019 124.416 19.2018 124.812 18.8016C126.794 16.4009 127.455 13.1989 127.719 11.8647C128.116 9.99716 128.247 7.59546 127.191 5.99492C126.663 5.32774 126.002 4.79455 125.077 4.66055C123.623 4.39349 122.565 5.86092 122.037 6.79514C121.906 6.9282 121.906 7.0622 121.773 7.19527C121.376 7.86245 120.847 8.6627 120.451 9.46292C119.525 11.1974 118.205 13.598 116.883 13.598C116.751 13.465 116.486 13.0648 116.355 12.2637C115.562 9.59594 113.844 5.72691 111.729 3.19305C110.54 1.85869 108.953 0.258285 107.5 0.52532C106.839 0.658383 106.442 1.05851 106.178 1.72569C105.65 3.32619 106.574 4.92749 107.235 6.261C107.5 6.66112 107.763 7.19524 107.763 7.46137C108.16 8.52868 108.292 9.72902 108.556 10.7963C108.688 11.3295 108.688 11.8636 108.821 12.2638C109.217 14.1313 109.746 15.8658 110.406 17.5992L110.803 18.5335C111.067 19.2006 111.463 19.8678 111.86 20.5341C112.521 21.6014 113.182 22.6686 112.917 23.4688C112.653 24.2691 111.067 24.8032 110.142 24.6692C109.877 24.6692 109.481 24.5361 109.084 24.2691C108.423 24.002 107.762 23.6019 106.838 23.6019H106.573C105.251 23.6019 103.402 23.6019 102.741 24.8023C102.477 25.3355 102.345 26.1366 103.006 27.203C104.46 29.4706 107.499 30.0048 109.878 30.2709C110.539 30.4039 111.067 30.4039 111.596 30.5379C111.861 30.671 112.257 30.9381 112.653 31.2051C112.785 31.3382 113.05 31.4722 113.182 31.6052C113.446 31.7383 113.71 32.0054 114.107 32.1384C114.768 32.5386 116.089 33.2057 116.222 33.7389C116.354 33.872 116.354 34.2721 116.354 34.6732V35.2064C116.485 36.0066 116.618 36.8069 116.75 37.474C116.882 38.0072 117.014 38.5413 117.014 39.0745C116.222 38.8075 115.296 38.5413 114.503 38.4073C113.578 38.2743 112.653 38.0072 111.861 37.7401C108.822 36.6728 106.179 35.0724 103.272 33.605C102.743 33.338 102.214 32.9379 101.686 32.6708C101.422 32.5377 100.761 31.8705 100.232 31.4704C98.5142 29.8699 96.7968 28.4025 95.3432 28.9356C93.7577 29.4688 93.3614 30.9362 92.965 32.0035C92.8332 32.2706 92.8332 32.5367 92.7004 32.6707C90.8504 37.4731 90.9823 41.3411 93.3614 44.5432C96.4005 48.5454 101.422 49.0785 105.387 49.6126H105.652C104.859 50.9469 104.198 52.2803 103.537 53.7477C103.405 53.8807 103.272 54.1478 103.272 54.2809C103.272 54.4139 103.141 54.4139 103.141 54.5479C102.083 56.9486 100.894 59.2173 99.4405 61.4849C99.3087 61.7519 99.176 61.885 99.0442 62.1521C97.3259 62.1521 95.344 62.2851 93.494 62.6852C92.5657 62.822 91.2439 63.0891 90.3193 62.822C89.6584 62.689 88.9975 63.0891 88.8657 63.7563C88.7339 64.4235 89.1302 65.0906 89.7912 65.2237C90.1875 65.3568 90.7166 65.3568 91.2448 65.3568C92.3021 65.3568 93.2267 65.2237 93.8875 65.0897C94.9448 64.9566 96.1339 64.8227 97.3231 64.6896V65.0897C96.9268 65.4898 96.6622 66.0239 96.134 66.2901C94.6804 67.3574 92.5658 68.4247 90.8486 69.358L90.7159 69.492C90.584 69.492 90.3195 69.6251 90.1877 69.6251C89.7913 69.7581 89.2622 69.7581 88.734 70.1583C88.2058 70.5584 87.6767 70.8254 87.1485 71.2256C86.6203 71.6257 86.0912 72.0258 85.563 72.2929C85.2985 72.4259 84.9021 72.693 84.6375 72.826C82.6557 73.8934 80.1448 75.3609 79.6157 78.0286C78.823 83.098 79.7475 85.8989 83.4475 89.634C83.5793 89.7671 83.7121 90.0341 83.9757 90.3012C84.3721 90.9684 84.9012 91.6356 85.5612 92.0357C87.6758 93.103 89.7904 93.103 91.904 92.9699C92.9613 92.9699 94.0186 92.9699 94.9432 93.103C95.7359 93.236 96.5287 93.6362 97.3214 94.1703C98.3787 94.7035 99.4359 95.3707 100.757 95.5046C103.268 95.7717 105.911 95.9048 108.686 95.9048C113.972 95.9048 118.994 95.2376 122.166 93.1029V94.8374C122.166 97.5051 122.034 100.84 122.166 102.442C122.43 105.643 120.976 111.112 119.258 114.447C118.994 115.114 119.127 115.781 119.787 116.181C119.918 116.314 120.183 116.314 120.315 116.314C120.843 116.314 121.24 116.047 121.372 115.647C123.222 111.912 124.808 106.176 124.411 102.307C124.279 100.84 124.411 97.5051 124.411 94.9703V92.0355C125.997 91.5024 128.111 91.1013 129.037 91.1013H129.301C131.416 91.5014 140.931 90.9682 145.027 81.7636C145.292 81.0965 145.027 80.4293 144.366 80.1632C143.705 79.8961 143.044 80.1632 142.781 80.8303C139.345 88.5674 131.152 88.9676 129.698 88.7006C127.848 88.4335 122.298 89.7679 120.976 90.9683C117.937 93.369 110.668 94.1701 100.889 93.2359H100.757C100.626 92.4357 99.7001 91.2353 95.8682 88.9667C93.7536 87.6323 91.2426 86.299 90.7145 86.1648C90.4499 86.0318 90.0535 86.0318 89.6572 85.8978C89.3926 85.8978 88.9962 85.7647 88.7317 85.6307C88.5999 85.3637 88.4671 84.5634 88.3353 83.4961C90.4499 82.829 93.3572 81.3615 94.2817 79.361C94.6781 78.2937 94.2817 77.4935 94.0172 77.0934C94.0172 76.9603 93.8854 76.9603 93.8854 76.9603C93.8854 76.6933 93.7535 76.4271 93.489 76.1601C93.3572 75.893 93.2244 75.6269 92.9608 75.3598C91.9035 74.8266 90.7144 74.6926 89.6571 74.6926H88.9962H88.0707C87.8061 74.6926 87.4098 74.6926 87.0134 74.5596C87.5416 74.1594 88.0707 73.8924 88.4671 73.4923C88.9953 73.0921 89.3925 72.8251 89.7889 72.558C89.9207 72.425 90.1853 72.425 90.4498 72.425C90.8462 72.2919 91.2426 72.2919 91.639 72.0248L91.7708 71.8918C93.6208 70.9575 95.8671 69.8912 97.4526 68.5568C97.849 68.2898 98.1136 68.0236 98.3781 67.7566C98.7745 68.1567 99.1709 68.5568 99.7 68.8239C100.757 69.224 101.946 69.4911 103.136 69.4911C104.457 69.4911 105.778 69.224 106.967 68.6908C108.553 68.0236 109.61 66.9563 110.139 65.489C110.271 65.2219 110.271 65.0889 110.139 64.8218C110.271 64.5548 110.404 64.2886 110.404 64.0216C110.404 63.3544 109.743 62.8212 109.082 62.9543C108.554 62.9543 107.628 62.8212 106.967 62.6872H106.571C105.117 62.4201 103.399 62.4201 101.945 62.4201C103.003 60.8197 103.795 59.0852 104.588 57.3508C104.72 57.4838 104.72 57.7509 104.853 57.884C105.249 58.5511 105.645 59.3514 106.174 60.0186C106.571 60.4187 106.835 60.6857 107.232 60.9528C107.628 61.2198 108.024 61.62 108.157 61.753C108.422 62.1532 108.818 62.2862 109.214 62.2862C109.479 62.2862 109.611 62.2862 109.875 62.0192C110.404 61.619 110.668 60.9519 110.272 60.2847C109.877 59.6212 109.349 59.2211 108.82 58.821C108.555 58.554 108.292 58.4209 108.027 58.1538C107.631 57.7537 107.366 57.0865 106.97 56.5533C106.574 55.8862 106.309 55.219 105.781 54.5527C107.499 51.0846 109.216 47.7497 111.992 45.2151C112.388 44.815 113.049 44.5479 113.71 44.4148C113.975 44.2818 114.106 44.2818 114.371 44.1478C117.41 42.9474 120.582 42.2802 124.282 42.0132L124.677 42.0123C127.849 41.8792 131.02 41.6121 135.646 41.6121V42.2793C135.646 42.9465 135.646 43.4797 135.514 44.1469C135.514 44.814 135.91 45.4812 136.571 45.4812C137.232 45.4812 137.893 45.0811 137.893 44.4139C137.893 43.7467 138.025 43.0795 138.025 42.4133C138.157 40.6788 138.289 38.9452 138.818 37.4778C138.949 37.0777 139.082 36.5436 139.346 36.1434C140.403 33.4757 141.592 30.2737 140.799 27.6059C140.535 26.8057 140.138 26.4056 139.742 26.0054C139.61 25.8724 139.478 25.8724 139.478 25.7384C139.081 25.2052 138.685 24.6711 138.42 24.1379C138.024 23.6047 137.628 22.9375 137.098 22.4034C136.834 22.0033 136.437 21.6032 136.173 21.3361C135.512 20.6689 135.116 20.2688 134.719 19.3355C134.719 19.2025 134.719 19.2025 134.587 19.0685C134.852 19.2015 134.984 19.2015 135.116 19.3355C137.627 20.0027 139.212 21.6032 141.195 23.4706C141.591 23.8708 142.12 24.4049 142.517 24.805L142.649 24.9381C143.574 25.8723 145.16 27.4729 146.613 26.6725C147.802 26.0054 148.199 24.5379 148.595 22.6703C148.595 22.4033 148.727 22.1372 148.727 22.0032C148.859 21.47 148.991 20.9359 149.123 20.4027C149.784 17.8679 150.445 15.3333 151.501 13.0655C151.766 12.6654 152.03 12.1313 152.294 11.7311C152.691 11.064 153.087 10.5308 153.483 9.73055C153.748 9.19736 153.88 8.66325 154.011 8.26312C154.143 7.863 154.276 7.59594 154.276 7.32888C154.276 7.86207 154.408 8.39618 154.276 8.66324C154.011 9.73055 153.615 10.9309 153.351 11.9982C152.822 13.8657 152.161 15.8663 152.029 18.0009V18.5341C151.897 19.4683 151.764 20.6687 152.293 21.7359C152.954 22.9363 154.54 23.0702 156.258 22.4031C159.562 20.9356 160.619 21.2027 160.884 21.3358C161.015 21.3358 161.148 21.4688 161.148 21.7359C161.148 22.0029 160.487 22.9363 159.298 23.7365C158.902 24.0035 158.373 24.1366 157.713 24.4037C157.184 24.5367 156.655 24.6707 155.994 25.0708C155.466 25.3379 155.069 25.604 154.673 25.8711C154.276 26.1382 153.88 26.4043 153.483 26.6713C153.219 26.8044 152.955 26.9384 152.691 26.9384C152.03 27.2055 151.237 27.4716 150.576 27.8726C148.198 29.6071 147.404 32.0078 146.611 34.5426C146.347 35.3428 146.083 36.1431 145.819 36.9433C145.422 37.7435 145.026 38.6777 144.497 39.611C143.44 41.3455 142.515 43.0791 142.25 45.3466C142.119 46.0138 142.647 46.681 143.308 46.681H143.44C144.101 46.681 144.629 46.1478 144.629 45.6137C144.761 44.5464 145.157 43.6131 145.554 42.6789C146.48 43.0791 147.536 43.2121 148.593 43.3461C149.122 43.6132 149.782 43.4792 150.179 43.0791C150.972 42.1448 152.161 41.7447 153.483 41.3446C154.011 41.2115 154.54 40.9445 155.068 40.8114C157.844 39.7441 160.618 38.6768 163.394 37.6096L164.979 37.0764C165.64 36.8094 166.301 36.4092 166.961 36.0091C167.754 35.609 168.546 34.9418 169.207 34.9418C169.472 35.3419 169.604 36.4092 169.604 37.3425V38.943C169.604 39.4762 169.735 40.0103 169.735 40.5435C170 43.2112 170.264 45.746 168.943 47.7465C166.167 51.8816 163.261 52.416 157.843 52.1487C157.446 52.1487 156.917 52.0156 156.389 52.0156C155.332 51.8826 154.274 51.7486 153.217 51.8826C152.292 52.0156 151.367 52.2827 150.574 53.0829C150.046 53.6161 150.046 54.4173 150.574 54.8174C150.839 55.0845 151.103 55.2175 151.5 55.2175C151.632 55.2175 151.896 55.2175 152.028 55.0845C152.028 55.2175 152.028 55.2175 152.16 55.3515C152.821 56.4188 153.085 57.7522 153.349 59.0867C153.481 59.6199 153.481 60.154 153.614 60.5541C154.406 64.2893 154.803 68.2912 154.539 72.6936C154.407 74.4281 154.143 76.1617 153.746 78.0291C153.35 79.8966 153.085 81.8971 152.954 83.8988V85.2332C152.822 88.9683 152.557 92.9703 153.35 96.5725C153.614 97.9069 154.275 98.9732 154.935 100.041C155.464 100.975 155.993 101.775 156.124 102.708C156.521 104.309 156.785 106.043 157.182 107.644C157.71 110.312 158.239 113.113 159.164 115.781C159.295 116.314 159.825 116.581 160.353 116.581H160.749C161.41 116.314 161.806 115.647 161.542 114.981C160.749 112.446 160.22 109.778 159.692 107.111C159.295 105.51 159.031 103.776 158.635 102.041C158.37 100.841 157.709 99.7736 157.181 98.7063C156.653 97.7721 156.124 96.8388 155.859 95.9045C155.198 92.4364 155.331 88.7015 155.463 85.0995V83.7651C155.594 81.8976 155.859 80.1631 156.255 78.1624C156.652 76.2948 156.916 74.4272 157.048 72.5596C157.313 67.8902 156.916 63.7551 155.991 59.7529C155.859 59.3528 155.859 58.8187 155.726 58.4185C155.462 56.9511 155.198 55.4838 154.404 54.0164C154.933 54.0164 155.594 54.1495 156.123 54.2834C156.651 54.4165 157.18 54.4165 157.841 54.4165C162.863 54.6836 167.487 54.5496 171.056 48.9469C173.177 45.0808 172.779 41.8787 172.516 38.944L172.516 38.9443ZM85.9593 88.035C85.9593 88.168 85.8274 88.302 85.8274 88.5681C85.5629 88.3011 85.4311 88.035 85.1665 87.7679C82.7883 85.3672 81.8628 83.6328 81.8628 81.098C82.2592 81.365 82.7883 81.6312 83.581 82.0322C84.9029 82.6994 85.6956 82.9665 86.0921 83.0995C86.2239 84.7 86.4884 85.6343 86.753 86.1674C86.3557 86.8346 86.0911 87.3688 85.9593 88.035L85.9593 88.035ZM88.7339 87.6348C88.8657 87.6348 89.1302 87.7679 89.2621 87.7679C89.5266 87.7679 89.7903 87.901 89.7903 87.901C90.4512 88.168 92.3013 89.1013 94.1511 90.3017H91.6401C90.3182 90.3017 88.9974 90.3016 87.6754 90.0346V89.9015C87.8072 89.6345 87.94 89.2343 88.0718 88.9673C88.3373 88.569 88.47 88.1689 88.7336 87.6348L88.7339 87.6348ZM102.61 64.424V64.9572C102.874 66.0245 103.535 66.2915 103.931 66.2915H104.063C104.591 66.2915 104.989 65.8914 105.252 65.4913C105.384 65.2242 105.384 64.9581 105.384 64.691H106.045L106.442 64.8241C106.706 64.8241 106.97 64.9572 107.367 64.9572C106.971 65.3573 106.574 65.7574 105.913 66.0245C104.328 66.6917 102.082 66.6917 100.628 66.1575C100.363 66.0245 100.232 65.7574 99.967 65.2233C100.099 64.9562 100.232 64.8232 100.363 64.5561H100.76C101.421 64.424 102.082 64.424 102.61 64.424L102.61 64.424ZM113.446 41.4795C113.314 41.6125 113.05 41.6125 112.918 41.7465C112.125 42.0136 111.2 42.4137 110.407 43.0809C109.085 44.2812 107.896 45.7486 106.971 47.216C106.575 47.216 106.046 47.0829 105.65 47.0829C101.949 46.6828 97.7202 46.1487 95.342 43.0807C93.6238 40.68 93.492 37.6112 95.0774 33.7431C95.2093 33.476 95.342 33.0759 95.342 32.8088C95.6065 32.0086 95.7384 31.7415 96.0029 31.4745C96.5311 31.7415 97.8529 32.9419 98.514 33.4751C99.3067 34.1423 99.9676 34.8094 100.496 35.0756C101.024 35.3426 101.553 35.7427 102.214 36.0098C104.99 37.6103 107.896 39.2116 111.068 40.412C112.125 40.8121 113.05 40.9451 114.107 41.2122C114.372 41.2122 114.503 41.3453 114.768 41.3453C114.107 41.2122 113.842 41.3453 113.446 41.4793L113.446 41.4795ZM125.207 32.6749C124.282 34.5424 124.546 36.6771 124.679 38.5447V39.2119H124.151C122.565 39.3449 120.979 39.4789 119.525 39.7451C119.525 38.8108 119.261 37.8775 119.129 37.0773C118.997 36.4101 118.864 35.743 118.733 35.0767V34.6766C118.733 34.1434 118.733 33.4762 118.336 32.8091C117.808 31.6087 116.354 30.8085 115.164 30.1413C114.9 30.0083 114.636 29.8743 114.372 29.6082C114.24 29.6082 114.107 29.4751 113.975 29.4751C113.447 29.075 112.786 28.6748 111.993 28.4078C111.463 28.2729 110.803 28.1398 110.142 28.1398C108.161 27.8727 106.046 27.4726 105.121 26.2723H106.443H106.839C107.235 26.2723 107.632 26.4053 108.161 26.6724C108.689 26.9394 109.218 27.2056 109.879 27.2056C111.861 27.4726 114.636 26.4053 115.297 24.4037C115.958 22.5362 114.901 20.6686 113.975 19.3344C113.579 18.8012 113.314 18.267 113.183 17.7339L112.785 16.8005C112.124 15.0661 111.596 13.5987 111.332 11.865C111.2 11.4649 111.2 10.9308 111.067 10.3976C110.803 9.06325 110.671 7.86281 110.274 6.66246C110.143 6.12927 109.878 5.72822 109.482 5.19503C109.35 4.92797 109.085 4.39478 108.821 3.99466C109.217 4.26171 109.482 4.66184 109.746 4.9289C111.332 6.79643 113.05 10.1314 113.843 13.0662C114.107 14.0004 114.768 16.268 117.014 16.1341C119.657 16.0011 121.243 13.0662 122.564 10.6646C122.961 9.86431 123.357 9.19712 123.754 8.66396C123.885 8.5309 123.885 8.3969 124.018 8.26383C124.15 7.99677 124.546 7.46359 124.811 7.19653C124.943 7.19653 125.075 7.32959 125.075 7.46359C125.472 8.13077 125.604 9.59818 125.207 11.3317C124.811 13.5993 123.885 15.7338 122.829 17.0673C122.697 17.3344 122.433 17.4674 122.168 17.7345C121.904 18.0016 121.507 18.2677 121.243 18.6687C119.657 20.5363 120.317 24.0042 120.714 25.6057C120.714 25.8728 120.714 26.0058 120.846 26.0058C120.978 27.2062 121.374 28.0064 122.168 28.4065C123.622 29.2068 125.472 28.4065 127.19 27.6063C127.983 27.2062 129.701 26.539 130.097 26.672C130.494 27.6063 129.833 28.2725 127.983 29.74C126.661 30.8073 125.735 31.6075 125.207 32.6747L125.207 32.6749Z" fill="black"/>
<path d="M85.8535 199.592L77.9575 179.852H80.4495L88.3455 199.592H85.8535ZM77.4815 199.592V179.852H80.0295V199.592H77.4815ZM86.5255 199.592V179.852H89.0735V199.592H86.5255ZM102.21 194.776V184.64H104.758V194.776H102.21ZM93.6985 194.776V184.64H96.2465V194.776H93.6985ZM104.758 184.668H102.21C102.21 183.698 101.94 182.951 101.398 182.428C100.876 181.906 100.148 181.644 99.2145 181.644V179.432C100.316 179.432 101.277 179.656 102.098 180.104C102.938 180.534 103.592 181.15 104.058 181.952C104.525 182.736 104.758 183.642 104.758 184.668ZM93.6985 184.668C93.6985 183.642 93.9318 182.736 94.3985 181.952C94.8652 181.15 95.5185 180.534 96.3585 180.104C97.1985 179.656 98.1598 179.432 99.2425 179.432V181.644C98.3092 181.644 97.5718 181.906 97.0305 182.428C96.5078 182.951 96.2465 183.698 96.2465 184.668H93.6985ZM104.758 194.748C104.758 195.794 104.525 196.708 104.058 197.492C103.592 198.276 102.938 198.892 102.098 199.34C101.277 199.788 100.316 200.012 99.2145 200.012V197.8C100.148 197.8 100.876 197.539 101.398 197.016C101.94 196.475 102.21 195.719 102.21 194.748H104.758ZM93.6985 194.748H96.2465C96.2465 195.719 96.5078 196.475 97.0305 197.016C97.5718 197.539 98.3092 197.8 99.2425 197.8V200.012C98.1598 200.012 97.1985 199.788 96.3585 199.34C95.5185 198.892 94.8652 198.276 94.3985 197.492C93.9318 196.708 93.6985 195.794 93.6985 194.748ZM116.907 194.356V185.088H119.455V194.356H116.907ZM111.167 199.592V197.38H113.939V199.592H111.167ZM111.167 182.064V179.852H113.939V182.064H111.167ZM111.167 182.064V179.852H113.939V182.064H111.167ZM119.455 185.088H116.907C116.907 184.118 116.646 183.371 116.123 182.848C115.601 182.326 114.873 182.064 113.939 182.064V179.852C115.022 179.852 115.974 180.076 116.795 180.524C117.635 180.954 118.289 181.57 118.755 182.372C119.222 183.156 119.455 184.062 119.455 185.088ZM119.455 194.328C119.455 195.374 119.222 196.288 118.755 197.072C118.289 197.856 117.635 198.472 116.795 198.92C115.974 199.368 115.022 199.592 113.939 199.592V197.38C114.873 197.38 115.601 197.119 116.123 196.596C116.646 196.055 116.907 195.299 116.907 194.328H119.455ZM109.375 199.592V179.852H111.923V199.592H109.375ZM125.492 199.592V197.38H133.248V199.592H125.492ZM125.912 190.884V188.616H131.568V190.884H125.912ZM124.064 179.852H126.612V199.592H124.064V179.852ZM125.772 179.852H132.968V182.064H125.772V179.852ZM138.813 199.704C138.346 199.704 137.954 199.546 137.637 199.228C137.32 198.911 137.161 198.519 137.161 198.052C137.161 197.586 137.32 197.194 137.637 196.876C137.954 196.54 138.346 196.372 138.813 196.372C139.28 196.372 139.672 196.54 139.989 196.876C140.325 197.194 140.493 197.586 140.493 198.052C140.493 198.519 140.325 198.911 139.989 199.228C139.672 199.546 139.28 199.704 138.813 199.704ZM148.046 195.308V179.852H150.594V195.308H148.046ZM150.594 195.308C150.594 196.802 150.221 197.968 149.474 198.808C148.746 199.63 147.719 200.04 146.394 200.04L146.17 197.828C146.562 197.828 146.898 197.735 147.178 197.548C147.458 197.343 147.673 197.054 147.822 196.68C147.971 196.288 148.046 195.831 148.046 195.308H150.594ZM144.854 197.352C145.059 197.483 145.265 197.595 145.47 197.688C145.694 197.782 145.927 197.828 146.17 197.828L146.394 200.04C145.946 200.04 145.507 199.966 145.078 199.816C144.649 199.667 144.238 199.452 143.846 199.172L144.854 197.352ZM163.342 195.168C163.342 194.478 163.146 193.871 162.754 193.348C162.362 192.807 161.858 192.303 161.242 191.836C160.626 191.37 159.963 190.894 159.254 190.408C158.563 189.923 157.91 189.391 157.294 188.812C156.678 188.234 156.174 187.58 155.782 186.852C155.39 186.106 155.194 185.247 155.194 184.276H157.742C157.742 184.948 157.938 185.555 158.33 186.096C158.722 186.619 159.226 187.123 159.842 187.608C160.458 188.075 161.111 188.551 161.802 189.036C162.511 189.522 163.174 190.054 163.79 190.632C164.406 191.192 164.91 191.846 165.302 192.592C165.694 193.32 165.89 194.179 165.89 195.168H163.342ZM155.194 184.332C155.194 183.306 155.427 182.428 155.894 181.7C156.361 180.972 157.014 180.412 157.854 180.02C158.694 179.628 159.655 179.432 160.738 179.432V181.616C159.805 181.616 159.067 181.859 158.526 182.344C158.003 182.83 157.742 183.492 157.742 184.332H155.194ZM165.89 195.112C165.89 196.12 165.657 196.998 165.19 197.744C164.723 198.472 164.07 199.032 163.23 199.424C162.409 199.816 161.447 200.012 160.346 200.012V197.8C161.279 197.8 162.007 197.567 162.53 197.1C163.071 196.615 163.342 195.952 163.342 195.112H165.89ZM163.37 184.08C163.277 183.24 162.978 182.624 162.474 182.232C161.989 181.822 161.41 181.616 160.738 181.616V179.432C161.615 179.432 162.409 179.61 163.118 179.964C163.827 180.319 164.415 180.804 164.882 181.42C165.349 182.036 165.638 182.764 165.75 183.604L163.37 184.08ZM156.986 194.048C157.098 195.224 157.443 196.148 158.022 196.82C158.619 197.474 159.394 197.8 160.346 197.8V200.012C158.759 200.012 157.462 199.527 156.454 198.556C155.465 197.586 154.867 196.242 154.662 194.524L156.986 194.048Z" fill="black"/>
</svg>
