<svg width="53" height="53" viewBox="0 0 53 53" fill="none" xmlns="http://www.w3.org/2000/svg">
<path fill-rule="evenodd" clip-rule="evenodd" d="M26.5002 1.24219C12.2094 1.24219 0.621094 12.8284 0.621094 27.1213C0.621094 38.5554 8.03625 48.256 18.3188 51.6779C19.6122 51.9175 20.087 51.1165 20.087 50.433C20.087 49.8159 20.063 47.7773 20.0519 45.6148C12.8523 47.1803 11.3331 42.5614 11.3331 42.5614C10.1558 39.5702 8.45965 38.7748 8.45965 38.7748C6.11164 37.1686 8.63664 37.2016 8.63664 37.2016C11.2354 37.3842 12.6037 39.8685 12.6037 39.8685C14.9119 43.8248 18.6578 42.681 20.1346 42.0198C20.3668 40.3471 21.0375 39.2055 21.7776 38.5592C16.0295 37.9048 9.987 35.6858 9.987 25.7697C9.987 22.9443 10.9979 20.6357 12.6534 18.8233C12.3847 18.1715 11.4989 15.5394 12.9041 11.9747C12.9041 11.9747 15.0773 11.2792 20.0227 14.6274C22.087 14.054 24.3009 13.7665 26.5002 13.7566C28.6995 13.7665 30.9151 14.054 32.9833 14.6274C37.9227 11.2792 40.0929 11.9747 40.0929 11.9747C41.5015 15.5394 40.6153 18.1715 40.3466 18.8233C42.0059 20.6357 43.01 22.9443 43.01 25.7697C43.01 35.7094 36.9559 37.898 31.1932 38.5387C32.1215 39.3418 32.9486 40.9167 32.9486 43.3311C32.9486 46.7938 32.9186 49.5806 32.9186 50.433C32.9186 51.1217 33.3844 51.9286 34.6962 51.6745C44.9732 48.2487 52.3789 38.5515 52.3789 27.1213C52.3789 12.8284 40.7923 1.24219 26.5002 1.24219ZM10.3137 38.1075C10.2567 38.2361 10.0544 38.2747 9.87012 38.1864C9.68242 38.102 9.57699 37.9267 9.63785 37.7977C9.69356 37.6653 9.89626 37.6284 10.0835 37.7171C10.2717 37.8016 10.3788 37.9785 10.3137 38.1075ZM11.5866 39.2434C11.4632 39.3578 11.2219 39.3047 11.0582 39.1238C10.889 38.9434 10.8572 38.7021 10.9824 38.586C11.1097 38.4716 11.3436 38.5251 11.5133 38.7056C11.6826 38.8881 11.7156 39.1277 11.5866 39.2434ZM12.4599 40.6967C12.3014 40.8068 12.0421 40.7035 11.8818 40.4734C11.7233 40.2433 11.7233 39.9673 11.8853 39.8567C12.046 39.7462 12.3014 39.8456 12.4638 40.074C12.6219 40.308 12.6219 40.584 12.4599 40.6967ZM13.9369 42.3798C13.795 42.5362 13.4929 42.4942 13.2718 42.2808C13.0455 42.0721 12.9825 41.776 13.1248 41.6195C13.2683 41.4627 13.5722 41.5068 13.795 41.7185C14.0196 41.9268 14.0882 42.2251 13.9369 42.3798ZM15.8457 42.948C15.7831 43.1507 15.4921 43.2428 15.199 43.1567C14.9063 43.068 14.7147 42.8306 14.7739 42.6257C14.8347 42.4217 15.127 42.3257 15.4223 42.4179C15.7145 42.5061 15.9065 42.7418 15.8457 42.948ZM18.018 43.189C18.0253 43.4024 17.7767 43.5794 17.469 43.5833C17.1596 43.5901 16.9093 43.4174 16.9059 43.2074C16.9059 42.9919 17.1489 42.8166 17.4583 42.8114C17.766 42.8054 18.018 42.9769 18.018 43.189ZM20.152 43.1072C20.1889 43.3155 19.975 43.5293 19.6695 43.5863C19.3691 43.6412 19.0909 43.5126 19.0528 43.306C19.0155 43.0926 19.2332 42.8788 19.5332 42.8235C19.8392 42.7703 20.113 42.8955 20.152 43.1072Z" fill="#161614"/>
</svg>
