<svg width="82" height="68" viewBox="0 0 82 68" fill="none" xmlns="http://www.w3.org/2000/svg">
<g clip-path="url(#clip0_140_696)">
<path fill-rule="evenodd" clip-rule="evenodd" d="M41 12.7514C42.9721 9.32748 45.0601 6.61943 47.5557 4.62331C50.9281 1.92725 54.9237 0.57931 60.2 0.57931C66.052 0.57931 71.3523 2.95514 75.188 6.79154C79.0244 10.6273 81.4002 15.9268 81.4002 21.7789C81.4002 35.6666 72.3963 42.5234 60.4362 51.6263C54.8761 55.8625 48.6404 60.6062 42.4156 66.8346C41.6355 67.6107 40.3679 67.6107 39.5877 66.8346C33.3601 60.6069 27.1276 55.8585 21.5637 51.6223C9.60796 42.5226 0.599731 35.6581 0.599731 21.7783C0.599731 15.9304 2.97556 10.6261 6.81607 6.79034C10.6472 2.95463 15.9474 0.578796 21.7993 0.578796C27.0753 0.578796 31.0712 1.92679 34.4435 4.6228C36.9393 6.62303 39.0272 9.3304 40.9993 12.7509L41 12.7514Z" fill="black"/>
</g>
<defs>
<clipPath id="clip0_140_696">
<rect width="82" height="68" fill="white"/>
</clipPath>
</defs>
</svg>
