<svg width="57" height="57" viewBox="0 0 57 57" fill="none" xmlns="http://www.w3.org/2000/svg">
<path d="M49.0645 0C51.8691 0 54.1485 2.25069 54.1938 5.04515L54.1945 5.13V51.87C54.1945 54.6746 51.9431 56.954 49.1494 56.9993L49.0645 57H8.02453C5.21996 57 2.94053 54.7486 2.89522 51.9548L2.89453 51.87V5.13C2.89453 2.32472 5.14592 0.0459815 7.93971 0.000687157L8.02453 0H49.0645ZM49.0645 2.85H8.02453C6.78732 2.85 5.77656 3.84143 5.74528 5.07126L5.74453 5.13V51.87C5.74453 53.1072 6.73596 54.118 7.96579 54.1493L8.02453 54.15H49.0645C50.3024 54.15 51.3125 53.1586 51.3438 51.9287L51.3445 51.87V5.13C51.3445 3.87315 50.3221 2.85 49.0645 2.85ZM15.7195 37.05L22.132 42.75L15.7195 48.45V37.05ZM21.4195 8.55V24.7316C24.2653 23.8053 28.2431 22.8 32.107 22.8C35.6303 22.8 37.7393 24.1851 38.8879 25.3472C41.3144 27.8019 41.3722 30.9221 41.3689 31.3382L41.3688 31.35L41.3695 48.45H35.6695V31.4284C35.6417 30.0981 35.0005 28.5 32.107 28.5C26.3695 28.5 19.9407 31.3568 19.7497 31.4423L19.7459 31.444L15.7195 33.2681V8.55H21.4195ZM41.3695 8.55C40.9848 11.7876 39.6724 14.8912 37.0945 17.8125H31.3945C33.6346 14.8734 35.0411 11.7805 35.6695 8.55H41.3695Z" fill="#430098"/>
</svg>
