<svg width="258" height="375" viewBox="0 0 258 375" fill="none" xmlns="http://www.w3.org/2000/svg">
<path d="M182.957 99.2193C182.957 99.0899 182.828 98.9596 182.828 98.9596C182.568 98.1814 182.439 97.5326 182.31 96.8839C182.05 95.4569 181.402 94.1593 180.884 93.1225C180.625 92.604 180.366 92.2141 180.236 91.6956C180.106 91.3065 179.976 91.0468 179.718 90.6577C179.329 89.7493 178.94 88.9711 178.681 88.0636C178.551 87.4148 178.551 86.7661 178.421 86.1182C178.421 85.34 178.292 84.4316 178.162 83.6533C177.384 80.7996 176.088 77.6859 175.051 75.2222C174.143 73.2768 173.496 71.3304 172.847 69.2547C172.588 68.4765 172.329 67.8278 172.07 67.0496C171.941 66.5311 171.681 66.1411 171.552 65.7521C171.163 64.8436 170.903 64.0655 170.774 63.1579C171.034 62.8982 171.941 62.2495 171.552 60.9529C171.163 59.2662 170.255 57.8394 169.348 56.4123C168.7 55.3744 168.182 54.3366 167.793 53.429C168.182 53.2996 168.701 53.1693 168.96 52.7802C169.219 52.5205 169.348 52.0021 169.219 51.613C168.96 49.797 168.053 48.1104 167.275 46.6835L167.016 46.165C165.33 42.7926 162.09 36.5657 157.165 33.5824C156.257 33.0639 154.833 32.8042 153.407 32.4151C152.499 32.2857 151.592 32.026 151.074 31.7664C150.815 31.637 150.556 31.637 150.426 31.7664C148.352 26.8369 146.149 22.6864 143.556 18.7946C143.297 18.2761 143.038 17.7567 142.779 17.2383C142.519 16.7198 142.261 16.071 141.871 15.5517C138.631 10.233 134.094 5.69334 129.427 2.83955C129.298 2.71016 124.632 0.63447 123.595 0.894161C122.298 1.15385 122.429 2.71016 122.429 4.52625C122.429 5.04473 122.558 5.95319 122.429 6.21286C122.299 6.34225 122.04 6.60195 121.911 6.86164C121.522 7.25072 121.133 7.6398 120.874 8.15918C120.614 8.67766 120.355 9.32643 120.225 9.84579C119.577 9.19702 118.929 8.28946 118.281 7.38092C116.985 5.69432 115.689 4.0085 113.615 2.84034C112.707 2.32186 111.023 1.54279 109.727 2.06217C108.43 2.45126 108.56 4.52704 108.69 5.56478C108.819 6.86233 109.078 8.02965 109.338 9.19688C109.597 10.1053 109.727 10.8835 109.856 11.6617C109.985 12.5702 109.985 13.4777 110.115 14.5155C110.245 16.4609 110.245 18.4073 111.023 20.2233C111.412 21.3906 112.06 22.6882 112.967 23.7259C113.226 23.9856 113.744 24.3747 114.522 24.8932C114.782 25.0226 115.04 25.1529 115.3 25.4117C114.133 26.0604 113.096 27.0983 112.708 28.3949C112.708 28.5243 112.578 29.3034 112.578 30.2109C112.449 30.2109 112.319 30.0816 112.189 30.0816C110.764 29.6925 109.209 29.5631 107.523 29.3034H107.005C102.21 28.9143 93.3954 28.1361 92.4885 35.2709C92.3592 36.5684 92.3592 37.7357 92.6178 38.5138C93.3954 40.7189 95.7288 42.1459 98.8391 42.5348H99.0986C98.9693 43.1836 98.8391 43.7021 98.8391 44.2214C98.9684 45.7778 100.005 47.3349 101.691 48.2424C101.561 48.2424 101.431 48.3718 101.431 48.3718C100.654 48.6315 99.8761 49.0206 99.0986 49.4097C96.247 50.966 93.0066 52.9123 89.8954 54.9871C87.692 56.414 85.8775 58.1005 84.0629 59.7864C83.2854 60.4352 82.5078 61.084 81.7303 61.7318C78.876 64.1948 74.9873 67.8267 74.2098 71.7184C73.6918 72.7563 73.6918 73.016 73.5616 73.4051C73.3021 74.5723 72.9133 75.8699 73.1728 77.2968C73.4323 78.3347 74.0805 78.7238 74.5986 78.8531C74.7279 78.8531 74.8581 78.9825 74.8581 78.9825V79.3716C74.7288 80.4095 74.34 81.317 73.9503 82.3549C73.3021 84.0415 72.5245 85.8575 72.9133 87.9323C73.0426 88.9701 73.6909 89.7483 74.2098 90.3972C74.3391 90.5265 74.4693 90.6568 74.5986 90.9156C75.8951 92.7316 77.9684 93.3805 80.1716 93.3805C80.8199 93.3805 81.4681 93.3805 82.1155 93.2511C81.5974 94.1596 81.0784 95.4562 81.3379 96.494C81.4672 97.1428 81.9862 97.6613 82.5043 97.7916C83.412 98.1807 84.4481 98.0513 85.3558 97.921C85.7446 97.921 86.0041 97.7916 86.2635 97.7916C86.3928 97.7916 86.523 97.921 86.7816 97.921C87.1704 98.0504 87.6894 98.1807 88.0781 98.1807C88.3376 98.1807 88.5962 98.1807 88.8557 98.0513C89.3738 97.7916 89.8927 97.5328 90.4108 97.2731C91.5771 96.6243 92.7434 96.1059 93.9107 95.9756C94.5589 95.8462 95.3365 95.9756 96.114 95.9756H98.3174C98.7061 95.9756 98.9656 95.8462 99.3544 95.8462C99.8725 95.7168 100.262 95.7168 100.651 95.7168C100.91 95.7168 101.169 95.7168 101.559 95.8462C102.466 95.9756 103.373 96.1059 104.281 95.9756C107.133 95.5865 109.725 94.4192 112.188 93.251C113.743 92.6023 115.299 91.9535 116.725 91.435C118.15 90.9166 121.002 90.2678 123.335 90.9166C124.89 91.3056 126.316 91.825 127.741 92.4729C129.945 93.3814 132.148 94.2889 134.74 94.5486C133.574 96.3646 132.277 98.8293 132.926 100.905C133.314 102.332 134.611 102.332 135 102.332H135.129C136.037 104.408 136.037 107.52 136.037 109.207C136.037 109.856 136.555 110.374 137.203 110.374C137.851 110.374 138.369 109.856 138.369 109.207C138.369 106.353 138.24 103.499 137.203 101.294C136.685 100.127 135.648 100.127 135.129 100.127C135 98.8294 136.166 96.7545 137.073 95.4571C137.202 95.1974 137.462 94.8083 137.591 94.5486C138.239 94.4192 138.888 94.1596 139.406 93.8999C140.054 93.6402 140.572 93.3814 141.22 93.2511C141.48 93.1217 141.868 93.1217 142.257 93.1217C142.646 93.1217 143.165 93.1217 143.683 92.9923C150.812 91.436 154.182 89.1005 157.163 83.7819C157.292 83.5222 157.551 83.1331 157.681 82.8734C158.458 81.5759 159.366 80.1489 159.366 78.722C159.366 78.0732 158.848 77.5547 158.2 77.5547C157.551 77.5547 157.033 78.0732 157.033 78.722C157.033 79.5002 156.256 80.6674 155.737 81.7053C155.477 82.0944 155.348 82.354 155.088 82.7431C152.496 87.5424 149.515 89.4887 143.164 90.7854C142.904 90.9148 142.516 90.9148 142.127 90.9148C141.738 90.9148 141.219 90.9148 140.701 91.0442C139.793 91.1736 139.016 91.5626 138.368 91.8223C137.461 92.2114 136.683 92.6005 135.646 92.4711C133.183 92.3417 130.98 91.4333 128.647 90.5257C127.092 89.8769 125.536 89.3585 123.981 88.8391C121.259 88.1903 118.149 88.8391 116.074 89.4879C114.389 90.0064 112.834 90.7854 111.279 91.4333C108.816 92.4711 106.483 93.509 104.021 93.8981C103.372 94.0275 102.595 93.8981 101.947 93.7688C101.687 93.7688 101.298 93.6394 101.039 93.6394C100.391 93.6394 99.7423 93.6394 99.2243 93.7688C98.9648 93.7688 98.7062 93.8981 98.4467 93.8981H96.5029H94.0399C92.4848 94.0275 91.059 94.8066 89.7626 95.4545C89.2446 95.7142 88.8549 95.973 88.3368 96.1032C88.2075 96.1032 87.948 95.9739 87.6885 95.9739C87.2998 95.8445 86.911 95.7142 86.5222 95.7142C86.1334 95.7142 85.7447 95.7142 85.3559 95.8436C84.8378 95.8436 84.1896 95.973 83.6706 95.8436C83.7999 95.1948 84.4482 94.0276 84.8369 93.5091C84.9662 93.2494 85.0964 92.9906 85.0964 92.8603C85.2257 92.8603 85.3559 92.7309 85.4852 92.7309C86.1335 92.6016 86.6515 92.3419 87.1705 92.0822C87.5593 91.8225 87.948 91.6931 88.3368 91.5637C89.6333 91.1746 91.5772 90.7855 93.3918 90.6552C95.3357 90.3955 97.4097 90.3955 98.9648 90.6552C99.0941 90.6552 99.2243 90.7846 99.3536 90.9149C100.002 91.304 101.686 92.0822 102.465 90.6552C102.724 90.1368 102.594 89.3577 102.076 89.0989C101.687 88.8392 101.298 88.8392 100.909 89.0989C100.78 88.9695 100.521 88.9695 100.391 88.8392C100.003 88.7098 99.6139 88.4501 99.3544 88.4501C97.4105 88.1904 95.3365 88.1904 93.1331 88.4501C92.2253 88.5795 89.7633 88.8392 87.6892 89.488C87.1712 89.6174 86.6522 89.8771 86.1341 90.1367C85.7453 90.3964 85.2264 90.5258 84.8376 90.6552C80.3006 91.8225 77.5793 91.5637 76.413 89.8771C76.2837 89.7477 76.1536 89.488 76.0243 89.3586C75.6355 88.8401 75.2467 88.3207 75.1165 87.8023C74.857 86.1175 75.5053 84.6904 76.0243 83.2635C76.413 82.0963 76.932 80.9291 77.0613 79.6314C77.3208 77.8154 76.1536 77.1666 75.5062 76.9069L75.3769 76.7775C75.2476 75.869 75.5062 74.9615 75.7657 73.9237C75.895 73.5346 75.895 73.1455 76.0252 72.7565C76.6734 69.5135 80.1733 66.2706 82.7654 64.0654C83.543 63.4166 84.3205 62.6384 85.098 61.9897C86.9126 60.3031 88.5979 58.7468 90.671 57.4491C93.652 55.5037 97.0224 53.5573 99.7439 52.001C100.392 51.6119 101.04 51.3522 101.818 51.0925C102.595 50.7034 103.503 50.4437 104.281 49.9253C104.67 49.9253 105.058 50.0546 105.318 50.0546C106.744 50.0546 108.169 49.6656 109.595 48.7571C110.243 48.368 110.892 47.9789 111.41 47.3302C112.836 48.4974 115.558 48.4974 117.631 48.2386C119.446 48.1092 121.52 46.9411 123.204 45.3848C123.464 45.1251 123.852 44.7361 124.112 44.347C124.241 44.4764 124.371 44.7361 124.501 44.8655C124.76 45.1251 125.019 45.3839 125.408 45.6436C123.594 46.9412 121.52 48.1085 119.446 48.8866C118.538 49.2756 117.502 49.405 116.465 49.6647C115.428 49.9244 114.261 50.1832 113.095 50.5732C112.058 50.9623 111.28 51.4817 110.503 52.0001C109.855 52.3892 109.336 52.7783 108.688 53.038C108.429 53.1674 108.04 53.2977 107.651 53.4271C107.262 53.5565 106.874 53.6868 106.355 53.8162C105.837 54.0758 105.447 54.7246 105.706 55.3725C105.836 55.7616 106.355 56.0213 106.743 56.0213C106.873 56.0213 107.003 56.0213 107.132 55.8919C107.392 55.7625 107.781 55.6322 108.169 55.5028C108.558 55.3734 108.947 55.2431 109.466 55.1137C110.243 54.7246 111.021 54.3355 111.669 53.9465C112.447 53.428 113.095 53.038 113.873 52.7792C114.91 52.3901 115.816 52.1304 116.984 51.8707C118.021 51.611 119.058 51.3523 120.224 50.9623C122.946 50.0538 125.538 48.4974 127.612 46.8109C129.298 47.4596 131.242 47.589 133.056 47.3293C134.611 47.0696 136.037 46.0318 137.334 44.0864C137.593 44.3461 137.982 44.6049 138.5 44.7352C140.055 44.9949 141.611 44.3461 142.258 43.1788C142.647 42.5301 143.295 40.714 141.221 38.2493C141.092 37.9896 140.833 37.8602 140.573 37.8602C140.055 36.9518 139.407 36.0442 138.629 35.2661C137.592 33.9686 136.037 33.1904 134.481 32.5416C133.703 32.1525 132.926 31.7634 132.278 31.3743C128 28.5205 125.279 25.9262 123.853 23.3321C121.909 19.5707 120.483 13.8629 122.687 9.45182C122.816 9.19213 123.076 8.93335 123.335 8.67366C123.724 8.28457 124.113 7.89549 124.372 7.37611C124.632 6.85763 124.632 5.94917 124.632 4.52232V3.48446C125.798 3.87355 127.872 4.65171 128.261 4.9114C132.538 7.50553 136.816 11.9157 139.926 16.8454C140.185 17.2345 140.444 17.7539 140.574 18.2724C140.833 18.9211 141.092 19.4396 141.482 20.0884C144.463 24.629 147.055 29.6877 149.388 35.7847C149.648 36.4334 150.296 36.6931 150.814 36.4334C151.462 36.1738 151.722 35.525 151.462 35.0065C151.333 34.7468 151.333 34.6174 151.203 34.3577C151.721 34.4871 152.24 34.6174 152.758 34.7468C153.924 35.0065 155.221 35.2653 155.739 35.6553C160.146 38.2494 163.127 44.0865 164.812 47.3294L165.071 47.8479C165.72 49.0151 166.368 50.1823 166.626 51.3505C166.238 51.4799 165.589 51.6102 165.33 52.1287C165.201 52.3883 164.941 52.7774 165.201 53.4262C165.589 54.9825 166.497 56.28 167.275 57.7069C168.052 59.0044 168.83 60.1717 169.089 61.4682C168.7 61.7279 168.181 62.2464 168.312 63.2842C168.441 64.4515 168.83 65.4893 169.349 66.5272C169.478 66.9163 169.737 67.3053 169.867 67.8247C170.126 68.4735 170.385 69.2517 170.644 69.9004C171.293 71.8458 172.07 73.9214 172.977 75.9971C174.014 78.3316 175.31 81.3158 175.958 84.0394C176.087 84.6882 176.217 85.3369 176.217 86.1151C176.217 86.8933 176.347 87.6714 176.477 88.4495C176.736 89.4874 177.125 90.5252 177.643 91.4328C177.772 91.8219 177.903 92.0816 178.032 92.4707C178.291 92.9892 178.55 93.5085 178.809 94.027C179.328 95.1943 179.847 96.1027 180.106 97.27C180.235 97.7884 180.366 98.3078 180.495 98.8263C180.366 99.2154 180.495 99.7347 180.754 100.124H180.884C180.884 100.253 181.013 100.384 181.143 100.513C181.403 100.773 181.791 101.031 182.051 101.031C182.31 101.031 182.44 101.031 182.699 100.902C182.957 100.775 183.475 100.256 182.957 99.219L182.957 99.2193ZM127.352 30.5986C127.612 30.8583 128 31.1171 128.26 31.5071C129.168 32.2852 130.074 33.3231 131.5 33.5828H132.018C132.536 33.8425 133.055 34.1012 133.444 34.3609C134.741 35.0097 136.036 35.6585 136.814 36.566C137.722 37.6039 138.24 38.5114 138.888 39.6795L139.017 39.9392C139.277 40.3283 139.535 40.4576 139.925 40.4576C140.185 40.9761 140.314 41.4955 140.054 41.8846C139.795 42.2737 139.277 42.4031 138.758 42.4031C138.629 42.2737 138.498 42.1434 138.498 42.014C138.239 41.6249 137.85 41.1055 137.202 40.9761C136.813 40.8467 136.424 40.9761 136.165 41.1055C135.647 41.4946 135.516 42.014 135.516 42.4031V42.5325C134.479 43.9594 133.573 44.7375 132.536 44.9973C130.203 45.5158 127.61 44.7376 126.055 43.1813C125.926 43.0519 125.795 42.6628 125.666 42.4032C125.277 41.7544 125.018 41.2359 124.5 40.8468C124.112 40.5871 123.723 40.5871 123.334 40.7165C122.816 41.2359 122.816 41.8838 122.816 42.2729V42.4022C122.687 42.9207 122.168 43.4401 121.779 43.6998C120.742 44.7376 119.187 45.7755 117.631 45.9049C115.428 46.1646 113.483 45.9049 112.835 45.3864L112.706 45.257C112.706 44.9973 112.577 44.6082 112.317 44.3485C112.058 43.9595 111.54 43.9595 111.021 44.0889C110.632 44.2182 110.373 44.7376 110.373 45.1267L110.243 45.2561C109.855 45.7755 109.336 46.1646 108.558 46.6839C106.743 47.8512 104.929 47.9815 102.985 47.073C101.948 46.6839 100.911 45.7755 100.782 44.6082C100.782 44.2191 100.911 43.5703 101.17 43.0518C101.948 42.9224 103.114 42.5334 103.114 41.4955C103.114 40.977 102.855 40.4576 102.077 40.3282C101.429 40.1989 100.651 40.3282 100.133 40.8467C99.6153 40.8467 98.9671 40.7173 98.7076 40.7173C97.6705 40.5879 95.0783 40.0686 94.4303 38.2525C94.301 37.9928 94.1708 37.344 94.4303 36.1768C95.0785 31.5069 100.782 31.6362 106.614 32.1558H107.132C108.688 32.2852 110.243 32.5448 111.539 32.8045C112.187 32.9339 112.576 33.0642 112.965 33.323C112.965 33.4524 113.094 33.5827 113.094 33.5827C113.354 33.9718 113.872 34.2315 114.261 34.2315C114.779 34.2315 115.298 33.8424 115.427 33.323C115.556 32.6742 115.298 32.1558 114.779 31.7667C114.649 30.9885 114.649 29.8213 114.649 29.3018C115.038 27.7455 116.982 27.0967 118.667 27.0967C121.649 27.2261 124.76 28.3934 127.352 30.5984L127.352 30.5986ZM122.038 24.2422C122.297 24.6313 122.556 25.1507 122.815 25.6692C121.389 25.2801 119.964 25.0204 118.538 25.0204H117.501C116.983 24.5019 116.335 24.1119 115.298 23.4641C114.909 23.2044 114.261 22.8153 114.131 22.6859C113.483 21.9077 112.965 20.7405 112.576 19.7026C111.928 18.1463 111.928 16.4597 111.799 14.6436C111.799 13.6058 111.669 12.5679 111.539 11.6604C111.41 10.7519 111.15 9.84435 111.021 8.93582C110.762 7.76857 110.503 6.73074 110.373 5.69288V5.56349V4.39624C110.891 4.52563 111.799 4.91471 112.187 5.1744C113.742 5.95257 114.91 7.50886 116.076 8.93575C116.854 10.103 117.761 11.2702 118.928 12.1787C119.057 12.3081 119.187 12.3081 119.446 12.4384C119.057 16.5889 120.353 20.9991 122.038 24.242V24.2422Z" fill="black"/>
<path d="M139.277 24.6316C138.759 24.1132 138.11 23.5938 137.851 22.945C137.333 21.9072 137.203 20.8693 136.943 19.7021C136.814 18.7936 136.554 17.8861 136.295 16.8483C135.129 13.4759 131.629 8.54638 128.259 6.60107C127.741 6.34138 126.962 6.47168 126.704 6.99016C126.444 7.50863 126.575 8.28771 127.093 8.54649C129.944 10.2331 133.055 14.6432 134.091 17.4972C134.351 18.2754 134.48 19.1838 134.74 20.0914C134.999 21.2586 135.258 22.5562 135.777 23.8527C136.166 24.8906 136.943 25.6687 137.591 26.3176C138.109 26.7067 138.499 27.226 138.758 27.6151C140.961 30.9876 142.775 34.6194 144.072 37.9928C144.201 38.3819 144.72 38.7709 145.109 38.7709C145.238 38.7709 145.369 38.7709 145.498 38.6415C146.146 38.3819 146.406 37.7331 146.146 37.2146C144.72 33.5825 142.776 29.9506 140.573 26.448C140.314 25.669 139.796 25.1505 139.277 24.632L139.277 24.6316Z" fill="black"/>
<path d="M89.8931 75.0917C90.0223 75.3514 90.2818 75.6102 90.5413 75.7405C91.1896 76.0002 91.8378 75.7405 91.9671 75.0917C92.2266 74.5733 92.0964 73.9245 91.7077 73.5354C90.7999 72.4975 88.7267 72.8866 88.4673 72.8866L88.0785 73.016C85.4864 73.5345 80.6899 74.3136 80.6899 77.8153C80.6899 78.4641 81.208 78.9826 81.8563 78.9826C82.5045 78.9826 83.0226 78.4641 83.0226 77.8153C83.0226 76.259 86.6518 75.6103 88.4665 75.2212L88.8552 75.0918C89.2449 75.0918 89.6337 74.9615 89.8932 75.0918L89.8931 75.0917Z" fill="black"/>
<path d="M128.26 54.4667C127.871 54.4667 127.352 54.5961 126.963 54.5961C125.149 54.7255 123.463 54.7255 121.779 54.7255C118.668 54.7255 115.558 54.7255 112.187 55.5036C106.095 56.8012 106.095 56.8012 105.836 57.3196C105.576 57.8381 105.447 58.4869 105.707 59.0062C106.484 61.2113 111.021 62.7676 111.021 62.7676C113.095 63.4164 115.428 64.0651 117.891 64.0651C118.539 64.0651 119.187 64.0651 119.834 63.9357C120.742 63.8063 121.909 63.1576 122.815 62.6382C123.075 62.5088 123.333 62.3785 123.464 62.2491C125.149 61.4709 126.315 60.4331 127.093 59.0062C127.741 57.9683 128.001 57.3196 127.87 56.6717H128.389C129.944 56.5423 131.629 56.412 133.184 56.412C133.832 56.412 134.35 55.8935 134.35 55.2448C134.35 54.596 133.832 54.0775 133.184 54.0775C131.63 54.2078 129.945 54.3372 128.26 54.4666L128.26 54.4667ZM125.149 57.9693C124.5 59.0071 123.723 59.6559 122.426 60.3037C122.167 60.4331 122.038 60.5634 121.778 60.6928C121 61.0819 119.963 61.6013 119.315 61.7307C116.852 62.2492 114.001 61.3416 111.668 60.5634C110.76 60.3037 109.076 59.3962 108.298 58.618C109.595 58.3583 111.927 57.8399 112.705 57.5802C114.52 57.1911 116.334 57.0617 118.149 56.9314C118.019 57.0608 117.889 57.3205 117.889 57.5802C117.889 58.8777 118.667 59.3962 119.056 59.5256C119.315 59.655 119.574 59.655 119.833 59.655C120.481 59.655 121.259 59.2659 121.648 58.8768C121.907 58.6171 122.037 58.3583 122.166 58.0986C122.425 57.7095 122.425 57.3205 122.425 56.9314H125.536V57.0608C125.536 57.0608 125.536 57.1902 125.666 57.1902C125.408 57.4508 125.278 57.7095 125.148 57.9692L125.149 57.9693Z" fill="black"/>
<path d="M84.3198 84.6909C84.7086 84.0421 84.4491 83.3933 83.931 83.1345C83.6715 83.0051 83.5422 83.0051 83.2828 83.0051C83.0233 83.0051 82.7647 83.0051 82.6345 83.1345C82.1164 83.3942 81.8569 84.1724 82.2457 84.6909C82.5052 85.3396 83.0233 85.3396 83.2828 85.3396C83.5422 85.3396 84.0603 85.3396 84.3198 84.6909Z" fill="black"/>
<path d="M87.0417 82.6153C87.171 82.7447 87.69 83.0044 88.3382 82.7447C88.9865 82.6154 89.246 81.9666 89.1158 81.3178C88.9865 81.0581 88.8563 80.9287 88.727 80.7993C88.5977 80.6699 88.3382 80.5396 88.0787 80.4102C87.4305 80.2809 86.9124 80.6699 86.7822 81.3187C86.6529 82.0969 86.9124 82.486 87.0417 82.6153Z" fill="black"/>
<path d="M82.2458 85.7285H81.9863C81.857 85.7285 81.7268 85.7285 81.5975 85.8579L81.0794 85.9882C80.5614 86.2479 80.1717 86.8967 80.4312 87.5445C80.5605 87.9336 81.0794 88.1933 81.4682 88.1933C81.5975 88.1933 81.7277 88.1933 81.857 88.0639L82.1165 87.9345H82.2458C82.894 87.9345 83.4121 87.4161 83.4121 86.7673C83.4121 86.2479 82.894 85.7285 82.2458 85.7285L82.2458 85.7285Z" fill="black"/>
<path d="M87.6897 87.9338H87.9492C88.3379 87.9338 88.7267 87.6741 88.9862 87.4153L89.2457 87.0263C89.5052 86.5078 89.375 85.7287 88.8569 85.4699C88.4681 85.2102 88.0794 85.2102 87.6906 85.4699C87.1725 85.5993 86.913 85.9884 86.913 86.5078V86.7675C86.7828 87.285 87.1716 87.8044 87.6897 87.9338Z" fill="black"/>
<path d="M93.1337 84.172C93.263 84.172 93.3932 84.172 93.5225 84.0426L93.782 83.9132C94.3001 83.6535 94.6898 83.0047 94.4303 82.4863C94.1708 81.9678 93.5225 81.5778 93.0045 81.8375L92.745 81.9669C92.2269 82.2266 91.8372 82.8754 92.0967 83.5232C92.2269 83.9123 92.6157 84.172 93.1337 84.172V84.172Z" fill="black"/>
<path d="M70.4146 191.291V175.835H72.9626V191.291H70.4146ZM72.9626 191.291C72.9626 192.785 72.5893 193.951 71.8426 194.791C71.1146 195.613 70.0879 196.023 68.7626 196.023L68.5386 193.811C68.9306 193.811 69.2666 193.718 69.5466 193.531C69.8266 193.326 70.0413 193.037 70.1906 192.663C70.3399 192.271 70.4146 191.814 70.4146 191.291H72.9626ZM67.2226 193.335C67.4279 193.466 67.6333 193.578 67.8386 193.671C68.0626 193.765 68.2959 193.811 68.5386 193.811L68.7626 196.023C68.3146 196.023 67.8759 195.949 67.4466 195.799C67.0173 195.65 66.6066 195.435 66.2146 195.155L67.2226 193.335ZM79.7187 191.627V189.443H86.8867V191.627H79.7187ZM84.2267 175.835L79.4107 195.575H76.8907L81.7067 175.835H84.2267ZM84.2827 175.835L89.0987 195.575H86.6067L81.7627 175.835H84.2827ZM95.7681 195.575L100.612 175.835H103.104L98.2881 195.575H95.7681ZM95.7121 195.575L90.8961 175.835H93.4161L98.2321 195.575H95.7121ZM107.538 191.627V189.443H114.706V191.627H107.538ZM112.046 175.835L107.23 195.575H104.71L109.526 175.835H112.046ZM112.102 175.835L116.918 195.575H114.426L109.582 175.835H112.102ZM128.274 191.151C128.274 190.461 128.078 189.854 127.686 189.331C127.294 188.79 126.79 188.286 126.174 187.819C125.558 187.353 124.895 186.877 124.186 186.391C123.495 185.906 122.842 185.374 122.226 184.795C121.61 184.217 121.106 183.563 120.714 182.835C120.322 182.089 120.126 181.23 120.126 180.259H122.674C122.674 180.931 122.87 181.538 123.262 182.079C123.654 182.602 124.158 183.106 124.774 183.591C125.39 184.058 126.043 184.534 126.734 185.019C127.443 185.505 128.106 186.037 128.722 186.615C129.338 187.175 129.842 187.829 130.234 188.575C130.626 189.303 130.822 190.162 130.822 191.151H128.274ZM120.126 180.315C120.126 179.289 120.359 178.411 120.826 177.683C121.293 176.955 121.946 176.395 122.786 176.003C123.626 175.611 124.587 175.415 125.67 175.415V177.599C124.737 177.599 123.999 177.842 123.458 178.327C122.935 178.813 122.674 179.475 122.674 180.315H120.126ZM130.822 191.095C130.822 192.103 130.589 192.981 130.122 193.727C129.655 194.455 129.002 195.015 128.162 195.407C127.341 195.799 126.379 195.995 125.278 195.995V193.783C126.211 193.783 126.939 193.55 127.462 193.083C128.003 192.598 128.274 191.935 128.274 191.095H130.822ZM128.302 180.063C128.209 179.223 127.91 178.607 127.406 178.215C126.921 177.805 126.342 177.599 125.67 177.599V175.415C126.547 175.415 127.341 175.593 128.05 175.947C128.759 176.302 129.347 176.787 129.814 177.403C130.281 178.019 130.57 178.747 130.682 179.587L128.302 180.063ZM121.918 190.031C122.03 191.207 122.375 192.131 122.954 192.803C123.551 193.457 124.326 193.783 125.278 193.783V195.995C123.691 195.995 122.394 195.51 121.386 194.539C120.397 193.569 119.799 192.225 119.594 190.507L121.918 190.031ZM134.621 190.787V180.623H137.169V190.787H134.621ZM134.621 180.623C134.621 179.597 134.854 178.691 135.321 177.907C135.788 177.105 136.441 176.489 137.281 176.059C138.121 175.611 139.082 175.387 140.165 175.387V177.599C139.232 177.599 138.494 177.861 137.953 178.383C137.43 178.906 137.169 179.653 137.169 180.623H134.621ZM134.621 190.759H137.169C137.169 191.73 137.43 192.486 137.953 193.027C138.494 193.55 139.232 193.811 140.165 193.811V196.023C139.082 196.023 138.121 195.799 137.281 195.351C136.441 194.903 135.788 194.287 135.321 193.503C134.854 192.719 134.621 191.805 134.621 190.759ZM143.497 181.351C143.385 180.175 143.03 179.261 142.433 178.607C141.854 177.935 141.089 177.599 140.137 177.599V175.387C141.724 175.387 143.012 175.873 144.001 176.843C145.009 177.814 145.616 179.158 145.821 180.875L143.497 181.351ZM143.497 190.059L145.821 190.507C145.616 192.243 145.009 193.597 144.001 194.567C143.012 195.538 141.724 196.023 140.137 196.023V193.811C141.089 193.811 141.854 193.485 142.433 192.831C143.03 192.159 143.385 191.235 143.497 190.059ZM157.286 195.575L153.702 185.943H156.306L159.89 195.575H157.286ZM151.406 187.203V185.019H154.262V187.203H151.406ZM151.406 178.047V175.835H154.262V178.047H151.406ZM157.23 181.995V181.043H159.778V181.995H157.23ZM159.778 181.071H157.23C157.23 180.101 156.959 179.354 156.418 178.831C155.895 178.309 155.167 178.047 154.234 178.047V175.835C155.335 175.835 156.297 176.059 157.118 176.507C157.958 176.937 158.611 177.553 159.078 178.355C159.545 179.139 159.778 180.045 159.778 181.071ZM159.778 181.967C159.778 182.994 159.545 183.909 159.078 184.711C158.611 185.495 157.958 186.111 157.118 186.559C156.297 186.989 155.335 187.203 154.234 187.203V185.019C155.167 185.019 155.895 184.749 156.418 184.207C156.959 183.666 157.23 182.919 157.23 181.967H159.778ZM149.754 195.575V175.835H152.302V195.575H149.754ZM164.368 195.575V175.835H166.916V195.575H164.368ZM173.812 178.047V175.835H176.668V178.047H173.812ZM173.812 187.987V185.775H176.668V187.987H173.812ZM179.636 182.751V181.071H182.184V182.751H179.636ZM182.184 181.071H179.636C179.636 180.101 179.365 179.354 178.824 178.831C178.301 178.309 177.573 178.047 176.64 178.047V175.835C177.741 175.835 178.702 176.059 179.524 176.507C180.364 176.937 181.017 177.553 181.484 178.355C181.95 179.139 182.184 180.045 182.184 181.071ZM182.184 182.723C182.184 183.769 181.95 184.683 181.484 185.467C181.017 186.251 180.364 186.867 179.524 187.315C178.702 187.763 177.741 187.987 176.64 187.987V185.775C177.573 185.775 178.301 185.505 178.824 184.963C179.365 184.422 179.636 183.675 179.636 182.723H182.184ZM172.16 195.575V175.835H174.708V195.575H172.16ZM184.854 178.047V175.835H196.474V178.047H184.854ZM189.39 195.575V175.835H191.938V195.575H189.39Z" fill="black"/>
</svg>
