<svg width="61" height="61" viewBox="0 0 61 61" fill="none" xmlns="http://www.w3.org/2000/svg">
<path fill-rule="evenodd" clip-rule="evenodd" d="M30.5757 59.5585C29.7764 59.5585 29.0305 59.3454 28.3378 58.9724L21.2513 54.7631C20.1856 54.177 20.7184 53.9639 21.0381 53.8573C22.4768 53.3778 22.7432 53.2712 24.2351 52.4187C24.3949 52.3121 24.608 52.3654 24.7679 52.472L30.2027 55.7222C30.4158 55.8288 30.6822 55.8288 30.8421 55.7222L52.1017 43.414C52.3148 43.3074 52.4214 43.0943 52.4214 42.8279V18.2648C52.4214 17.9984 52.3148 17.7852 52.1017 17.6787L30.8421 5.42376C30.6289 5.31719 30.3625 5.31719 30.2027 5.42376L8.94307 17.6787C8.72994 17.7852 8.62337 18.0517 8.62337 18.2648V42.8279C8.62337 43.041 8.72994 43.3074 8.94307 43.414L14.7508 46.7708C17.8945 48.3693 19.8659 46.5044 19.8659 44.6395V20.3961C19.8659 20.0764 20.1323 19.7567 20.5053 19.7567H23.2227C23.5424 19.7567 23.8621 20.0231 23.8621 20.3961V44.6395C23.8621 48.8488 21.571 51.2998 17.5748 51.2998C16.3493 51.2998 15.3902 51.2998 12.6728 49.9677L7.07819 46.7708C5.69285 45.9716 4.84033 44.4797 4.84033 42.8812V18.3181C4.84033 16.7196 5.69285 15.2277 7.07819 14.4285L28.3378 2.12025C29.6699 1.3743 31.4815 1.3743 32.8135 2.12025L54.0731 14.4285C55.4585 15.2277 56.311 16.7196 56.311 18.3181V42.8812C56.311 44.4797 55.4585 45.9716 54.0731 46.7708L32.8135 59.079C32.1208 59.3987 31.3216 59.5585 30.5757 59.5585ZM37.1294 42.6681C27.805 42.6681 25.8868 38.4055 25.8868 34.7823C25.8868 34.4626 26.1532 34.1429 26.5262 34.1429H29.2969C29.6166 34.1429 29.883 34.356 29.883 34.6757C30.3093 37.4997 31.5347 38.885 37.1827 38.885C41.6584 38.885 43.5765 37.8727 43.5765 35.4749C43.5765 34.0896 43.0437 33.0773 36.0637 32.3846C30.256 31.7985 26.6328 30.5197 26.6328 25.8841C26.6328 21.5683 30.256 19.0107 36.3301 19.0107C43.1503 19.0107 46.5071 21.3552 46.9333 26.4702C46.9333 26.6301 46.88 26.7899 46.7735 26.9498C46.6669 27.0564 46.5071 27.1629 46.3472 27.1629H43.5765C43.3101 27.1629 43.0437 26.9498 42.9904 26.6834C42.351 23.7529 40.6993 22.7938 36.3301 22.7938C31.4282 22.7938 30.8421 24.4988 30.8421 25.7776C30.8421 27.3228 31.5347 27.8023 38.1417 28.6548C44.6955 29.5073 47.7858 30.7328 47.7858 35.3151C47.7326 40.0039 43.8962 42.6681 37.1294 42.6681Z" fill="#539E43"/>
</svg>
