<svg width="83" height="83" viewBox="0 0 83 83" fill="none" xmlns="http://www.w3.org/2000/svg">
<path d="M81.1639 1.87734C79.7554 0.468916 77.4701 0.468916 76.0616 1.87734L41.5018 36.4857L15.1607 10.1804L6.89394 1.92567C5.48551 0.517245 3.20014 0.517245 1.79167 1.92567C0.383246 3.33409 0.383246 5.61946 1.79167 7.02794L10.0584 15.2826L36.3995 41.588L1.83974 76.1964C0.431321 77.6048 0.431321 79.8901 1.83974 81.2986C2.54994 81.9969 3.46394 82.3574 4.3909 82.3574C5.31787 82.3574 6.24383 82.0088 6.94206 81.2986L41.5018 46.6902L64.9317 70.083L76.1112 81.2506C76.8214 81.9488 77.7354 82.3094 78.6624 82.3094C79.5894 82.3094 80.5153 81.9607 81.2136 81.2506C82.622 79.8421 82.622 77.5568 81.2136 76.1483L70.034 64.9807L46.6042 41.588L81.164 6.97961C82.5724 5.57118 82.5724 3.28581 81.164 1.87734H81.1639Z" fill="black"/>
</svg>
