<svg width="248" height="373" viewBox="0 0 248 373" fill="none" xmlns="http://www.w3.org/2000/svg">
<path d="M54.8394 189.168C54.8394 188.478 54.6434 187.871 54.2514 187.348C53.8594 186.807 53.3554 186.303 52.7394 185.836C52.1234 185.37 51.4607 184.894 50.7514 184.408C50.0607 183.923 49.4074 183.391 48.7914 182.812C48.1754 182.234 47.6714 181.58 47.2794 180.852C46.8874 180.106 46.6914 179.247 46.6914 178.276H49.2394C49.2394 178.948 49.4354 179.555 49.8274 180.096C50.2194 180.619 50.7234 181.123 51.3394 181.608C51.9554 182.075 52.6087 182.551 53.2994 183.036C54.0087 183.522 54.6714 184.054 55.2874 184.632C55.9034 185.192 56.4074 185.846 56.7994 186.592C57.1914 187.32 57.3874 188.179 57.3874 189.168H54.8394ZM46.6914 178.332C46.6914 177.306 46.9247 176.428 47.3914 175.7C47.8581 174.972 48.5114 174.412 49.3514 174.02C50.1914 173.628 51.1527 173.432 52.2354 173.432V175.616C51.3021 175.616 50.5647 175.859 50.0234 176.344C49.5007 176.83 49.2394 177.492 49.2394 178.332H46.6914ZM57.3874 189.112C57.3874 190.12 57.1541 190.998 56.6874 191.744C56.2207 192.472 55.5674 193.032 54.7274 193.424C53.9061 193.816 52.9447 194.012 51.8434 194.012V191.8C52.7767 191.8 53.5047 191.567 54.0274 191.1C54.5687 190.615 54.8394 189.952 54.8394 189.112H57.3874ZM54.8674 178.08C54.7741 177.24 54.4754 176.624 53.9714 176.232C53.4861 175.822 52.9074 175.616 52.2354 175.616V173.432C53.1127 173.432 53.9061 173.61 54.6154 173.964C55.3247 174.319 55.9127 174.804 56.3794 175.42C56.8461 176.036 57.1354 176.764 57.2474 177.604L54.8674 178.08ZM48.4834 188.048C48.5954 189.224 48.9407 190.148 49.5194 190.82C50.1167 191.474 50.8914 191.8 51.8434 191.8V194.012C50.2567 194.012 48.9594 193.527 47.9514 192.556C46.9621 191.586 46.3647 190.242 46.1594 188.524L48.4834 188.048ZM69.9224 188.804V173.852H72.4704V188.804H69.9224ZM61.4664 188.804V173.852H64.0144V188.804H61.4664ZM72.4704 188.776C72.4704 189.803 72.2371 190.718 71.7704 191.52C71.3038 192.304 70.6504 192.92 69.8104 193.368C68.9891 193.798 68.0371 194.012 66.9544 194.012V191.8C67.8878 191.8 68.6158 191.539 69.1384 191.016C69.6611 190.475 69.9224 189.728 69.9224 188.776H72.4704ZM61.4664 188.776H64.0144C64.0144 189.728 64.2758 190.475 64.7984 191.016C65.3398 191.539 66.0771 191.8 67.0104 191.8V194.012C65.9278 194.012 64.9664 193.798 64.1264 193.368C63.2864 192.92 62.6331 192.304 62.1664 191.52C61.6998 190.718 61.4664 189.803 61.4664 188.776ZM84.7539 193.592L81.1699 183.96H83.7739L87.3579 193.592H84.7539ZM78.8739 185.22V183.036H81.7299V185.22H78.8739ZM78.8739 176.064V173.852H81.7299V176.064H78.8739ZM84.6979 180.012V179.06H87.2459V180.012H84.6979ZM87.2459 179.088H84.6979C84.6979 178.118 84.4272 177.371 83.8859 176.848C83.3632 176.326 82.6352 176.064 81.7019 176.064V173.852C82.8032 173.852 83.7646 174.076 84.5859 174.524C85.4259 174.954 86.0792 175.57 86.5459 176.372C87.0126 177.156 87.2459 178.062 87.2459 179.088ZM87.2459 179.984C87.2459 181.011 87.0126 181.926 86.5459 182.728C86.0792 183.512 85.4259 184.128 84.5859 184.576C83.7646 185.006 82.8032 185.22 81.7019 185.22V183.036C82.6352 183.036 83.3632 182.766 83.8859 182.224C84.4272 181.683 84.6979 180.936 84.6979 179.984H87.2459ZM77.2219 193.592V173.852H79.7699V193.592H77.2219ZM93.2075 176.064V173.852H96.0635V176.064H93.2075ZM93.2075 186.004V183.792H96.0635V186.004H93.2075ZM99.0315 180.768V179.088H101.579V180.768H99.0315ZM101.579 179.088H99.0315C99.0315 178.118 98.7608 177.371 98.2195 176.848C97.6968 176.326 96.9688 176.064 96.0355 176.064V173.852C97.1368 173.852 98.0982 174.076 98.9195 174.524C99.7595 174.954 100.413 175.57 100.879 176.372C101.346 177.156 101.579 178.062 101.579 179.088ZM101.579 180.74C101.579 181.786 101.346 182.7 100.879 183.484C100.413 184.268 99.7595 184.884 98.9195 185.332C98.0982 185.78 97.1368 186.004 96.0355 186.004V183.792C96.9688 183.792 97.6968 183.522 98.2195 182.98C98.7608 182.439 99.0315 181.692 99.0315 180.74H101.579ZM91.5555 193.592V173.852H94.1035V193.592H91.5555ZM113.038 193.592L109.454 183.96H112.058L115.642 193.592H113.038ZM107.158 185.22V183.036H110.014V185.22H107.158ZM107.158 176.064V173.852H110.014V176.064H107.158ZM112.982 180.012V179.06H115.53V180.012H112.982ZM115.53 179.088H112.982C112.982 178.118 112.712 177.371 112.17 176.848C111.648 176.326 110.92 176.064 109.986 176.064V173.852C111.088 173.852 112.049 174.076 112.87 174.524C113.71 174.954 114.364 175.57 114.83 176.372C115.297 177.156 115.53 178.062 115.53 179.088ZM115.53 179.984C115.53 181.011 115.297 181.926 114.83 182.728C114.364 183.512 113.71 184.128 112.87 184.576C112.049 185.006 111.088 185.22 109.986 185.22V183.036C110.92 183.036 111.648 182.766 112.17 182.224C112.712 181.683 112.982 180.936 112.982 179.984H115.53ZM105.506 193.592V173.852H108.054V193.592H105.506ZM120.12 193.592V173.852H122.668V193.592H120.12ZM135.7 189.168C135.7 188.478 135.504 187.871 135.112 187.348C134.72 186.807 134.216 186.303 133.6 185.836C132.984 185.37 132.322 184.894 131.612 184.408C130.922 183.923 130.268 183.391 129.652 182.812C129.036 182.234 128.532 181.58 128.14 180.852C127.748 180.106 127.552 179.247 127.552 178.276H130.1C130.1 178.948 130.296 179.555 130.688 180.096C131.08 180.619 131.584 181.123 132.2 181.608C132.816 182.075 133.47 182.551 134.16 183.036C134.87 183.522 135.532 184.054 136.148 184.632C136.764 185.192 137.268 185.846 137.66 186.592C138.052 187.32 138.248 188.179 138.248 189.168H135.7ZM127.552 178.332C127.552 177.306 127.786 176.428 128.252 175.7C128.719 174.972 129.372 174.412 130.212 174.02C131.052 173.628 132.014 173.432 133.096 173.432V175.616C132.163 175.616 131.426 175.859 130.884 176.344C130.362 176.83 130.1 177.492 130.1 178.332H127.552ZM138.248 189.112C138.248 190.12 138.015 190.998 137.548 191.744C137.082 192.472 136.428 193.032 135.588 193.424C134.767 193.816 133.806 194.012 132.704 194.012V191.8C133.638 191.8 134.366 191.567 134.888 191.1C135.43 190.615 135.7 189.952 135.7 189.112H138.248ZM135.728 178.08C135.635 177.24 135.336 176.624 134.832 176.232C134.347 175.822 133.768 175.616 133.096 175.616V173.432C133.974 173.432 134.767 173.61 135.476 173.964C136.186 174.319 136.774 174.804 137.24 175.42C137.707 176.036 137.996 176.764 138.108 177.604L135.728 178.08ZM129.344 188.048C129.456 189.224 129.802 190.148 130.38 190.82C130.978 191.474 131.752 191.8 132.704 191.8V194.012C131.118 194.012 129.82 193.527 128.812 192.556C127.823 191.586 127.226 190.242 127.02 188.524L129.344 188.048ZM143.947 193.592V191.38H151.703V193.592H143.947ZM144.367 184.884V182.616H150.023V184.884H144.367ZM142.519 173.852H145.067V193.592H142.519V173.852ZM144.227 173.852H151.423V176.064H144.227V173.852ZM168.453 193.592L172.849 173.852H175.061L170.693 193.592H168.453ZM168.369 193.592L163.973 173.852H166.213L170.581 193.592H168.369ZM162.573 193.592V173.852H165.121V193.592H162.573ZM173.941 193.592V173.852H176.489V193.592H173.941ZM182.873 193.592V191.38H190.629V193.592H182.873ZM183.293 184.884V182.616H188.949V184.884H183.293ZM181.445 173.852H183.993V193.592H181.445V173.852ZM183.153 173.852H190.349V176.064H183.153V173.852ZM195.158 187.684L194.934 173.852H197.482L197.23 187.684H195.158ZM196.194 193.704C195.727 193.704 195.335 193.546 195.018 193.228C194.701 192.911 194.542 192.519 194.542 192.052C194.542 191.586 194.701 191.194 195.018 190.876C195.335 190.54 195.727 190.372 196.194 190.372C196.661 190.372 197.053 190.54 197.37 190.876C197.706 191.194 197.874 191.586 197.874 192.052C197.874 192.519 197.706 192.911 197.37 193.228C197.053 193.546 196.661 193.704 196.194 193.704Z" fill="black"/>
<g clip-path="url(#clip0_27_56)">
<path d="M135.213 47.4797C133.171 47.4797 130.984 48.5043 129.233 49.235L128.941 49.381C126.024 50.6974 122.815 51.8679 120.189 52.7456C119.167 53.0385 118.001 53.4773 116.98 53.7702H116.834C115.959 53.7702 115.375 53.9161 115.084 54.5019C114.647 55.2336 114.355 56.4041 116.834 59.184C118.147 60.7934 120.773 62.2568 123.252 62.2568C124.274 62.2568 125.149 62.1109 126.024 61.5251C127.628 60.6475 129.816 59.0382 130.545 56.6972C130.545 56.6972 131.567 53.3326 131.42 51.2844C132.733 50.6996 134.192 50.1139 135.212 50.1139C135.942 50.1139 136.524 49.5291 136.524 48.7974C136.526 48.0657 135.943 47.4799 135.213 47.4799L135.213 47.4797ZM118.731 57.2818C118.439 56.843 118.148 56.5501 117.856 56.1113C118.877 55.8184 119.898 55.5266 121.065 55.0867C121.065 56.5501 121.648 58.3053 121.94 59.1831C120.773 59.0382 119.46 58.3065 118.731 57.2819V57.2818ZM127.92 55.8194C127.483 57.2829 126.024 58.3064 124.857 59.038V57.8675V57.4287C124.857 56.551 124.857 55.0877 124.274 54.2101C125.733 53.6253 127.19 53.1855 128.65 52.4548C128.503 53.4784 128.066 54.9418 127.92 55.8194H127.92Z" fill="black"/>
<path d="M109.251 54.9409C111.147 54.9409 111.438 53.1856 111.584 52.5998C111.584 52.4539 111.584 52.161 111.73 52.161C112.022 52.0151 112.459 51.7222 112.751 51.5762H112.897C119.315 48.3576 125.003 43.8223 129.087 38.4098C129.67 37.6781 130.254 36.2157 130.983 34.7523C131.566 33.5817 132.442 31.6794 132.733 31.2408C133.316 30.802 133.463 30.0703 133.025 29.3386C132.588 28.7538 131.713 28.6069 131.129 28.8998C130.254 29.4845 129.524 31.0939 128.357 33.4348C127.774 34.6053 127.19 36.0677 126.753 36.6534C122.961 41.7744 117.71 46.0166 111.584 49.0894H111.439C110.856 49.3823 110.126 49.8211 109.542 50.26C108.959 50.8447 108.813 51.4305 108.813 52.0152V52.3081C108.23 52.4541 107.792 53.0398 107.792 53.6246C107.938 54.3553 108.521 54.9411 109.25 54.9411L109.251 54.9409Z" fill="black"/>
<path d="M126.169 82.738C125.586 80.9827 125.002 79.0805 123.398 77.9101C120.626 75.862 116.397 75.4231 114.646 75.2772H113.479C112.75 75.2772 112.167 75.2772 111.583 75.1313C110.27 74.5465 109.541 71.3278 109.541 69.2798C109.978 68.841 110.562 68.4022 111.291 67.9634C113.041 66.7928 115.52 65.3305 115.083 61.9648C114.645 59.0391 109.832 59.3319 105.894 59.6238C105.311 59.6238 104.727 59.7697 104.435 59.7697H104.143C102.976 59.7697 101.226 59.7697 100.204 60.7943C99.7667 61.2331 98.7452 62.5496 100.496 64.8907C100.934 65.4755 104.58 68.2553 106.914 69.4257C106.914 70.8891 107.206 73.2293 108.081 75.1314C107.789 75.8631 107.206 76.0091 105.018 76.0091H102.976C100.496 75.8631 97.1419 75.8631 95.2453 77.7644C94.9533 78.0572 94.6623 78.4961 94.3703 78.789C94.0783 79.0818 93.9328 79.3737 93.6408 79.5207C93.0579 80.1054 93.0579 80.8371 93.6408 81.4229C93.9328 81.7158 94.2238 81.8617 94.6623 81.8617C94.9543 81.8617 95.3918 81.7158 95.6838 81.4229C95.9758 81.13 96.2668 80.6912 96.5588 80.3983C96.8508 80.1054 96.9963 79.8135 97.2883 79.5206C98.1632 78.643 100.06 78.496 101.81 78.496V83.3239V88.7368C101.81 88.8827 101.81 89.1756 101.664 89.4685C101.52 90.4921 101.374 91.9555 102.54 93.125C103.852 94.4414 106.186 94.5884 107.936 94.7343C108.519 94.7343 109.103 94.7343 109.395 94.8802H109.687C111.875 95.1731 113.626 95.465 114.938 95.465C115.96 95.465 116.835 95.3191 117.272 95.0262C118.585 94.2945 118.731 92.3933 118.731 90.784V90.0523C119.169 86.9795 119.169 84.2008 119.169 81.2738V79.0797C120.19 79.3726 121.065 79.8114 121.793 80.2502C122.815 80.9819 123.252 82.2984 123.69 83.6148C123.982 84.3466 124.273 85.2242 124.565 85.9559C124.857 86.3947 125.294 86.6876 125.732 86.6876C125.877 86.6876 126.169 86.6876 126.315 86.5417C127.044 86.2488 127.19 85.3711 126.898 84.7864C126.607 84.2016 126.315 83.4699 126.169 82.7382L126.169 82.738ZM108.228 83.9085V91.6624V91.8084H107.936C106.769 91.8084 104.873 91.6624 104.29 91.0767C104.145 90.9307 104.145 90.199 104.29 89.6132V88.5887V83.1758V78.3479H105.02C105.894 78.3479 107.207 78.3479 108.374 78.055C108.228 79.9583 108.228 82.0064 108.228 83.9086L108.228 83.9085ZM116.105 89.4672C116.105 89.7601 116.105 90.0519 115.96 90.4918C115.96 90.9306 115.96 92.1011 115.668 92.5399C115.085 92.6858 113.918 92.6858 110.562 92.1011V91.6623C110.562 89.1753 110.562 86.5412 110.708 83.9084V77.618C111.583 77.9109 112.458 77.9109 113.187 77.9109H114.062C114.792 77.9109 115.521 78.0568 116.249 78.2038V78.4966V81.1295C116.542 83.9084 116.542 86.5413 116.105 89.4671L116.105 89.4672Z" fill="black"/>
<path d="M82.5588 36.6534C83.4337 36.9463 85.6222 40.4569 86.6427 42.213C87.5177 43.6765 88.3927 45.1388 88.9766 45.7245C89.4141 46.1633 89.8516 46.4562 90.2891 46.895C90.7266 47.1879 91.0186 47.4798 91.4561 47.9196C91.6015 48.2125 91.8935 48.5044 92.039 48.7973C92.622 49.529 93.206 50.4066 94.081 50.9913C95.2479 51.7231 96.5604 51.7231 97.5818 51.7231C98.0192 51.7231 98.4567 51.7231 98.7487 51.869C98.8942 52.0149 99.0407 52.6007 99.1862 52.8936C99.3317 53.1865 99.4782 53.4783 99.6237 53.7712C99.9157 54.2101 100.353 54.5029 100.791 54.5029C100.936 54.5029 101.228 54.5029 101.374 54.357C101.957 54.0641 102.249 53.1865 101.957 52.6017C101.957 52.4558 101.811 52.1629 101.665 52.017C101.373 51.1393 101.082 50.1147 100.206 49.6759C99.4762 49.2371 98.6012 49.2371 97.7262 49.2371C96.8513 49.2371 96.1218 49.2371 95.5388 48.7983C95.1014 48.5054 94.6639 48.0666 94.3719 47.3349C94.0799 47.042 93.9344 46.6032 93.6424 46.3103C93.2049 45.7255 92.6209 45.2857 92.1834 44.9938C91.7459 44.7009 91.4539 44.409 91.1619 44.1162C90.7244 43.5314 89.8495 42.2139 89.12 41.0433C86.6406 36.8012 84.8907 34.1672 82.7021 34.1672C81.9726 34.1672 81.3896 34.752 81.3896 35.4837C81.3917 36.2134 81.8292 36.6532 82.5587 36.6532L82.5588 36.6534Z" fill="black"/>
<path d="M98.0198 61.3782C98.7492 60.5005 99.0412 59.1841 98.6027 58.1596C98.3107 57.135 97.4358 56.2573 96.4153 55.9655C95.5403 55.6726 94.5189 55.5267 93.6438 55.3807C93.0608 55.3807 92.6223 55.2348 92.1848 55.0878C91.6019 54.9419 90.8724 54.7949 90.2884 54.649C89.2669 54.3561 88.101 54.2102 86.934 53.9173C85.184 53.6244 83.4332 53.0397 81.6832 52.4539C80.9537 52.161 80.3707 52.0151 79.6413 51.7222C78.9118 51.4293 78.1823 51.8681 77.8913 52.5998C77.5993 53.3315 78.0368 54.0632 78.7663 54.3551C79.3493 54.501 80.0788 54.7939 80.6627 55.0868C82.2672 55.6716 83.8716 56.2573 85.476 56.5502C85.6215 57.8667 85.9135 58.8913 86.3509 59.7688C87.3724 61.5241 89.9973 62.8417 92.7688 62.9874H93.3518C95.6857 63.1344 97.1446 62.5486 98.0197 61.3781L98.0198 61.3782ZM89.1226 58.4524C88.9771 58.0136 88.6851 57.5748 88.6851 56.989C89.1226 57.1349 89.4146 57.1349 89.8521 57.2819C90.2896 57.4278 90.727 57.4278 91.1645 57.5748C91.019 57.8677 91.019 58.1595 91.1645 58.5994V58.8912V59.3301V59.7689V59.9148C90.1441 59.6229 89.4146 59.0382 89.1226 58.4524H89.1226ZM93.7905 58.8912V58.5984V58.1595C94.52 58.3055 95.2494 58.3055 95.8324 58.5984C96.1244 58.5984 96.1244 58.8912 96.1244 59.0372C96.2699 59.3301 96.1244 59.6219 95.9789 59.7689C95.5414 60.2077 94.8119 60.5006 93.645 60.5006C93.7905 60.3547 93.7905 60.0618 93.7905 59.7689V59.3301C93.936 59.1841 93.7905 59.0382 93.7905 58.8912V58.8912Z" fill="black"/>
<path d="M186.845 79.373C186.262 78.2025 185.97 76.886 185.678 75.2766C185.386 73.9602 185.095 72.7896 184.657 71.6191C184.219 70.4486 183.635 69.1321 183.198 67.9616C182.323 65.7675 181.302 63.4266 180.719 61.0855C180.573 60.3538 180.281 59.6221 180.136 58.8914C179.262 55.2329 178.387 51.2836 175.469 48.065C172.552 44.8464 169.926 43.9686 167.009 43.091C165.842 42.6522 164.675 42.3593 163.508 41.7746C162.341 41.3357 161.321 40.604 160.008 39.8724C157.091 38.1171 153.736 35.922 149.798 36.9466C149.798 36.9466 149.652 36.9466 149.652 37.0925C149.507 36.3608 149.36 35.7761 149.215 35.0444C148.923 33.8739 148.632 32.5574 148.194 31.3869C148.048 30.9481 147.756 30.3623 147.611 29.9235C147.903 29.9235 148.048 29.7776 148.194 29.4847C148.631 29.0458 149.506 28.607 150.381 28.1682C151.84 27.4365 153.59 26.5588 154.319 24.8036C154.902 23.4871 154.902 22.1707 154.757 20.8532V20.1215C154.757 18.2193 154.757 15.2936 152.86 13.684C151.401 12.3676 149.506 11.9287 147.755 12.2206C145.275 12.6594 142.796 14.5616 141.484 17.0485C141.192 17.6333 140.754 18.219 140.609 18.9507C139.879 18.5119 139.004 17.9261 138.275 17.4873C137.253 16.9025 136.233 16.3168 135.503 15.732C133.753 14.1227 132.149 11.7817 131.274 9.88054C131.128 9.58765 131.128 9.14883 130.982 8.56407C130.836 7.10066 130.399 4.76054 128.21 4.17481C127.189 3.88193 126.023 4.17481 124.856 4.90652C123.689 5.63823 122.231 6.95467 121.939 8.56402V9.00284C121.647 8.56402 121.356 7.97825 120.918 7.53943C120.335 6.95467 119.751 6.51483 119.168 6.07601C118.585 5.63719 118.146 5.3443 117.709 4.90548L117.563 4.75955C116.542 3.73495 115.229 2.56546 113.917 2.85733C112.312 3.29615 112.458 5.3443 112.604 7.24659V7.9783H112.459C111.729 7.68541 111 7.39355 110.125 7.68541C109.396 7.9783 109.104 8.56306 108.813 8.85595C107.938 8.56306 106.916 7.53948 106.188 6.66186L105.75 6.22304C104.146 4.61369 96.9983 0.0784417 93.9362 0.810203C91.1646 1.39496 90.8727 4.76056 90.5817 7.24766C90.5817 8.12531 90.4363 9.14988 90.1443 9.5887C89.8523 10.1735 89.4148 10.4663 88.5398 10.9052C87.8103 11.344 86.7898 11.7828 86.2059 12.8074C85.9139 13.3921 85.6229 13.832 85.3309 14.2708C84.7479 15.2954 84.3094 16.173 83.4345 16.9037C83.289 17.0496 83.1425 17.1966 82.997 17.1966C82.5595 15.8801 81.9755 14.5637 80.9551 13.2462C79.4961 11.4909 75.5587 8.71116 72.6408 10.3205C70.3069 11.6369 68.1195 15.2944 67.682 17.6355C67.2445 19.9765 67.8275 23.0483 70.0159 24.8044C70.3079 25.0973 70.7454 25.2432 71.0374 25.3892C71.1829 25.5351 71.4749 25.5351 71.4749 25.6821C71.6203 25.975 71.9123 26.1209 72.0578 26.2668C72.4953 26.7056 72.9328 27.1445 73.5168 27.5833C72.6418 28.8997 71.9123 30.3632 71.3294 31.8255C69.8704 35.0441 69.5794 38.7016 69.2875 42.3591C69.142 44.2613 68.9955 46.0166 68.558 47.6259C68.4125 48.7964 67.8285 49.8199 67.391 50.9905C67.099 51.7222 66.6615 52.4539 66.516 53.3315C65.4946 56.5501 64.9116 60.2076 64.6196 63.5723C64.4741 65.7664 64.6196 69.278 66.0786 71.619C66.5161 72.2038 67.1001 72.4967 67.391 72.6436C67.5365 72.6436 67.5365 72.6436 67.683 72.7896C68.1205 73.2284 68.558 74.3989 68.9955 75.8624C69.141 76.5941 69.433 77.1788 69.5785 77.9105C70.308 80.6905 71.0374 83.6162 72.642 86.1031C73.2249 87.1277 74.1009 87.7124 74.9759 88.2972C75.4134 88.59 75.7054 88.8819 75.9974 89.1748C78.3313 91.3689 81.1028 92.8323 83.873 94.0027C83.1435 94.8803 82.7061 95.758 82.7061 95.9049C82.2686 96.9295 82.7061 97.6602 82.8515 98.099C82.8515 98.099 82.8515 98.2449 82.997 98.2449C82.8515 98.5378 82.5595 98.8297 82.2675 99.2695C81.9755 99.7083 81.6846 100.001 81.3926 100.586C81.1006 101.171 80.9551 101.611 80.8096 102.195C80.6641 102.488 80.6641 102.78 80.5176 103.073C80.2256 103.805 80.5176 104.536 81.1006 104.828C81.2461 104.974 81.5381 104.974 81.6836 104.974C82.121 104.974 82.705 104.681 82.8505 104.242C83.1425 103.804 83.288 103.218 83.288 102.779C83.4335 102.34 83.4335 102.047 83.58 101.901C83.7255 101.609 84.0175 101.317 84.163 101.024C84.6005 100.585 85.038 99.8533 85.33 99.1216C85.622 98.2439 85.33 97.5122 85.038 96.9275C85.038 96.9275 85.038 96.7816 84.8925 96.7816C85.1845 96.1968 85.7675 95.4651 86.0594 95.3181C86.2049 95.3181 86.3514 95.3181 86.4969 95.1722C86.9344 95.3181 87.2264 95.4651 87.5184 95.611C88.1014 95.757 88.6854 96.1958 89.2684 96.4887C89.8513 96.7816 90.5808 97.2204 91.3103 97.5133C92.3318 97.8062 93.3522 97.9521 94.2271 97.9521C95.1021 97.9521 95.9771 97.9521 96.5611 98.245C97.436 98.6838 98.1655 99.4155 98.895 100.147C100.062 101.318 101.229 102.488 102.979 102.927C103.271 102.927 103.416 103.073 103.708 103.073C104.875 103.073 105.75 102.048 106.48 101.171C106.772 100.732 107.355 100 107.647 100C107.939 100 108.23 100.146 108.668 100.293C109.106 100.439 109.69 100.732 110.273 100.878C110.856 101.024 111.585 101.024 112.169 101.024C113.191 101.17 114.066 101.17 114.941 101.463C115.233 101.463 115.524 101.609 115.67 101.756C116.253 101.902 116.837 102.194 117.567 102.194C120.338 102.487 122.235 102.34 123.693 101.756C124.276 101.463 124.714 101.171 125.152 100.878C125.589 100.585 126.027 100.293 126.464 100.146C128.214 99.7075 129.818 100 131.423 100.292C133.173 100.585 134.777 101.024 136.819 100.585C138.716 100.292 140.174 99.1217 141.632 98.0981C142.07 97.8052 142.362 97.5134 142.654 97.3664C143.383 96.9276 144.113 96.6347 144.841 96.1959C146.008 95.7571 147.175 95.1713 148.196 94.2937C149.217 93.416 150.092 92.0996 150.967 90.929C151.405 90.1973 151.842 89.6126 152.28 89.0268C152.425 88.7339 152.863 88.4421 153.155 88.1492C153.738 87.7104 154.467 87.1246 154.905 86.247C155.342 85.3693 155.488 84.4917 155.634 83.6141C155.634 83.3212 155.78 82.8824 155.78 82.5895C155.925 81.8578 156.363 81.1261 156.655 80.2485C156.947 79.5167 157.238 78.932 157.53 78.2003C158.259 76.0062 158.405 73.6653 158.551 71.3242C158.551 69.8608 158.697 68.5442 158.843 67.3738V66.935C159.135 64.7409 159.573 62.1071 159.281 59.7661C159.135 58.7415 158.698 57.8638 158.259 57.2791C158.259 57.425 157.967 56.8403 157.967 56.2545C157.967 55.8157 157.822 55.3769 157.822 54.7911C157.676 53.0358 157.53 50.9875 156.655 49.2314C155.78 47.4761 154.758 46.0128 153.591 44.5493C152.716 43.2328 151.695 42.0623 150.966 40.7458C150.821 40.3069 150.529 40.014 150.383 39.5752C153.155 38.8435 155.78 40.4529 158.406 42.2081C159.718 42.9398 160.885 43.8175 162.198 44.2562C163.51 44.841 164.822 45.2808 165.99 45.5727C168.761 46.4504 170.803 47.0361 173.137 49.8149C175.616 52.5949 176.491 55.9595 177.366 59.617C177.512 60.3487 177.804 61.0804 177.949 61.958C178.532 64.445 179.553 66.7859 180.574 69.127C181.011 70.2975 181.595 71.468 182.033 72.6385C182.47 73.6631 182.616 74.8325 182.908 76.0031C183.2 77.6124 183.637 79.2217 184.367 80.6852C184.659 81.124 185.096 81.4169 185.534 81.4169C185.679 81.4169 185.971 81.4169 186.117 81.271C186.993 80.8352 187.285 80.1035 186.846 79.3728L186.845 79.373ZM143.818 18.5122C144.84 16.7569 146.59 15.2936 148.194 15.0008C149.361 14.8548 150.236 15.1467 151.111 15.8784C152.132 16.756 152.132 18.8041 152.132 20.2677V21.1453C152.132 22.1699 152.132 23.1934 151.84 23.9253C151.548 24.657 150.381 25.3887 149.215 25.9734C148.194 26.5582 147.174 26.998 146.444 27.8756C146.152 27.4368 145.861 27.1439 145.569 26.7051C145.423 26.4122 145.132 26.1203 144.986 25.8274V25.0957C144.549 23.4864 146.59 21.2922 148.195 20.2678C148.778 19.829 149.07 19.0973 148.632 18.3656C148.195 17.7809 147.465 17.6339 146.736 17.9268C145.569 18.6585 144.111 19.975 143.09 21.7303C143.235 21.4375 143.235 21.1456 143.09 20.8527C142.943 20.122 143.235 19.5362 143.818 18.5127L143.818 18.5122ZM73.5158 24.2179C73.0783 23.7791 72.6409 23.6332 72.3489 23.4862C72.2034 23.3403 72.0569 23.1933 71.9114 23.1933C70.7444 22.1687 70.3069 20.1205 70.5989 18.5112C70.8909 16.9018 72.6408 13.8291 74.0997 13.0984C75.2667 12.5136 78.0381 13.976 79.0585 15.2924C79.788 16.317 80.2255 17.3406 80.663 18.511C80.663 18.657 80.8085 18.9499 80.955 19.0958C80.8095 19.2417 80.5175 19.3887 80.372 19.5346L79.3505 20.5592C78.1835 18.0722 76.8711 16.4628 74.8293 15.2924C74.2463 14.8536 73.3703 15.1465 72.9328 15.7312C72.4953 16.316 72.7873 17.1947 73.3703 17.6334C74.9748 18.658 76.1418 19.8275 77.0167 22.0227C77.1622 22.3156 77.3087 22.4615 77.4542 22.6075C76.5792 23.6321 75.8497 24.6556 74.9748 25.8261C74.6828 25.5332 74.3918 25.2413 74.0998 24.9484C74.0988 24.6566 73.8068 24.5106 73.5158 24.2177L73.5158 24.2179ZM151.403 46.1629C152.424 47.6263 153.444 48.9429 154.174 50.4051C154.757 51.5756 154.904 53.3308 155.049 54.9401C155.049 55.5249 155.195 55.9647 155.195 56.5495C155.34 57.72 155.924 58.5976 156.362 59.3294C156.654 59.9142 156.945 60.5 157.091 60.9388C157.383 62.841 156.946 65.181 156.654 67.2292V67.668C156.362 68.9845 156.362 70.448 156.216 71.9102C156.071 73.9583 156.071 76.1524 155.487 78.0548C155.341 78.6395 155.049 79.2253 154.757 79.957C154.32 80.8346 154.028 81.7123 153.736 82.737C153.59 83.1768 153.59 83.4697 153.445 83.9085C153.299 84.6402 153.153 85.225 153.007 85.6638C152.715 86.1026 152.278 86.3955 151.84 86.8343C151.403 87.1272 150.965 87.566 150.528 88.0048C149.945 88.5896 149.506 89.4683 149.069 90.1989C148.339 91.2235 147.61 92.393 146.881 92.9789C146.152 93.5636 145.277 94.0035 144.256 94.4423C143.381 94.8811 142.36 95.32 141.632 95.7588C141.194 96.0517 140.902 96.3435 140.465 96.6364C139.298 97.5141 137.985 98.3917 136.818 98.6846C135.359 98.9775 133.901 98.6846 132.442 98.3917C130.546 97.9529 128.504 97.514 126.171 98.2457C125.442 98.5386 124.712 98.8305 124.275 99.2703C123.837 99.5632 123.545 99.7092 123.253 99.8551C122.232 100.294 120.628 100.294 118.44 100.148C118.148 100.148 117.71 100.002 117.273 99.8551C116.981 99.7092 116.69 99.5622 116.251 99.5622C115.084 99.2693 114.064 99.1234 112.897 99.1234C112.314 99.1234 111.73 98.9775 111.147 98.9775C110.855 98.9775 110.564 98.8315 110.272 98.6846C109.689 98.3917 108.96 98.0998 107.938 98.0998C106.479 98.2457 105.604 99.2703 104.875 100.148C104.583 100.441 104.292 100.733 104.145 100.88C103.124 100.441 102.249 99.7091 101.374 98.8315C100.499 97.9539 99.4772 97.0762 98.3102 96.4905C97.2887 95.9057 96.1228 95.9057 94.9558 95.9057C94.0808 95.9057 93.3513 95.7598 92.7684 95.6128C92.1854 95.4669 91.6014 95.0281 91.0184 94.7352C90.2889 94.2964 89.706 94.0035 88.831 93.7106C85.039 92.3941 81.1007 90.7849 77.8919 87.8591C77.4544 87.4203 77.0169 87.1274 76.5794 86.8345C75.9964 86.3957 75.2669 85.9569 74.9749 85.3711C73.516 83.323 72.933 80.5432 72.2034 77.9101C72.0579 77.1784 71.7659 76.4467 71.6204 75.716C71.3284 74.8384 70.599 72.4974 69.5785 71.4738C69.2865 71.1809 68.849 71.035 68.557 70.8891C68.4116 70.8891 68.4115 70.8891 68.4115 70.7431C67.5366 69.1338 67.2446 66.3539 67.3901 64.5985C67.6821 61.3799 68.1195 57.8682 69.14 54.9425C69.432 54.2108 69.723 53.479 70.015 52.7484C70.598 51.5778 71.182 50.2614 71.3275 48.798C71.6195 47.0427 71.7649 45.1405 72.0569 43.2384C72.3489 39.8737 72.7864 36.3623 73.9534 33.5823C75.8498 29.0473 78.7666 24.8038 82.2676 21.7323C82.7051 21.2934 83.1426 21.0006 83.7266 20.5617C84.3096 20.1229 84.8936 19.83 85.3311 19.2453C86.4981 18.2207 87.081 17.0512 87.8105 16.0267C88.1025 15.5878 88.3935 15.149 88.6855 14.7102C88.9775 14.2714 89.4149 13.9785 90.1444 13.6856C91.0194 13.1008 92.3318 12.5151 92.9159 11.0527C93.3534 10.1751 93.3534 9.15051 93.4989 7.83413C93.6444 6.22477 93.7909 4.03059 94.8114 3.73773C96.4158 3.44484 102.542 6.81055 104.146 8.41985L104.584 8.85867C105.605 10.0292 107.063 11.3456 108.668 11.7844C110.418 12.2232 111.147 11.0527 111.439 10.6139C111.585 10.6139 111.731 10.7598 111.731 10.7598C112.461 11.0527 114.21 11.7844 115.085 10.4669C115.523 9.73521 115.523 8.85757 115.377 7.3941V6.51646C115.523 6.66239 115.669 6.80934 115.815 6.95528L115.96 7.10121C116.543 7.68597 117.127 8.12581 117.71 8.56463C118.293 9.00345 118.732 9.29634 119.169 9.73516C119.461 10.028 119.607 10.3199 119.899 10.6128C120.482 11.4904 121.211 12.6609 122.816 12.8069C123.399 12.8069 123.837 12.661 124.275 12.3681C125.004 11.6364 125.004 10.7587 125.004 9.88109V9.29634C125.15 8.85752 125.734 7.97987 126.609 7.39412C127.192 7.10123 127.63 6.9553 127.921 6.9553C128.359 7.10123 128.651 7.68701 128.796 9.14938C128.942 9.88109 128.942 10.4658 129.234 11.0516C130.109 13.3926 132.005 16.1726 134.192 17.9277C135.067 18.8053 136.38 19.3911 137.547 20.1218C139.006 20.9994 140.61 21.8771 141.339 23.0475C141.484 23.1935 141.484 23.6323 141.631 23.9252C141.776 24.364 141.923 24.8028 142.068 25.3886C142.651 26.2662 143.235 27.2908 143.818 28.1685C144.693 29.485 145.715 30.9485 146.152 32.4107C146.59 33.5812 146.735 34.6048 147.027 35.9222C147.465 37.9703 148.049 40.1644 149.069 42.2126C149.507 43.529 150.381 44.8465 151.403 46.1629H151.403Z" fill="black"/>
</g>
<defs>
<clipPath id="clip0_27_56">
<rect width="123" height="105" fill="white" transform="translate(64.3779 0.0168457)"/>
</clipPath>
</defs>
</svg>
