<svg width="248" height="373" viewBox="0 0 248 373" fill="none" xmlns="http://www.w3.org/2000/svg">
<path d="M121.04 86.4813C119.702 85.8097 118.497 84.8703 117.159 83.7961C115.955 82.8558 114.751 81.7825 113.412 81.111C113.68 79.768 113.68 78.0231 113.545 75.7408V74.6665C115.419 74.1299 117.829 72.6529 118.632 71.041C119.033 69.9668 118.9 68.8925 118.097 68.0871C116.491 66.4762 111.003 66.3414 109.799 66.4762C106.586 66.8789 106.051 68.3559 105.918 69.2963C105.784 70.9072 107.256 72.519 109.532 73.3246C109.665 73.3246 109.8 73.5934 110.067 73.7273C110.334 73.9961 110.602 74.264 111.004 74.5328V74.6667V75.8749C111.004 77.0831 111.137 80.7086 110.736 81.3802C110.602 81.649 109.933 82.1856 109.397 82.7232C106.988 85.1396 106.319 85.9459 106.319 86.8853C106.319 87.6908 106.854 88.2284 107.658 88.2284C108.327 88.2284 108.862 87.8256 108.997 87.1541C109.265 86.6174 110.602 85.4083 111.405 84.6028C111.807 84.2 112.075 83.9312 112.343 83.6624C113.414 84.334 114.484 85.1394 115.689 86.0788C117.028 87.153 118.365 88.3612 119.972 89.1667C120.106 89.3006 120.374 89.3006 120.507 89.3006C121.042 89.3006 121.445 89.0318 121.712 88.4952C121.978 87.6906 121.71 86.8842 121.04 86.4815L121.04 86.4813ZM108.593 69.4299C108.727 69.296 109.128 69.1611 110.066 69.0272C111.405 68.8933 115.286 69.4299 116.088 69.9675C115.82 70.6381 113.277 72.1151 112.341 72.1151C112.207 72.1151 112.073 71.8463 112.073 71.8463C111.671 71.4436 111.27 70.906 110.467 70.6381C109.263 70.2354 108.727 69.6978 108.593 69.4299L108.593 69.4299Z" fill="black"/>
<path d="M151.825 51.0346C151.423 50.6318 151.022 50.6318 150.352 50.6318C149.148 50.6318 146.203 50.7658 145.802 50.7658C142.991 50.7658 140.18 51.1685 137.369 51.5712C134.693 51.974 132.016 52.3767 129.338 52.3767C128.535 52.3767 128 52.9134 128 53.7198C128 54.5252 128.534 55.0628 129.338 55.0628C130.409 55.0628 131.614 55.0628 132.684 54.9289C132.684 55.0628 132.684 55.0628 132.818 55.1977C134.558 58.8232 138.707 60.4342 142.856 60.4342C144.462 60.4342 146.069 60.1653 147.541 59.7626C149.281 59.226 151.557 56.6747 152.226 54.5262C152.761 53.0492 152.36 51.9748 151.958 51.3035C151.958 51.1696 151.825 51.0347 151.825 51.0347L151.825 51.0346ZM149.683 53.4519C149.148 55.0628 147.408 56.8086 146.605 56.9426C143.259 58.0169 137.771 57.7481 135.496 54.3913C136.299 54.2573 136.968 54.1225 137.771 54.1225C139.11 53.9885 140.448 53.7197 141.786 53.5858C141.653 53.9885 141.653 54.3913 141.786 54.6601V54.794C141.92 55.8683 142.724 56.271 143.392 56.271H143.526C144.597 56.271 145.4 55.1967 145.4 54.1225C145.4 53.8537 145.4 53.451 145.266 53.1822H145.801C146.069 53.1822 147.808 53.1822 149.682 53.0482C149.683 53.317 149.683 53.4519 149.683 53.4519L149.683 53.4519Z" fill="black"/>
<path d="M171.232 39.756C171.5 39.3533 171.633 38.8157 171.901 38.4129C172.169 37.7414 172.303 37.2048 172.436 36.5332C172.57 35.9966 172.704 35.459 172.971 34.9223C174.845 31.1628 176.317 27.2686 177.521 22.9725C177.789 22.0321 178.056 21.2267 178.324 20.4211C179.395 16.9304 180.332 14.1105 178.592 9.27687L178.459 8.74021C176.05 1.89278 175.514 1.35523 174.845 0.952661C173.239 0.147197 172.168 1.62419 171.632 2.16086L171.364 2.42966C169.758 3.77272 168.018 5.24977 165.877 6.32295C162.664 7.93388 159.854 9.67965 157.043 11.9622C156.373 12.4989 155.838 13.1704 155.437 13.8419C154.902 14.5134 154.499 15.0501 153.964 15.4528C152.492 16.1244 150.35 15.8556 148.343 15.4528C147.139 15.184 145.934 15.0501 144.863 15.0501C144.595 15.0501 144.328 15.184 144.194 15.184C140.58 15.184 136.832 15.0501 133.218 14.9152C129.604 14.7813 125.723 14.6464 121.976 14.6464H121.173C119.299 14.6464 117.425 14.6464 115.418 14.9152C114.079 12.3639 109.93 10.887 106.719 9.67879C105.648 9.27605 104.711 8.87332 104.042 8.60452C102.436 7.79906 100.829 6.85875 99.357 5.9194C97.2162 4.98094 95.0745 3.6379 92.7991 2.69841C92.6656 2.69841 92.6656 2.56448 92.5312 2.56448C89.9879 1.35628 88.5156 0.953549 87.5792 1.62415C85.8389 2.83234 87.0442 9.00913 87.0442 9.00913C87.7136 11.8292 88.6501 15.5885 90.5239 18.5426C91.1933 19.483 91.9962 20.2884 92.6656 21.094C93.4685 21.8994 94.2715 22.7049 94.8073 23.6453C94.6738 23.6453 94.4059 23.7792 94.2724 23.7792C93.335 24.048 92.2651 24.182 91.7291 25.2562C91.4612 25.659 91.3277 26.3305 91.7291 27.1359C92.532 29.0156 96.8154 31.298 99.2241 31.8358C98.6891 33.4467 98.1532 35.0585 97.7518 36.6694C97.3503 38.4152 96.8144 40.0261 96.2795 41.5031C95.2086 44.457 94.0042 46.8733 92.9334 49.0219H92.264H91.1931C90.7916 49.0219 89.7208 49.0219 89.4528 48.8879C88.9179 48.4852 88.114 48.4852 87.5791 49.0219C87.0441 49.5585 87.0441 50.3649 87.5791 50.9016C88.382 51.707 89.8543 51.707 91.1931 51.707H91.3266C90.7916 52.3786 90.3892 53.0501 89.8543 53.8555C89.7208 53.8555 89.5863 53.8555 89.4528 53.9895C88.7834 54.3922 86.7762 54.1234 85.7052 53.8555C85.3037 53.8555 84.9023 53.7216 84.6343 53.7216H84.5008C83.2964 53.4528 81.8242 53.1849 81.2883 54.5271C81.0204 55.4674 81.5563 56.2729 82.7607 57.7498C83.0286 58.1525 83.5636 58.824 83.965 59.3607C83.6971 59.3607 83.4301 59.3607 83.2956 59.4946C82.0913 59.6285 80.619 59.7634 79.9495 60.8377C79.6816 61.2404 79.4146 61.9119 79.6816 62.8513C80.2166 64.8649 81.8233 66.6108 83.1613 67.9537L83.2948 68.0877C83.4283 68.2216 83.5627 68.3565 83.6963 68.4904C82.8933 68.7592 81.689 68.8931 81.0196 69.0271C80.3502 69.161 79.8152 69.2959 79.5473 69.2959H79.4138C78.7444 69.4298 77.54 69.8325 77.0051 70.7729C76.7371 71.3095 76.7371 71.8471 76.8716 72.3838C77.4065 74.2635 79.2803 74.9351 80.7526 75.4717C81.0205 75.6056 81.2875 75.6056 81.422 75.7405C85.4375 77.3514 88.3821 79.0972 89.4531 80.3054C89.1851 80.7081 88.2487 81.3797 87.8472 81.6485C87.4458 82.0512 87.0443 82.32 86.7764 82.5888L86.6428 82.7227C86.2414 83.1255 85.4385 83.9309 85.4385 85.0052C85.4385 85.5418 85.7064 85.9455 86.1079 86.3482C87.1787 87.2886 89.0524 87.0197 90.2568 86.7509H90.6582C92.8 86.4821 94.5392 86.617 95.3432 87.0197C95.4768 87.0197 95.4768 87.1537 95.6112 87.1537C97.6185 88.3619 99.8947 89.3022 102.035 90.2416C103.776 90.9131 105.382 91.7186 106.987 92.524C107.389 92.7928 107.925 93.0607 108.326 93.3295C108.594 93.4634 108.861 93.5983 109.129 93.7322C108.326 94.5377 107.657 96.0147 106.72 98.2971C106.587 98.5659 106.587 98.6998 106.452 98.8338C105.918 100.177 105.65 101.25 106.319 102.056C106.854 102.728 107.523 102.728 108.059 102.593C108.059 102.996 107.926 103.399 107.791 103.801C107.39 105.681 106.988 107.83 108.059 109.307C108.327 109.709 108.729 109.843 109.13 109.843C109.398 109.843 109.665 109.709 109.933 109.574C110.602 109.172 110.736 108.366 110.334 107.695C109.933 107.158 110.334 105.412 110.468 104.204C110.601 103.264 110.869 102.324 110.869 101.653C110.869 100.712 110.468 100.176 110.067 99.9069C109.665 99.6381 109.397 99.6381 108.996 99.6381C108.996 99.5041 109.129 99.3693 109.129 99.1014C109.932 96.9529 110.601 95.7447 111.003 95.4759C111.271 95.342 111.404 95.0732 111.538 94.9393C114.081 96.1475 116.758 97.2217 119.97 97.2217C120.505 97.2217 121.041 97.2217 121.576 97.0878C122.246 96.9538 122.915 96.685 123.316 96.5511C123.584 96.4172 123.851 96.2823 124.119 96.2823C125.725 95.8796 127.465 95.4768 129.206 95.208C131.481 94.8053 133.891 94.2677 136.166 93.5971C137.237 93.3283 138.307 92.7916 139.244 92.3889C140.448 91.8522 141.653 91.4486 142.858 91.1807C142.991 91.1807 143.126 91.0468 143.259 91.0468C143.527 91.0468 143.929 90.9128 144.732 90.778C146.07 90.5092 149.818 89.8377 150.754 90.1065C151.557 90.3753 152.36 90.6431 153.163 90.9119C154.635 91.4486 156.108 91.9862 157.714 92.1201H157.847C158.516 92.1201 158.918 92.254 159.453 92.254C160.256 92.254 160.792 92.1201 161.193 91.5825C161.728 90.6422 161.193 89.8367 160.256 88.6286C159.586 87.8232 158.917 86.8828 158.382 86.0773C157.579 85.003 156.776 84.0636 156.107 83.1234L155.705 82.7206C156.107 82.7206 156.508 82.7207 156.776 82.8546C157.178 82.8546 157.446 82.9885 157.714 82.9885H158.383C159.587 84.8682 161.327 86.4792 163.068 88.0909C164.674 89.5679 166.146 90.7761 167.083 92.388C167.217 92.5219 167.217 92.6568 167.351 92.7907C167.351 92.7907 167.351 92.9247 167.485 92.9247C167.217 93.0586 167.083 93.3274 166.95 93.7301C166.415 95.2071 167.485 96.4152 168.021 97.0868L168.289 97.3556C168.422 97.6244 168.824 98.1611 169.092 98.6987C170.698 101.25 171.903 102.996 173.241 103.399H173.509C174.178 103.399 174.713 102.996 174.847 102.324C174.981 101.653 174.579 100.981 173.91 100.713C173.241 100.311 171.903 98.162 171.367 97.2226C170.965 96.5511 170.564 96.0144 170.296 95.6117C170.162 95.4778 170.162 95.3429 170.028 95.209L169.76 94.9402C170.028 94.8062 170.161 94.6714 170.295 94.4035C170.563 94.0008 170.696 93.598 170.563 93.0604C170.429 92.5238 170.028 91.8522 169.492 91.0468C169.359 90.9129 169.359 90.778 169.224 90.6441C168.02 88.7644 166.28 87.2874 164.674 85.8104C163.603 84.7362 162.398 83.7968 161.595 82.7225H165.343H167.35H168.02C169.492 82.7225 171.366 82.7225 172.705 81.917C173.374 81.5143 173.776 80.9767 173.776 80.3061C174.044 78.8291 172.705 77.486 171.367 76.144C171.233 76.0101 171.099 75.8752 170.965 75.6074C171.635 75.4734 172.438 75.4734 172.973 75.3386C175.114 75.2046 176.854 75.0698 177.658 73.8616C177.926 73.5928 177.926 73.19 177.791 72.7873C177.658 71.9818 176.988 71.4442 175.516 70.6388L175.383 70.5049C174.848 70.2361 174.445 69.6994 173.777 69.2967C172.974 68.6251 172.036 67.9536 171.1 67.283C171.368 67.1491 171.635 67.0142 171.903 66.8803C172.171 66.7464 172.438 66.7464 172.706 66.6115C173.375 66.4776 174.045 66.3427 174.713 65.94C174.847 65.94 174.981 65.94 175.115 65.806C176.052 65.6721 176.988 65.4033 177.256 64.463C177.524 63.1199 176.453 62.0466 175.249 61.1063C174.58 60.5696 173.91 60.1659 173.375 59.7632C172.036 58.9577 170.967 58.1523 170.297 56.9431C169.762 56.0028 170.029 54.3918 170.164 52.9148C170.164 52.5121 170.297 52.2433 170.297 51.8406C170.431 50.0948 170.164 48.6179 169.896 47.0069C169.628 45.5299 169.361 44.1868 169.628 42.8448C170.027 42.0384 170.697 40.9642 171.232 39.756L171.232 39.756ZM99.8931 29.1493C98.8222 29.1493 95.4762 27.5384 94.4052 26.4642C94.5387 26.4642 94.6732 26.4642 94.6732 26.3303C95.6105 26.0615 96.8149 25.7936 97.3498 24.7193C97.6178 24.0478 97.6178 23.2423 97.2163 22.4369C96.5469 21.0938 95.4761 20.0205 94.5397 19.0802C93.8703 18.4087 93.2009 17.6032 92.6659 16.9317C90.9257 14.3804 90.1227 11.0237 89.5878 8.33853C89.4533 7.66607 89.1863 5.38368 89.1863 4.04052C89.5878 4.17445 90.2572 4.44325 91.328 4.84598C91.4615 4.97991 91.596 4.97991 91.7295 4.97991C93.8712 5.92024 96.0129 7.12842 98.0201 8.33661C99.6259 9.27695 101.233 10.2163 102.838 11.1567C103.508 11.5595 104.579 11.8283 105.783 12.3649C108.058 13.1704 111.538 14.5134 112.743 15.8556C111.672 16.2584 110.736 16.796 109.799 17.6014C109.264 18.0042 108.594 18.5418 108.058 18.9445C107.255 19.4811 106.318 20.1527 105.515 20.9581C104.846 21.6297 104.444 22.4351 104.043 23.1066C103.909 23.3754 103.775 23.7782 103.508 24.047C103.106 24.7185 102.57 25.2552 102.169 25.9267C101.634 26.5982 101.098 27.4037 100.563 28.2091C100.429 28.4779 100.161 28.8806 99.8928 29.1494C100.027 29.1494 100.027 29.1494 99.8928 29.1494L99.8931 29.1493ZM100.562 52.6462C100.83 53.4517 101.5 53.8544 102.303 53.8544C102.838 53.8544 103.374 53.5856 103.642 53.049C103.909 52.6462 104.043 51.8408 103.909 51.3032C105.114 51.1693 106.051 51.1693 106.453 51.3032C106.586 52.2435 106.185 52.9141 105.515 53.4517C103.508 54.9287 99.2247 54.6599 97.6189 53.5856C97.2174 53.3168 95.8786 52.2425 95.3436 51.572C96.548 51.572 97.7524 51.438 98.9577 51.438C99.4926 51.438 100.029 51.4381 100.43 51.3041C100.429 51.8399 100.563 52.3774 100.563 52.6462L100.562 52.6462ZM167.618 47.6776C167.886 49.1546 168.153 50.3627 167.886 51.7059C167.886 51.9747 167.752 52.3774 167.752 52.6462C167.485 54.392 167.218 56.5395 168.154 58.2855C169.091 60.0312 170.697 61.1056 172.035 62.045C172.704 62.4477 173.239 62.8504 173.775 63.2532C173.909 63.3871 173.909 63.3871 174.043 63.3871C173.91 63.3871 173.775 63.521 173.642 63.521C173.24 63.7898 172.839 63.7898 172.303 63.9237C171.901 64.0577 171.633 64.0577 171.232 64.1925C170.563 64.4613 169.893 64.7292 169.225 65.1329C168.69 65.4017 168.02 65.6695 167.484 65.9383C167.351 65.9383 167.083 66.0723 166.95 66.2071C166.682 66.4759 166.415 66.7438 166.415 67.1475C166.281 67.9529 166.816 68.4905 167.619 68.6245C169.091 68.7584 170.697 70.1015 172.169 71.1758C172.704 71.5785 173.107 71.9813 173.642 72.2501C173.374 72.2501 172.972 72.2501 172.704 72.384C170.563 72.5179 168.689 72.6528 167.886 73.861C166.949 75.0692 168.154 76.4123 169.358 77.6205C169.76 78.0232 170.429 78.8287 170.831 79.2314C170.028 79.5002 168.823 79.5002 167.886 79.5002H167.217H165.209C162.666 79.5002 160.123 79.6342 157.58 79.5002H156.777C155.573 79.3663 153.966 79.2314 152.896 79.903C152.494 80.1718 152.227 80.5745 152.093 80.9772C151.959 81.9176 152.494 82.8569 153.297 83.9311C153.297 84.0651 153.431 84.0651 153.431 84.0651C154.1 85.1393 155.037 86.2136 155.84 87.2877C156.241 87.8244 156.777 88.362 157.178 88.8987C155.974 88.7647 154.903 88.362 153.832 87.8244C153.029 87.5556 152.226 87.1529 151.289 87.0189C149.817 86.6162 147.006 87.0189 144.062 87.6905C143.661 87.8244 143.125 87.8244 142.858 87.9593C142.59 87.9593 142.323 88.0932 142.055 88.2281C140.582 88.4969 139.243 89.1684 137.906 89.7051C136.968 90.1078 136.032 90.5105 135.095 90.7793C132.953 91.4509 130.544 91.8536 128.402 92.2563C126.662 92.5251 124.923 92.9279 123.183 93.3306C122.648 93.4645 122.245 93.5994 121.978 93.8672C121.577 94.0012 121.309 94.136 121.041 94.136C116.624 94.6727 113.144 92.659 109.397 90.6453C108.995 90.3765 108.459 90.1087 108.058 89.8399C106.318 88.8995 104.578 88.2289 102.838 87.4235C100.563 86.4832 98.4211 85.5438 96.5473 84.3356C96.4128 84.1988 96.1449 84.1988 96.0114 84.1988C94.2711 83.5273 91.8625 83.5273 90.122 83.7961C89.9885 83.7961 89.8541 83.7961 89.5871 83.93C89.4536 83.93 89.0521 84.064 88.7841 84.064C88.9177 83.93 89.0521 83.7952 89.1856 83.7952C90.39 82.8548 92.7996 80.9751 91.4608 78.9615C90.2564 77.2158 87.044 75.202 82.092 73.1885C81.8241 73.0545 81.5571 72.9197 81.2891 72.9197C80.6197 72.6509 79.8168 72.383 79.4153 71.9793C79.5488 71.9793 79.8168 71.8454 79.8168 71.8454H79.9503C80.0838 71.8454 80.6197 71.7115 81.1547 71.5766C84.3672 71.0399 86.241 70.6363 86.5079 69.1603C86.6414 68.086 85.8385 67.1466 84.7677 66.0723L84.6342 65.9384C83.5633 64.8642 82.359 63.5221 81.9576 62.1789C82.359 62.045 82.7605 62.045 83.1619 62.045C84.3663 61.911 85.8386 61.7762 86.508 60.568C87.1774 59.3598 86.2401 58.0166 85.0357 56.4059H85.1701C86.776 56.6747 88.6498 56.8086 89.9885 56.4059H90.2564C90.6579 56.4059 91.0594 56.272 91.3273 55.8692C91.9967 55.0638 92.6661 54.1235 93.3346 53.1841C94.2719 54.5272 96.1458 55.8692 96.2791 55.8692C97.4835 56.6747 99.6252 57.2123 101.632 57.2123C103.64 57.2123 105.781 56.8096 107.254 55.7353C109.128 54.3923 109.797 52.5126 109.261 50.2301C108.86 48.3504 106.183 48.4843 104.041 48.6192H103.64C102.167 48.6192 100.562 48.7531 99.2229 48.7531C98.152 48.7531 97.0812 48.887 96.0104 48.887C96.9478 47.0073 98.0177 44.7249 98.955 42.3076C99.3564 41.0994 99.7579 39.8913 100.159 38.6822C101.097 39.4876 101.9 40.4279 102.836 41.2335C104.04 42.4417 105.379 43.6498 106.584 44.859C106.985 45.2617 107.253 45.5305 107.521 45.9332C108.725 47.2763 110.198 48.8871 112.473 48.8871C113.142 48.8871 113.812 48.7532 114.615 48.4844C115.284 48.2156 115.686 47.5441 115.418 46.7386C115.15 46.0671 114.48 45.6644 113.677 45.9332C111.804 46.6047 111.001 45.9332 109.394 44.0535C109.126 43.6507 108.724 43.248 108.323 42.9792C107.119 41.771 105.78 40.5628 104.575 39.2197C103.371 38.0115 102.032 36.8033 100.961 35.5942C101.496 33.4457 102.3 31.2972 103.37 29.4174C103.772 28.7459 104.307 28.0743 104.842 27.4038C105.377 26.7322 105.913 26.0607 106.315 25.2553C106.583 24.8525 106.716 24.5837 106.85 24.181C107.118 23.6443 107.385 23.1067 107.787 22.704C108.322 22.1673 109.126 21.6297 109.929 21.0931C110.598 20.6903 111.401 20.1527 111.936 19.6161C114.479 17.3336 117.825 17.3336 121.439 17.3336H122.242C125.99 17.3336 129.737 17.4676 133.351 17.6024C136.965 17.7364 140.846 17.8712 144.46 17.8712C144.728 17.8712 144.995 17.7373 145.13 17.7373C145.933 17.7373 147.003 17.8712 148.074 18.14C150.483 18.5428 153.161 19.0804 155.301 17.8712C156.506 17.3346 157.175 16.2603 157.845 15.4549C158.246 14.9182 158.514 14.5146 158.915 14.1118C161.592 11.9633 164.269 10.2185 167.214 8.74159C169.622 7.53339 171.497 6.05647 173.236 4.44453L173.771 3.90787C174.173 4.71333 174.842 6.32421 175.913 9.54712L176.046 10.0838C177.385 13.9771 176.849 15.9918 175.778 19.4823C175.511 20.2878 175.244 21.2281 174.976 22.1674C173.905 26.1957 172.432 29.955 170.692 33.5807C170.291 34.2522 170.157 35.0577 170.023 35.7292C169.889 36.2659 169.755 36.6695 169.621 37.2062C169.488 37.6089 169.22 38.0117 169.086 38.4144C168.417 39.7575 167.747 41.0995 167.48 42.5765C167.082 44.4562 167.35 46.0672 167.618 47.6779L167.618 47.6776Z" fill="black"/>
<path d="M169.224 17.0647C169.759 16.7959 170.295 16.528 170.83 16.1243C172.436 14.7813 173.774 11.0219 174.176 9.41092C174.309 8.73939 173.908 7.93392 173.105 7.79999C172.436 7.66606 171.633 8.06879 171.499 8.87426C171.231 10.4852 169.893 13.3051 169.09 14.1107C168.823 14.3795 168.556 14.5134 168.153 14.6474C167.484 14.9162 166.814 15.3189 166.146 15.9904C163.871 18.5418 161.997 22.1673 161.327 25.2552C161.327 25.524 161.194 25.7918 161.194 26.0606C160.926 27.4037 160.525 29.1486 160.793 30.3577C160.926 30.8944 161.194 31.298 161.595 31.5659C162.265 31.9686 163.201 31.8347 163.871 31.6998L163.87 31.8347C163.87 32.2374 163.87 32.775 163.736 33.1778C163.603 34.5208 163.603 36.1317 163.067 37.206C162.799 37.8776 163.067 38.683 163.602 38.9518C163.735 39.0857 164.003 39.0857 164.137 39.0857C164.672 39.0857 165.074 38.8169 165.341 38.2803C166.144 36.8033 166.144 34.9236 166.278 33.1778C166.278 32.7751 166.278 32.2375 166.412 31.9697L166.413 31.8348C166.546 31.0293 166.814 29.4184 165.476 28.8809C164.806 28.4782 164.003 28.747 163.334 29.0148H163.2C163.2 28.3433 163.468 27.4039 163.602 26.5985C163.735 26.1957 163.735 25.9269 163.735 25.6581C164.27 23.1068 165.877 19.8851 167.884 17.7366C168.421 17.4678 168.823 17.3338 169.224 17.065V17.0647Z" fill="black"/>
<path d="M133.755 46.6037C135.897 45.5294 138.306 44.724 140.581 44.0524C142.99 43.2469 145.399 42.5754 147.675 41.3672C148.879 40.8306 149.549 39.7563 150.084 38.9509C150.485 38.4142 150.753 38.0106 151.154 37.7427C151.824 37.34 151.957 36.5345 151.556 35.863C151.154 35.1915 150.351 35.0575 149.682 35.4603C148.879 35.9969 148.343 36.8033 147.942 37.4739C147.54 38.1454 147.139 38.6821 146.603 38.9509C144.461 40.0252 142.186 40.6967 139.911 41.5022C137.502 42.3077 134.959 42.9792 132.684 44.1874C131.613 44.724 130.409 45.5304 129.338 46.3359C127.464 47.6789 125.59 49.156 123.716 49.156C122.913 49.156 122.377 49.6926 122.377 50.499C122.377 51.3045 122.912 51.8421 123.716 51.8421C126.393 51.8421 128.803 50.0963 130.943 48.4854C131.882 47.8129 132.819 47.0065 133.755 46.6038L133.755 46.6037Z" fill="black"/>
<path d="M140.983 70.3692C137.771 70.2352 134.693 71.0407 131.748 71.8462C131.346 71.9801 130.945 72.115 130.543 72.115C130.142 72.2489 129.606 72.2489 129.071 72.3838C128 72.5177 126.662 72.7865 125.591 73.3241C124.922 73.7268 124.654 74.5323 125.056 75.2038C125.324 75.6065 125.726 75.8753 126.261 75.8753C126.529 75.8753 126.662 75.8753 126.93 75.7414C127.6 75.3387 128.536 75.2047 129.473 75.0699C130.008 74.936 130.678 74.936 131.214 74.8011C131.615 74.6672 132.017 74.5323 132.418 74.5323C135.229 73.7268 138.039 73.0553 140.716 73.1892C141.519 73.1892 142.055 72.6526 142.188 71.981C142.322 71.0407 141.786 70.3692 140.983 70.3692L140.983 70.3692Z" fill="black"/>
<path d="M139.377 76.5454C138.173 76.6793 136.968 76.5454 135.629 76.5454C133.488 76.5454 131.346 76.5454 129.205 76.9481C128.536 77.0821 128.001 77.7536 128.134 78.5591C128.268 79.2306 128.804 79.6333 129.473 79.6333H129.741C131.615 79.2306 133.622 79.3645 135.63 79.3645H139.511C140.314 79.3645 140.85 78.693 140.716 77.8875C140.849 77.0821 140.18 76.5454 139.377 76.5454H139.377Z" fill="black"/>
<path d="M100.696 71.1747C100.428 71.1747 100.161 71.0408 99.8932 71.0408C99.3582 70.9068 98.9558 70.772 98.4208 70.5041C97.8859 70.2353 97.35 70.1014 96.815 69.9674C95.7441 69.6986 94.8077 69.5647 93.7368 69.5647C93.3354 69.5647 92.7995 69.4308 92.398 69.4308C91.7286 69.2968 90.9257 69.8335 90.9257 70.639C90.7922 71.4444 91.3271 72.116 92.1301 72.116C92.665 72.116 93.0674 72.2499 93.6024 72.2499C94.5397 72.3838 95.3426 72.3838 96.1457 72.6526C96.5471 72.7865 97.083 72.9214 97.4845 73.0554C98.0194 73.3242 98.6889 73.4581 99.3582 73.7269C99.6262 73.7269 100.028 73.8608 100.296 73.8608C100.965 73.9947 102.036 74.1296 102.303 74.3975C102.571 74.6663 102.972 74.8002 103.24 74.8002C103.508 74.8002 103.91 74.6663 104.178 74.3975C104.713 73.8608 104.713 73.0544 104.311 72.5178C103.373 71.5774 101.9 71.3096 100.696 71.1747L100.696 71.1747Z" fill="black"/>
<path d="M102.034 76.0084C100.562 75.6057 99.0898 75.4718 97.6176 75.3369C96.8147 75.3369 96.1452 75.203 95.3424 75.0681C94.5394 74.9342 93.87 75.4708 93.87 76.2763C93.7365 76.9478 94.2715 77.7533 95.0744 77.7533C95.8773 77.8872 96.6802 77.8872 97.4831 78.0221C98.8219 78.156 100.16 78.156 101.364 78.5587H101.766C102.301 78.5587 102.836 78.156 103.104 77.6184C103.239 77.0827 102.837 76.2772 102.034 76.0084L102.034 76.0084Z" fill="black"/>
<path d="M98.8652 184.811V182.627H107.433V184.811H98.8652ZM106.593 193.575V173.835H109.141V193.575H106.593ZM98.0252 193.575V173.835H100.573V193.575H98.0252ZM112.77 176.047V173.835H124.39V176.047H112.77ZM117.306 193.575V173.835H119.854V193.575H117.306ZM133.912 193.575L138.308 173.835H140.52L136.152 193.575H133.912ZM133.828 193.575L129.432 173.835H131.672L136.04 193.575H133.828ZM128.032 193.575V173.835H130.58V193.575H128.032ZM139.4 193.575V173.835H141.948V193.575H139.4ZM148.613 193.575V191.363H155.809V193.575H148.613ZM146.905 193.575V173.835H149.453V193.575H146.905Z" fill="black"/>
</svg>
