<svg width="58" height="58" viewBox="0 0 58 58" fill="none" xmlns="http://www.w3.org/2000/svg">
<path fill-rule="evenodd" clip-rule="evenodd" d="M8.04668 52.161L3.396 0H54.4996L49.8439 52.1525L28.9169 57.9546L8.04668 52.161Z" fill="#0071BC"/>
<path fill-rule="evenodd" clip-rule="evenodd" d="M28.9907 53.517L45.8798 48.8708L49.8369 4.34399H28.9907V53.517Z" fill="#29ABE2"/>
<path fill-rule="evenodd" clip-rule="evenodd" d="M14.0415 23.5077L14.6017 29.8956L28.9908 23.5077V17.1094L14.0415 23.5077Z" fill="#B3B3B3"/>
<path fill-rule="evenodd" clip-rule="evenodd" d="M44.9271 10.2795L28.9907 17.1094V23.5077L44.3776 16.6675L44.9271 10.2795Z" fill="#E6E6E6"/>
<path fill-rule="evenodd" clip-rule="evenodd" d="M28.9909 40.2215L28.9415 40.2289L21.8055 38.3126L21.3393 33.2173H14.917L15.8132 43.2553L28.9401 46.8899L28.9909 46.8779V40.2215Z" fill="#E6E6E6"/>
<path fill-rule="evenodd" clip-rule="evenodd" d="M28.9907 23.5076V29.8955H36.8034L36.0934 38.2472L28.9907 40.227V46.8828L42.074 43.2482L43.7968 23.5076H28.9907Z" fill="white"/>
<path fill-rule="evenodd" clip-rule="evenodd" d="M28.9908 23.5076H14.0415L14.6017 29.8955H28.9908V23.5076Z" fill="#E6E6E6"/>
<path fill-rule="evenodd" clip-rule="evenodd" d="M28.9909 16.6675V10.2795H28.926H12.9058L13.4726 16.6675H28.9909Z" fill="#E6E6E6"/>
<path fill-rule="evenodd" clip-rule="evenodd" d="M28.9907 10.2795V16.5874V16.6675H44.3776L44.9271 10.2795H28.9907Z" fill="white"/>
</svg>
