<svg width="252" height="373" viewBox="0 0 252 373" fill="none" xmlns="http://www.w3.org/2000/svg">
<path d="M179.165 91.2176C178.915 90.2191 178.791 89.346 178.666 88.3475C178.542 87.0991 178.416 85.8517 178.416 84.7287C178.292 82.1074 178.042 79.3627 177.418 76.6171C177.168 75.6186 176.669 74.6201 176.169 73.747C175.671 72.8729 175.295 72.1243 175.171 71.3755C175.046 70.2525 175.171 68.8798 175.295 67.6313C175.42 66.8826 175.42 66.134 175.545 65.3854C175.67 64.0125 175.545 62.6398 175.421 61.267C175.296 59.27 175.171 57.3984 175.545 55.6512C175.795 54.1539 176.169 52.781 176.544 51.4082C177.292 48.1636 178.041 44.9184 178.291 41.424C178.415 39.178 178.291 36.5568 177.916 34.3099C177.792 33.5613 177.418 32.8126 177.168 32.3129C176.918 31.8141 176.669 31.4389 176.669 31.0646C176.669 30.8147 176.919 30.4404 177.168 29.9416C177.667 29.1929 178.291 28.0699 177.792 26.8216C177.293 25.0744 175.67 24.8246 174.797 24.5756C174.672 24.5756 174.547 24.5756 174.422 24.4511C174.797 24.0768 175.296 23.5771 175.671 23.2028C177.043 21.9544 178.166 20.707 178.042 19.584C178.042 19.0852 177.792 18.5855 177.418 18.2112C176.295 17.2127 174.672 17.3372 173.549 17.3372H173.175C172.301 17.3372 171.303 17.4616 170.305 17.4616C168.183 17.5861 166.062 17.836 164.439 17.3372C164.189 17.2127 163.94 16.5885 163.69 16.2142C163.316 15.59 162.942 14.8413 162.318 14.3425C160.321 12.7199 156.826 12.0966 155.828 11.9711C154.205 11.7213 152.708 11.7213 151.085 11.5968C150.087 11.5968 149.214 11.4723 148.215 11.4723C146.967 11.3478 145.594 11.2224 144.221 11.0979C138.855 10.4738 133.238 9.84959 127.997 11.8466C123.504 13.5938 120.134 17.2126 117.388 20.5824C116.889 21.2066 116.39 21.8307 115.891 22.454C115.517 22.5785 115.142 22.8284 114.892 23.3281C114.892 23.4525 114.768 23.7024 114.768 23.8269C112.022 27.4456 109.526 31.3153 108.154 35.8081C106.032 36.058 103.911 36.1825 101.789 36.1825C101.04 36.1825 100.416 36.8066 100.416 37.5553C100.416 38.304 101.04 38.9281 101.789 38.9281C103.661 38.9281 105.658 38.8037 107.53 38.5538C107.28 40.1765 107.156 41.6738 107.156 43.2964C107.156 44.6693 107.031 45.9177 106.906 47.165C106.782 47.6638 106.656 48.288 106.532 48.9122C106.282 50.0352 106.033 51.1581 106.033 52.4066V52.531C105.908 52.7809 105.783 52.9054 105.534 53.1552C104.161 54.5281 101.915 55.651 99.7928 56.774C98.1702 57.648 96.423 58.5211 94.9256 59.5196C92.8041 61.0169 89.1844 61.7655 85.6902 62.3898C80.6986 63.3883 75.5816 64.3868 73.0856 67.7557V67.8802C70.4644 71.9986 74.0841 75.8674 76.081 77.8644C76.4554 78.2388 76.9551 78.7384 76.9551 78.8629C77.2049 79.2373 77.5792 79.6116 77.9536 79.6116H78.3279C79.3264 79.6116 80.5739 78.7376 83.5695 76.6162L83.694 76.4917C83.9438 76.6162 84.0683 76.6162 84.3182 76.6162C85.9408 76.6162 89.3097 76.9905 91.6812 77.3648C92.6797 77.4893 93.6782 77.6147 94.3024 77.6147C94.9266 77.6147 95.5508 77.7392 96.174 77.8645C97.4224 78.1144 98.7953 78.3634 100.292 78.2389C101.415 78.1144 102.414 77.989 103.412 77.8645C105.658 77.6147 107.905 77.3657 110.151 77.4902C112.397 77.6147 114.644 77.6147 116.89 77.7401C120.509 77.8645 123.879 77.8645 127.373 78.3642H127.497C131.866 78.2397 136.982 77.7401 141.6 75.9928C141.6 77.74 141.725 79.3626 141.85 81.1098C141.974 82.7325 142.1 84.4797 142.1 86.2269C142.1 86.9755 141.975 87.7242 141.85 88.4728C141.725 89.3468 141.6 90.22 141.6 91.094C141.6 91.8427 141.35 92.5914 141.226 93.34C140.976 94.0887 140.851 94.8373 140.727 95.7114C140.727 95.9613 140.477 96.7099 140.353 97.0843C140.228 97.3341 140.103 97.5831 140.103 97.8329C140.103 98.5816 140.727 99.2058 141.476 99.2058H141.6C142.723 99.2058 142.973 98.2073 143.223 97.3341C143.347 96.9598 143.473 96.2111 143.597 95.8368C143.597 95.2126 143.847 94.5884 143.971 93.9652C144.221 93.0911 144.47 92.0935 144.47 90.9697C144.47 90.2211 144.595 89.4724 144.72 88.7238C144.845 87.8498 144.97 86.9766 144.97 86.1025C144.97 84.3554 144.845 82.6081 144.72 80.8609C144.596 79.2383 144.47 77.4911 144.47 75.7439C144.47 75.3696 144.346 75.1197 144.22 74.8699C146.092 73.9959 147.839 72.8729 149.462 71.3755C150.211 70.7513 152.582 68.6299 153.705 68.5053H155.078C157.075 68.5053 160.569 68.3808 161.193 65.1355V64.8856C161.318 64.8856 161.318 64.7612 161.443 64.7612C162.067 64.3868 162.442 63.7626 162.566 63.014C162.816 61.5167 161.817 60.6426 161.193 60.0186L160.569 59.3944C159.82 57.6473 157.199 56.8986 153.331 55.9C151.833 55.5257 150.335 55.1513 149.712 54.777C148.215 53.903 146.842 52.9054 145.343 51.7816C143.596 50.4087 141.725 49.036 139.602 48.0374C134.237 45.4161 127.248 45.4161 121.133 45.4161H120.759H118.887C116.017 45.2916 112.771 45.1663 110.151 46.9134C110.027 47.0379 109.901 47.0379 109.777 47.1633C110.027 45.7904 110.027 44.542 110.027 43.1692C110.027 42.5451 110.027 41.9209 110.151 41.2976C110.775 42.2961 111.524 43.0448 112.647 43.669C114.02 44.4177 115.517 44.792 117.14 44.792C118.887 44.792 120.634 44.4177 122.007 43.5437L122.131 43.4192C123.504 42.5452 127.123 40.2992 125.75 37.8034C125.251 36.9294 124.502 36.6804 118.636 35.9318C118.137 35.9318 117.762 35.8073 117.638 35.8073C115.766 35.5574 113.644 35.1831 111.647 35.4329H111.398C112.396 32.4375 114.019 29.6917 115.89 27.1959C116.389 28.0699 117.139 28.8186 117.638 29.3174C118.136 29.8162 118.636 30.0661 119.01 30.1914C119.26 30.3159 119.509 30.4413 119.635 30.5658C121.506 31.9386 123.379 33.3114 124.377 35.0586C124.752 35.6827 125.251 36.0571 125.626 36.3069C125.875 36.5568 126.124 36.6813 126.25 36.9311C126.5 37.4299 126.998 37.6798 127.498 37.6798C127.748 37.6798 127.872 37.6798 128.122 37.5553C128.746 37.181 129.121 36.4323 128.746 35.6836C128.372 35.0595 127.872 34.5606 127.374 34.1863C127.124 33.9365 126.875 33.812 126.749 33.6875C125.501 31.566 123.38 29.9433 121.258 28.4459C120.884 28.196 120.509 28.0716 120.259 27.8217C119.885 27.6972 119.635 27.5719 119.511 27.3229C118.762 26.5742 118.013 25.4512 117.764 24.5773C118.388 23.7033 119.012 22.9546 119.635 22.2059C122.131 19.2104 125.251 15.8413 129.12 14.3432C133.737 12.5961 138.979 13.0949 144.096 13.7191C145.468 13.8435 146.841 14.0934 148.214 14.0934C149.213 14.2179 150.211 14.2179 151.209 14.2179C152.707 14.2179 154.205 14.3424 155.578 14.5922C157.325 14.8421 159.572 15.4662 160.695 16.3394C160.819 16.4639 161.194 16.9635 161.319 17.3379C161.818 18.2119 162.442 19.3349 163.691 19.7093C165.812 20.3335 168.308 20.2081 170.555 19.9591C171.553 19.8347 172.426 19.8347 173.3 19.8347H173.675H175.048C174.673 20.209 174.174 20.7087 173.799 21.083C172.302 22.5804 170.804 24.0784 171.678 25.4515C172.302 26.45 173.425 26.6998 174.173 26.9488C174.922 27.0733 175.172 27.1986 175.172 27.3231C175.172 27.4476 175.047 27.9473 174.798 28.3216C174.423 29.0703 173.799 29.9443 173.924 31.1918C174.048 32.0658 174.422 32.6892 174.672 33.3133C174.922 33.8121 175.171 34.1873 175.171 34.5617C175.545 36.5587 175.67 38.9301 175.545 40.9262C175.296 44.1708 174.547 47.2908 173.798 50.5361C173.424 51.9089 173.174 53.4062 172.8 54.9045C172.425 57.026 172.55 59.273 172.675 61.2691C172.8 62.6419 172.8 63.8903 172.8 65.1377C172.8 65.7618 172.675 66.386 172.55 67.1347C172.425 68.632 172.176 70.1301 172.425 71.6275C172.55 72.8758 173.174 73.8734 173.674 74.872C174.048 75.6207 174.422 76.3694 174.548 76.9935C175.047 79.4893 175.296 81.9851 175.422 84.7309C175.546 85.9793 175.546 87.2267 175.672 88.4751C175.796 89.5981 175.922 90.5966 176.171 91.5951C176.42 92.968 176.669 94.3407 176.669 95.5892C176.669 96.3378 177.294 96.962 178.042 96.962C178.791 96.962 179.415 96.3378 179.415 95.5892C179.664 94.0892 179.414 92.5911 179.164 91.2183L179.165 91.2176ZM155.328 65.8832C154.704 65.8832 154.205 65.8832 153.705 66.0077C151.958 66.2576 149.837 67.8793 147.964 69.6265C142.473 74.618 134.86 75.4921 127.996 75.7419C124.377 75.3676 120.757 75.2431 117.387 75.1177C115.266 75.1177 113.019 74.9932 110.773 74.8679C108.277 74.7434 105.906 74.9923 103.534 75.2422C102.536 75.3667 101.537 75.492 100.414 75.6165C99.2914 75.741 98.1685 75.492 97.0446 75.2422C96.4204 75.1177 95.6718 74.9923 94.9231 74.8679C94.299 74.7434 93.3005 74.7434 92.3019 74.618C91.9275 74.618 91.4279 74.4935 91.0535 74.4935H91.4279C93.9236 74.1192 96.4194 73.8694 99.5394 72.7464C101.911 71.8724 104.157 71.9977 106.653 71.9977H110.272L111.895 71.8732C116.013 71.6234 120.256 71.3744 124.499 70.9992C128.868 70.6249 133.61 69.252 138.477 67.7546C139.101 67.6301 139.725 67.3803 140.348 67.1304C142.345 66.5063 144.093 65.8821 146.09 65.7576C146.838 65.6331 147.837 65.5078 148.835 65.3833C151.831 65.0089 155.824 64.5092 157.946 65.1334C158.07 65.1334 158.195 65.2579 158.57 65.2579C158.073 65.7585 157.075 65.8829 155.328 65.8829L155.328 65.8832ZM111.523 49.1602C113.52 47.9119 116.266 48.0372 118.886 48.1617H120.883H121.258C127.123 48.1617 133.613 48.1617 138.855 50.5332C140.726 51.4072 142.349 52.6546 144.096 54.0276C145.594 55.1506 147.092 56.399 148.714 57.2721C149.712 57.771 151.209 58.1462 152.957 58.645C154.579 59.0193 158.074 60.0178 158.448 60.7665C158.698 61.3906 159.197 61.8895 159.696 62.2638C159.821 62.3883 160.071 62.6381 160.195 62.7626C159.945 62.7626 159.321 62.7626 158.947 62.6381C156.201 61.7641 151.958 62.2638 148.588 62.7626C147.59 62.7626 146.591 62.8871 145.967 62.8871C143.721 63.1369 141.599 63.7611 139.603 64.3844C138.978 64.6343 138.354 64.7588 137.855 65.0086C133.987 66.1316 128.745 67.7542 124.377 68.1286C120.259 68.5029 115.891 68.7528 111.897 69.0026L110.151 69.1289C109.028 69.2534 107.779 69.2534 106.656 69.1289C104.035 69.1289 101.415 69.1289 98.6691 70.1274C95.7989 71.1259 93.5521 71.5002 91.0563 71.7501C89.0593 71.9999 86.9379 72.2489 84.4419 72.9984C84.0676 73.1229 83.5679 73.3727 82.196 74.3712C81.3219 74.9954 79.8245 76.1184 78.8261 76.6172C78.5763 76.3674 78.3273 76.1184 78.0775 75.7432C75.956 73.4972 74.0834 71.2504 75.3319 69.1288C77.2035 66.633 81.8217 65.759 86.3145 64.8858C90.3085 64.1371 94.0519 63.3885 96.5485 61.516C97.7969 60.642 99.2941 59.7688 100.917 59.0202C103.288 57.8972 105.66 56.6488 107.407 54.9018C108.281 54.0278 108.78 53.0302 109.404 52.0316C110.151 50.7833 110.65 49.6593 111.524 49.1606L111.523 49.1602ZM111.898 37.9287C113.52 37.8042 115.267 38.0532 117.015 38.303H117.264C117.015 38.8018 116.64 40.1747 117.639 40.9243C117.889 41.1741 118.263 41.2986 118.513 41.2986C118.887 41.2986 119.261 41.1741 119.636 40.9243C120.135 40.4254 120.384 39.5514 120.384 38.8028C121.383 38.9273 122.256 39.0526 123.006 39.1771C122.756 39.5514 122.007 40.1756 120.634 41.0488L120.51 41.1732C118.763 42.2962 115.892 42.2962 113.895 41.2977C112.522 40.5491 111.898 39.4261 111.898 37.9288L111.898 37.9287Z" fill="black"/>
<path d="M135.36 42.7953C136.983 44.9168 139.354 47.4126 143.597 47.4126H144.346C148.215 47.1628 152.333 42.171 153.581 39.55C153.706 39.4255 153.706 39.3002 153.706 39.1757C155.203 38.9258 156.576 38.8014 157.7 38.8014C158.449 38.8014 159.073 38.1772 159.073 37.4285C159.073 36.6798 158.449 36.0557 157.7 36.0557C155.328 36.0557 151.584 36.6798 148.964 37.1787C148.465 37.3032 147.966 37.3031 147.467 37.4285C146.218 37.6784 145.095 37.6784 143.723 37.6784C142.474 37.6784 141.101 37.6784 139.729 37.9282H138.854C136.109 38.0527 134.362 38.178 134.112 39.6754C133.862 40.9237 134.736 41.9213 135.235 42.5455C135.236 42.5455 135.236 42.67 135.36 42.7954L135.36 42.7953ZM138.979 40.6738C139.603 40.6738 139.853 40.6738 140.102 40.5493C141.225 40.4248 142.473 40.4248 143.721 40.4248H144.719C144.595 40.5493 144.469 40.6747 144.345 40.7991C144.095 41.1735 143.971 41.4233 144.095 41.7977C143.845 42.4218 144.22 43.1705 144.844 43.4203C145.094 43.5448 145.218 43.5448 145.468 43.5448C145.592 43.5448 145.842 43.6693 145.967 43.6693C146.217 43.6693 146.466 43.5448 146.715 43.4194C146.84 43.295 147.714 42.6708 147.214 41.5478C147.09 41.049 146.84 40.6738 146.466 40.4248H146.341C146.965 40.4248 147.464 40.3003 148.088 40.3003C148.587 40.1758 149.087 40.1758 149.586 40.0505C149.835 40.0505 150.21 39.926 150.584 39.926C148.961 42.1719 146.341 44.7932 144.469 44.9175C141.723 45.042 139.851 44.0435 137.854 41.4231L137.48 41.0488C137.856 40.6736 138.48 40.6736 138.979 40.6736V40.6738Z" fill="black"/>
<path d="M137.482 34.9329C138.48 34.6831 139.479 34.5586 140.477 34.4341C141.101 34.3096 141.725 34.3096 142.349 34.1843C145.344 33.6854 152.333 31.8128 154.829 26.1971C155.078 25.4484 154.829 24.6997 154.08 24.4499C153.331 24.2001 152.583 24.4499 152.333 25.1986C150.336 29.6914 143.847 31.1887 141.974 31.5631C141.35 31.6876 140.851 31.6876 140.227 31.813C139.104 31.9375 137.981 32.0628 136.733 32.4372C135.235 32.936 134.361 33.81 133.488 34.5587C132.74 35.1828 132.115 35.807 131.367 36.056C130.618 36.3058 130.244 37.0545 130.493 37.8031C130.743 38.4273 131.241 38.6772 131.741 38.6772C131.866 38.6772 131.991 38.6772 132.115 38.5527C133.488 38.0539 134.361 37.3043 135.235 36.5557C135.859 35.8061 136.608 35.1828 137.481 34.933L137.482 34.9329Z" fill="black"/>
<path d="M129.12 56.1489C129.494 56.1489 129.869 56.0244 130.118 55.7745C130.243 55.65 130.243 55.5247 130.368 55.4002H130.618C131.367 55.4002 131.991 54.776 131.991 54.0273C131.991 52.9043 131.617 52.1557 130.743 51.9059C129.494 51.5315 128.746 52.7799 128.121 53.653C128.121 53.7775 127.997 53.7775 127.997 53.9029C127.623 54.4017 127.623 55.2757 128.121 55.7745C128.496 56.0244 128.87 56.1488 129.12 56.1488L129.12 56.1489Z" fill="black"/>
<path d="M111.898 54.1521C111.898 54.402 112.022 54.6509 112.022 54.7763C112.272 55.4005 112.771 55.6503 113.271 55.6503C113.395 55.6503 113.521 55.6503 113.645 55.5258C114.394 55.276 114.768 54.5273 114.519 53.7787V53.5288C114.395 52.9047 114.145 51.7817 113.271 51.4073C113.021 51.2829 112.272 51.033 111.524 51.4073C110.899 51.7817 110.525 52.5303 110.899 53.279C111.149 53.7778 111.524 54.0277 111.898 54.1521L111.898 54.1521Z" fill="black"/>
<path d="M63.3432 184.307V182.235C64.2765 182.235 65.0045 181.955 65.5272 181.395C66.0499 180.835 66.3112 180.051 66.3112 179.043H68.8592C68.8592 180.051 68.6165 180.957 68.1312 181.759C67.6645 182.543 67.0112 183.169 66.1712 183.635C65.3312 184.083 64.3885 184.307 63.3432 184.307ZM60.9072 193.575V191.363H63.6232V193.575H60.9072ZM60.9072 184.447V182.235H63.6232V184.447H60.9072ZM66.5912 188.339V187.667H69.1392V188.339H66.5912ZM66.5912 187.695C66.5912 186.669 66.3299 185.875 65.8072 185.315C65.2845 184.737 64.5565 184.447 63.6232 184.447V182.375C64.6685 182.375 65.6112 182.609 66.4512 183.075C67.2912 183.542 67.9445 184.177 68.4112 184.979C68.8965 185.782 69.1392 186.687 69.1392 187.695H66.5912ZM60.9072 176.047V173.835H63.3432V176.047H60.9072ZM68.8592 179.071H66.3112C66.3112 178.101 66.0499 177.354 65.5272 176.831C65.0045 176.309 64.2765 176.047 63.3432 176.047V173.835C64.4259 173.835 65.3779 174.059 66.1992 174.507C67.0392 174.937 67.6925 175.553 68.1592 176.355C68.6259 177.139 68.8592 178.045 68.8592 179.071ZM69.1392 188.311C69.1392 189.357 68.9059 190.271 68.4392 191.055C67.9725 191.839 67.3192 192.455 66.4792 192.903C65.6579 193.351 64.7059 193.575 63.6232 193.575V191.363C64.5565 191.363 65.2845 191.102 65.8072 190.579C66.3299 190.038 66.5912 189.282 66.5912 188.311H69.1392ZM59.0592 193.575V173.835H61.6072V193.575H59.0592ZM74.9028 193.575V191.363H82.6588V193.575H74.9028ZM75.3228 184.867V182.599H80.9788V184.867H75.3228ZM73.4748 173.835H76.0228V193.575H73.4748V173.835ZM75.1828 173.835H82.3788V176.047H75.1828V173.835ZM87.6914 184.811V182.627H96.2594V184.811H87.6914ZM95.4194 193.575V173.835H97.9674V193.575H95.4194ZM86.8514 193.575V173.835H89.3994V193.575H86.8514ZM104.704 189.627V187.443H111.872V189.627H104.704ZM109.212 173.835L104.396 193.575H101.876L106.692 173.835H109.212ZM109.268 173.835L114.084 193.575H111.592L106.748 173.835H109.268ZM120.754 193.575L125.598 173.835H128.09L123.274 193.575H120.754ZM120.698 193.575L115.882 173.835H118.402L123.218 193.575H120.698ZM140.302 188.759V178.623H142.85V188.759H140.302ZM131.79 188.759V178.623H134.338V188.759H131.79ZM142.85 178.651H140.302C140.302 177.681 140.032 176.934 139.49 176.411C138.968 175.889 138.24 175.627 137.306 175.627V173.415C138.408 173.415 139.369 173.639 140.19 174.087C141.03 174.517 141.684 175.133 142.15 175.935C142.617 176.719 142.85 177.625 142.85 178.651ZM131.79 178.651C131.79 177.625 132.024 176.719 132.49 175.935C132.957 175.133 133.61 174.517 134.45 174.087C135.29 173.639 136.252 173.415 137.334 173.415V175.627C136.401 175.627 135.664 175.889 135.122 176.411C134.6 176.934 134.338 177.681 134.338 178.651H131.79ZM142.85 188.731C142.85 189.777 142.617 190.691 142.15 191.475C141.684 192.259 141.03 192.875 140.19 193.323C139.369 193.771 138.408 193.995 137.306 193.995V191.783C138.24 191.783 138.968 191.522 139.49 190.999C140.032 190.458 140.302 189.702 140.302 188.731H142.85ZM131.79 188.731H134.338C134.338 189.702 134.6 190.458 135.122 190.999C135.664 191.522 136.401 191.783 137.334 191.783V193.995C136.252 193.995 135.29 193.771 134.45 193.323C133.61 192.875 132.957 192.259 132.49 191.475C132.024 190.691 131.79 189.777 131.79 188.731ZM154.999 193.575L151.415 183.943H154.019L157.603 193.575H154.999ZM149.119 185.203V183.019H151.975V185.203H149.119ZM149.119 176.047V173.835H151.975V176.047H149.119ZM154.943 179.995V179.043H157.491V179.995H154.943ZM157.491 179.071H154.943C154.943 178.101 154.672 177.354 154.131 176.831C153.608 176.309 152.88 176.047 151.947 176.047V173.835C153.048 173.835 154.01 174.059 154.831 174.507C155.671 174.937 156.324 175.553 156.791 176.355C157.258 177.139 157.491 178.045 157.491 179.071ZM157.491 179.967C157.491 180.994 157.258 181.909 156.791 182.711C156.324 183.495 155.671 184.111 154.831 184.559C154.01 184.989 153.048 185.203 151.947 185.203V183.019C152.88 183.019 153.608 182.749 154.131 182.207C154.672 181.666 154.943 180.919 154.943 179.967H157.491ZM147.467 193.575V173.835H150.015V193.575H147.467ZM162.081 193.575V173.835H164.629V193.575H162.081ZM171.669 189.627V187.443H178.837V189.627H171.669ZM176.177 173.835L171.361 193.575H168.841L173.657 173.835H176.177ZM176.233 173.835L181.049 193.575H178.557L173.713 173.835H176.233ZM186.543 193.575V191.363H193.739V193.575H186.543ZM184.835 193.575V173.835H187.383V193.575H184.835Z" fill="black"/>
</svg>
