<svg width="60" height="60" viewBox="0 0 60 60" fill="none" xmlns="http://www.w3.org/2000/svg">
<g clip-path="url(#clip0_85_1889)">
<path d="M19.9108 59.5001C25.3848 59.5001 29.8275 55.0574 29.8275 49.5834V39.6667H19.9108C14.4368 39.6667 9.99414 44.1094 9.99414 49.5834C9.99414 55.0574 14.4368 59.5001 19.9108 59.5001Z" fill="#0ACF83"/>
<path d="M9.99414 29.7499C9.99414 24.2759 14.4368 19.8333 19.9108 19.8333H29.8275V39.6666H19.9108C14.4368 39.6666 9.99414 35.2239 9.99414 29.7499Z" fill="#A259FF"/>
<path d="M9.99414 9.91668C9.99414 4.44267 14.4368 0 19.9108 0H29.8275V19.8334H19.9108C14.4368 19.8334 9.99414 15.3907 9.99414 9.91668Z" fill="#F24E1E"/>
<path d="M29.8276 0H39.7443C45.2183 0 49.661 4.44267 49.661 9.91668C49.661 15.3907 45.2183 19.8334 39.7443 19.8334H29.8276V0Z" fill="#FF7262"/>
<path d="M49.661 29.7499C49.661 35.2239 45.2183 39.6666 39.7443 39.6666C34.2703 39.6666 29.8276 35.2239 29.8276 29.7499C29.8276 24.2759 34.2703 19.8333 39.7443 19.8333C45.2183 19.8333 49.661 24.2759 49.661 29.7499Z" fill="#1ABCFE"/>
</g>
<defs>
<clipPath id="clip0_85_1889">
<rect width="59.5001" height="59.5001" fill="white"/>
</clipPath>
</defs>
</svg>
