<svg width="58" height="58" viewBox="0 0 58 58" fill="none" xmlns="http://www.w3.org/2000/svg">
<g clip-path="url(#clip0_85_1890)">
<path fill-rule="evenodd" clip-rule="evenodd" d="M8.04654 52.1613L3.396 0H54.4974L49.842 52.1531L28.9154 57.9546L8.04654 52.1613Z" fill="#E44D26"/>
<path fill-rule="evenodd" clip-rule="evenodd" d="M28.9468 53.5201L45.8564 48.8321L49.8348 4.26489H28.9468V53.5201Z" fill="#F16529"/>
<path d="M20.4814 23.6108H28.9468V30.0081H14.6308L12.9053 10.6624H28.9468V17.0598H19.8968L20.4814 23.6108Z" fill="#EBEBEB"/>
<path d="M28.9188 40.2329L28.9468 40.2254V46.8814L28.9174 46.8896L15.8129 43.2517L14.9166 33.2069H21.3385L21.794 38.3091L28.9188 40.2329Z" fill="#EBEBEB"/>
<path d="M28.9248 10.6624H44.9503L44.3775 17.0598H28.9248V10.6624Z" fill="white"/>
<path d="M28.9248 30.0081V23.6108H43.7954L43.6393 25.3287L42.0397 43.2517L28.9248 46.8865V40.2308L36.0599 38.305L36.8024 30.0081H28.9248Z" fill="white"/>
</g>
<defs>
<clipPath id="clip0_85_1890">
<rect width="57.9546" height="57.9546" fill="white"/>
</clipPath>
</defs>
</svg>
