<svg width="59" height="59" viewBox="0 0 59 59" fill="none" xmlns="http://www.w3.org/2000/svg">
<g clip-path="url(#clip0_85_1888)">
<path fill-rule="evenodd" clip-rule="evenodd" d="M0.687988 0.688232H58.0389V58.0392H0.687988V0.688232V0.688232Z" fill="#F7DF1E"/>
<path fill-rule="evenodd" clip-rule="evenodd" d="M15.7677 48.6148L20.1566 45.9587C21.0033 47.46 21.7735 48.7302 23.621 48.7302C25.392 48.7302 26.5085 48.0374 26.5085 45.3428V27.0178H31.898V45.419C31.898 51.0012 28.6259 53.542 23.8521 53.542C19.5406 53.542 17.0379 51.309 15.7676 48.6144" fill="black"/>
<path fill-rule="evenodd" clip-rule="evenodd" d="M34.8257 48.0373L39.214 45.4965C40.3692 47.3831 41.8707 48.7689 44.5268 48.7689C46.76 48.7689 48.184 47.6524 48.184 46.1124C48.184 44.2646 46.7212 43.61 44.2573 42.5325L42.9103 41.9546C39.0218 40.2995 36.4423 38.2207 36.4423 33.8319C36.4423 29.7896 39.5221 26.7097 44.3345 26.7097C47.7608 26.7097 50.2246 27.9033 51.9953 31.0216L47.799 33.7163C46.875 32.061 45.8744 31.4067 44.3346 31.4067C42.7561 31.4067 41.7551 32.4076 41.7551 33.7163C41.7551 35.3332 42.7561 35.9878 45.0657 36.9888L46.413 37.5662C50.9943 39.5297 53.5737 41.5314 53.5737 46.0354C53.5737 50.8864 49.7625 53.5425 44.6424 53.5425C39.6378 53.5425 36.4039 51.1558 34.8258 48.0373" fill="black"/>
</g>
<defs>
<clipPath id="clip0_85_1888">
<rect width="58.7274" height="58.7274" fill="white"/>
</clipPath>
</defs>
</svg>
