<svg width="60" height="60" viewBox="0 0 60 60" fill="none" xmlns="http://www.w3.org/2000/svg">
<rect x="0.818359" y="0.636475" width="58.7976" height="58.7976" fill="#F5F5F5"/>
<path d="M29.5426 6.24219L30.7776 8.56178C31.0552 8.98983 31.356 9.36872 31.7103 9.72157C32.7491 10.7473 33.7173 11.8422 34.6084 12.9985C36.7009 15.7461 38.1124 18.7975 39.1203 22.0975C39.7248 24.1134 40.0531 26.1814 40.0777 28.2725C40.1789 34.5241 38.0357 39.8921 33.7147 44.3535C33.0118 45.0609 32.2525 45.71 31.4442 46.2942C31.0162 46.2942 30.8137 45.9659 30.6373 45.6636C30.316 45.1032 30.1022 44.4877 30.0068 43.8488C29.8549 43.0924 29.7552 42.3361 29.8043 41.5552V41.2023C29.7696 41.1271 29.3922 6.42006 29.5426 6.24219Z" fill="#599636"/>
<path d="M29.5428 6.16547C29.4922 6.06424 29.4416 6.14089 29.3909 6.19006C29.4155 6.6962 29.2391 7.1474 28.9629 7.57834C28.6592 8.0064 28.2572 8.33467 27.8537 8.68752C25.6122 10.6282 23.8479 12.9724 22.4351 15.5942C20.5551 19.1228 19.5862 22.9044 19.3114 26.8856C19.1856 28.3216 19.7655 33.3889 20.2181 34.8509C21.4531 38.7323 23.6715 41.9847 26.545 44.8075C27.2507 45.4872 28.0056 46.1177 28.7865 46.7236C29.0135 46.7236 29.0381 46.5212 29.0901 46.3708C29.1897 46.049 29.2656 45.7203 29.3172 45.3874L29.8233 41.6072L29.5428 6.16547Z" fill="#6CAC48"/>
<path d="M30.7779 47.8297C30.8286 47.2513 31.1062 46.7712 31.4085 46.2925C31.1048 46.1667 30.8792 45.9165 30.7027 45.6374C30.5506 45.3731 30.4247 45.0946 30.3268 44.8059C29.9739 43.7473 29.8987 42.6367 29.7975 41.555V40.8999C29.6717 41.0011 29.6456 41.8572 29.6456 41.9845C29.572 43.1278 29.4203 44.2647 29.1915 45.3872C29.1163 45.8413 29.0657 46.2939 28.7866 46.6974C28.7866 46.748 28.7866 46.7986 28.8112 46.8738C29.2653 48.2101 29.3897 49.5709 29.4663 50.9577V51.4638C29.4663 52.0683 29.4417 51.941 29.9435 52.1435C30.146 52.2187 30.3716 52.2447 30.574 52.3951C30.7259 52.3951 30.7505 52.2693 30.7505 52.1681L30.6753 51.3366V49.017C30.6507 48.6121 30.7259 48.2101 30.7765 47.8312L30.7779 47.8297Z" fill="#C2BFBF"/>
</svg>
