<svg width="59" height="59" viewBox="0 0 59 59" fill="none" xmlns="http://www.w3.org/2000/svg">
<g clip-path="url(#clip0_85_1895)">
<g clip-path="url(#clip1_85_1895)">
<g clip-path="url(#clip2_85_1895)">
<path fill-rule="evenodd" clip-rule="evenodd" d="M26.3588 58.874C27.2472 59.3876 28.3431 59.3876 29.2316 58.874L53.0326 45.1397C53.9226 44.6266 54.4705 43.6778 54.4705 42.6498V15.1601C54.4705 14.133 53.9224 13.1848 53.034 12.6704L29.2334 -1.07503C28.3431 -1.5886 27.2472 -1.5886 26.3572 -1.07503L2.56277 12.6704C1.67354 13.1846 1.12549 14.1332 1.12549 15.1601V42.6514C1.12549 43.6778 1.67354 44.6264 2.56337 45.1395L26.3586 58.8738" fill="#76D04B"/>
<path fill-rule="evenodd" clip-rule="evenodd" d="M43.2069 22.3469L42.1455 21.7361C43.7777 19.3287 44.753 15.7092 43.53 10.2979C43.53 10.2979 40.7758 18.017 35.2391 17.7613L28.7562 14.0306C28.5117 13.8855 28.2376 13.8107 27.9606 13.7994H27.8112C27.5347 13.8109 27.2611 13.8857 27.0132 14.0306L20.5297 17.7613C14.9936 18.0178 12.2384 10.2979 12.2384 10.2979C11.0148 15.709 11.9917 19.3285 13.6235 21.7361L12.5623 22.3471C12.0232 22.6578 11.688 23.2348 11.688 23.8641L11.7199 46.257C11.7199 46.5694 11.8817 46.8588 12.1559 47.0109C12.4238 47.1727 12.7554 47.1727 13.0228 47.0109L21.611 42.0932C22.1545 41.7703 22.4849 41.201 22.4849 40.5786V30.1173C22.4849 29.4935 22.8154 28.9151 23.3564 28.606L27.0134 26.5001C27.2858 26.3415 27.584 26.2644 27.8883 26.2644C28.1858 26.2644 28.4917 26.3415 28.7566 26.4999L32.4124 28.6058C32.9536 28.9147 33.2853 29.4933 33.2853 30.1169V40.5782C33.2853 41.2006 33.6201 41.7743 34.1601 42.0928L42.7462 47.0105C43.0156 47.1719 43.352 47.1719 43.619 47.0105C43.8851 46.8584 44.0525 46.5688 44.0525 46.2564L44.0804 23.8635C44.0798 23.2338 43.7496 22.6568 43.2071 22.3465L43.2069 22.3469V22.3469Z" fill="#4F4D3F"/>
</g>
</g>
</g>
<defs>
<clipPath id="clip0_85_1895">
<rect width="58.7274" height="58.7274" fill="white"/>
</clipPath>
<clipPath id="clip1_85_1895">
<rect width="53.4882" height="60.9205" fill="white" transform="translate(1.12549 -1.46021)"/>
</clipPath>
<clipPath id="clip2_85_1895">
<rect width="53.4097" height="60.9205" fill="white" transform="translate(1.12549 -1.46021)"/>
</clipPath>
</defs>
</svg>
