<svg width="56" height="58" viewBox="0 0 56 58" fill="none" xmlns="http://www.w3.org/2000/svg">
<g clip-path="url(#clip0_85_3577)">
<path d="M55.771 32.5709C57.7307 17.1632 46.8966 3.07703 31.5834 1.1089C16.2701 -0.859228 2.18865 10.0217 0.229005 25.4013C-1.73064 40.7808 9.10341 54.8951 24.4167 56.8913C39.7579 58.8595 53.7834 47.9785 55.771 32.5709Z" fill="#FF6C37"/>
<path d="M38.1062 18.9344L26.2923 30.7994L22.9609 27.4536C34.5788 15.7854 35.7266 16.7976 38.1062 18.9344Z" fill="white"/>
<path d="M26.2922 31.0805C26.2082 31.0805 26.1522 31.0524 26.0962 30.9962L22.7368 27.6504C22.6248 27.5379 22.6248 27.3692 22.7368 27.2568C34.5507 15.3917 35.7825 16.5164 38.274 18.7657C38.33 18.8219 38.358 18.8781 38.358 18.9625C38.358 19.0468 38.33 19.1031 38.274 19.1593L26.4601 30.9962C26.4322 31.0524 26.3482 31.0805 26.2922 31.0805ZM23.3527 27.4536L26.2922 30.4058L37.6861 18.9625C35.6145 17.1068 34.2147 16.5445 23.3527 27.4536Z" fill="#FF6C37"/>
<path d="M29.6794 34.2014L26.46 30.968L38.2738 19.103C41.4373 22.3083 36.7061 27.5098 29.6794 34.2014Z" fill="white"/>
<path d="M29.6799 34.4827C29.5959 34.4827 29.5399 34.4546 29.4839 34.3984L26.2645 31.165C26.2085 31.1088 26.2085 31.0525 26.2085 30.9682C26.2085 30.8838 26.2365 30.8276 26.2925 30.7714L38.1064 18.9064C38.2183 18.7939 38.3863 18.7939 38.4983 18.9064C39.2262 19.5812 39.6181 20.5371 39.5901 21.5212C39.5341 24.6421 36.0067 28.6064 29.9038 34.3984C29.8198 34.4546 29.7359 34.4827 29.6799 34.4827ZM26.8524 30.9682C28.6441 32.7957 29.3999 33.5268 29.6799 33.8079C34.383 29.3093 38.9462 24.6983 38.9742 21.5212C39.0022 20.7902 38.7222 20.0591 38.2463 19.4968L26.8524 30.9682Z" fill="#FF6C37"/>
<path d="M23.0167 27.538L25.3963 29.9278C25.4523 29.9841 25.4523 30.0403 25.3963 30.0965C25.3683 30.1247 25.3683 30.1247 25.3403 30.1247L20.4132 31.1931C20.1613 31.2212 19.9373 31.0525 19.8813 30.7994C19.8533 30.6589 19.9093 30.5183 19.9933 30.4339L22.8488 27.5661C22.9048 27.5099 22.9887 27.4817 23.0167 27.538Z" fill="white"/>
<path d="M20.3294 31.4741C19.9095 31.4741 19.6016 31.1368 19.6016 30.715C19.6016 30.5182 19.6855 30.3214 19.8255 30.1808L22.681 27.313C22.849 27.1724 23.0729 27.1724 23.2409 27.313L25.6205 29.7028C25.7884 29.8434 25.7884 30.0965 25.6205 30.2652C25.5645 30.3214 25.5085 30.3495 25.4245 30.3776L20.4974 31.446C20.4414 31.446 20.3854 31.4741 20.3294 31.4741ZM22.933 27.8472L20.1895 30.6025C20.1335 30.6588 20.1055 30.7431 20.1615 30.8275C20.1895 30.9118 20.2734 30.9399 20.3574 30.9118L24.9766 29.8996L22.933 27.8472Z" fill="#FF6C37"/>
<path d="M44.349 12.3552C42.5573 10.612 39.6738 10.6682 37.9381 12.4958C36.2024 14.3233 36.2584 17.1912 38.0781 18.9344C39.5618 20.3683 41.8014 20.6214 43.5651 19.5529L40.3737 16.3477L44.349 12.3552Z" fill="white"/>
<path d="M41.2136 20.4808C38.5541 20.4808 36.3984 18.3159 36.3984 15.6448C36.3984 12.9738 38.5541 10.8088 41.2136 10.8088C42.4454 10.8088 43.6491 11.2868 44.545 12.1584C44.601 12.2146 44.629 12.2709 44.629 12.3552C44.629 12.4396 44.601 12.4958 44.545 12.552L40.7657 16.3477L43.7331 19.328C43.8451 19.4405 43.8451 19.6092 43.7331 19.7217C43.7051 19.7498 43.7051 19.7498 43.6771 19.7779C42.9493 20.2277 42.0814 20.4808 41.2136 20.4808ZM41.2136 11.3993C38.862 11.3993 36.9583 13.3112 36.9863 15.6729C36.9863 18.0347 38.89 19.9466 41.2416 19.9185C41.8855 19.9185 42.5293 19.7779 43.1172 19.4686L40.1778 16.5445C40.1218 16.4883 40.0938 16.4321 40.0938 16.3477C40.0938 16.2634 40.1218 16.2071 40.1778 16.1509L43.9291 12.3833C43.1732 11.7367 42.2214 11.3993 41.2136 11.3993Z" fill="#FF6C37"/>
<path d="M44.4328 12.4398L44.3768 12.3835L40.3735 16.3479L43.537 19.525C43.8449 19.3282 44.1529 19.1033 44.4048 18.8503C46.1965 17.0789 46.1965 14.2111 44.4328 12.4398Z" fill="white"/>
<path d="M43.5651 19.8343C43.4811 19.8343 43.4251 19.8062 43.3692 19.7499L40.1777 16.5447C40.1217 16.4885 40.0938 16.4322 40.0938 16.3479C40.0938 16.2635 40.1217 16.2073 40.1777 16.1511L44.153 12.1586C44.265 12.0461 44.433 12.0461 44.5449 12.1586L44.6289 12.2148C46.5046 14.0986 46.5046 17.1351 44.6569 19.047C44.377 19.3282 44.069 19.5812 43.7331 19.778C43.6491 19.8062 43.5931 19.8343 43.5651 19.8343ZM40.7656 16.3479L43.5931 19.1876C43.8171 19.047 44.041 18.8502 44.209 18.6815C45.8047 17.0789 45.8887 14.4641 44.349 12.7771L40.7656 16.3479Z" fill="#FF6C37"/>
<path d="M38.5819 19.4407C37.9101 18.7659 36.8183 18.7659 36.1464 19.4407L25.5923 30.0405L27.356 31.8118L38.526 21.9711C39.2538 21.3526 39.3098 20.256 38.6939 19.525C38.6379 19.4969 38.6099 19.4688 38.5819 19.4407Z" fill="white"/>
<path d="M27.3278 32.0928C27.2438 32.0928 27.1878 32.0647 27.1318 32.0085L25.3682 30.2372C25.2562 30.1247 25.2562 29.956 25.3682 29.8435L35.9223 19.2438C36.7061 18.4565 37.9659 18.4565 38.7498 19.2438C39.5336 20.031 39.5336 21.2962 38.7498 22.0835C38.7218 22.1116 38.6938 22.1397 38.6658 22.1678L27.4958 32.0085C27.4678 32.0647 27.4118 32.0928 27.3278 32.0928ZM25.9841 30.0404L27.3558 31.4181L38.3298 21.7461C38.9457 21.24 39.0017 20.3122 38.4978 19.6936C37.9939 19.0751 37.0701 19.0188 36.4542 19.5249C36.4262 19.553 36.3982 19.5812 36.3422 19.6093L25.9841 30.0404Z" fill="#FF6C37"/>
<path d="M17.5016 42.1023C17.3897 42.1585 17.3337 42.271 17.3617 42.3835L17.8376 44.4078C17.9496 44.689 17.7816 45.0264 17.4737 45.1107C17.2497 45.1951 16.9977 45.1107 16.8578 44.942L13.7783 41.8774L23.8285 31.7837L27.2999 31.8399L29.6515 34.2017C29.0916 34.6797 25.7042 37.9692 17.5016 42.1023Z" fill="white"/>
<path d="M17.278 45.3918C17.0541 45.3918 16.8301 45.3075 16.6901 45.1388L13.6387 42.0741C13.5827 42.0179 13.5547 41.9616 13.5547 41.8773C13.5547 41.793 13.5827 41.7367 13.6387 41.6805L23.6889 31.5868C23.7449 31.5306 23.8288 31.5024 23.8848 31.5024L27.3562 31.5587C27.4402 31.5587 27.4962 31.5868 27.5522 31.643L29.9037 34.0048C29.9597 34.061 29.9877 34.1454 29.9877 34.2297C29.9877 34.3141 29.9597 34.3703 29.8757 34.4265L29.6798 34.5952C26.7123 37.21 22.681 39.8248 17.6699 42.3272L18.1459 44.3234C18.2298 44.6889 18.0619 45.0825 17.7259 45.2794C17.558 45.3637 17.418 45.3918 17.278 45.3918ZM14.1986 41.8773L17.0821 44.7451C17.166 44.8857 17.334 44.942 17.474 44.8576C17.614 44.7733 17.6699 44.6046 17.586 44.464L17.11 42.4396C17.0541 42.1866 17.166 41.9616 17.39 41.8492C22.3451 39.3468 26.3484 36.7602 29.2879 34.2016L27.2162 32.121L23.9968 32.0648L14.1986 41.8773Z" fill="#FF6C37"/>
<path d="M11.3987 44.2952L13.8063 41.8772L17.3896 45.4761L11.6787 45.0824C11.4267 45.0543 11.2587 44.8294 11.2867 44.5764C11.2867 44.4639 11.3147 44.3514 11.3987 44.2952Z" fill="white"/>
<path d="M17.3898 45.7291L11.6509 45.3354C11.2309 45.3073 10.951 44.9418 10.979 44.5201C11.007 44.3514 11.063 44.1827 11.2029 44.0702L13.6105 41.6522C13.7225 41.5398 13.8905 41.5398 14.0024 41.6522L17.5858 45.2511C17.6698 45.3354 17.6978 45.4479 17.6418 45.5604C17.5858 45.6728 17.5018 45.7291 17.3898 45.7291ZM13.8065 42.2708L11.5949 44.4919C11.5109 44.5482 11.5109 44.6888 11.5949 44.745C11.6229 44.7731 11.6509 44.8012 11.7068 44.8012L16.662 45.1386L13.8065 42.2708Z" fill="#FF6C37"/>
<path d="M22.8488 33.0769C22.6808 33.0769 22.5688 32.9364 22.5688 32.7958C22.5688 32.7114 22.5968 32.6552 22.6528 32.599L25.3683 29.8717C25.4803 29.7592 25.6483 29.7592 25.7603 29.8717L27.524 31.643C27.6079 31.7274 27.6359 31.8117 27.6079 31.9242C27.5799 32.0085 27.496 32.0929 27.384 32.121L22.9048 33.0769C22.8768 33.0769 22.8488 33.0769 22.8488 33.0769ZM25.5643 30.4621L23.7166 32.3178L26.7401 31.6711L25.5643 30.4621Z" fill="#FF6C37"/>
<path d="M27.3 31.8396L24.2205 32.5144C23.9966 32.5707 23.7726 32.4301 23.7166 32.2051C23.6886 32.0646 23.7166 31.924 23.8286 31.8115L25.5363 30.0964L27.3 31.8396Z" fill="white"/>
<path d="M24.1647 32.7958C23.7728 32.7958 23.4648 32.4865 23.4648 32.0929C23.4648 31.8961 23.5488 31.7274 23.6608 31.5868L25.3685 29.8717C25.4805 29.7592 25.6485 29.7592 25.7604 29.8717L27.5241 31.643C27.6081 31.7274 27.6361 31.8117 27.6081 31.9242C27.5801 32.0085 27.4961 32.0929 27.3841 32.121L24.3047 32.7958C24.2487 32.7958 24.1927 32.7958 24.1647 32.7958ZM25.5645 30.4621L24.0527 31.9804C23.9967 32.0366 23.9967 32.0929 24.0247 32.1491C24.0527 32.2053 24.1087 32.2335 24.1927 32.2335L26.7682 31.6711L25.5645 30.4621Z" fill="#FF6C37"/>
<path d="M44.4611 15.1387C44.4051 14.97 44.2091 14.8857 44.0412 14.9419C43.8732 14.9981 43.7892 15.195 43.8452 15.3637C43.8452 15.3918 43.8732 15.4199 43.8732 15.448C44.0412 15.7854 43.9852 16.2071 43.7612 16.5164C43.6492 16.657 43.6772 16.8538 43.7892 16.9663C43.9292 17.0787 44.1252 17.0506 44.2371 16.91C44.6571 16.3758 44.7411 15.701 44.4611 15.1387Z" fill="#FF6C37"/>
</g>
<defs>
<clipPath id="clip0_85_3577">
<rect width="56" height="58" fill="white"/>
</clipPath>
</defs>
</svg>
