<svg width="248" height="373" viewBox="0 0 248 373" fill="none" xmlns="http://www.w3.org/2000/svg">
<path d="M97.7452 188.787V178.623H100.293V188.787H97.7452ZM97.7452 178.623C97.7452 177.597 97.9785 176.691 98.4452 175.907C98.9119 175.105 99.5652 174.489 100.405 174.059C101.245 173.611 102.207 173.387 103.289 173.387V175.599C102.356 175.599 101.619 175.861 101.077 176.383C100.555 176.906 100.293 177.653 100.293 178.623H97.7452ZM97.7452 188.759H100.293C100.293 189.73 100.555 190.486 101.077 191.027C101.619 191.55 102.356 191.811 103.289 191.811V194.023C102.207 194.023 101.245 193.799 100.405 193.351C99.5652 192.903 98.9119 192.287 98.4452 191.503C97.9785 190.719 97.7452 189.805 97.7452 188.759ZM106.621 179.351C106.509 178.175 106.155 177.261 105.557 176.607C104.979 175.935 104.213 175.599 103.261 175.599V173.387C104.848 173.387 106.136 173.873 107.125 174.843C108.133 175.814 108.74 177.158 108.945 178.875L106.621 179.351ZM106.621 188.059L108.945 188.507C108.74 190.243 108.133 191.597 107.125 192.567C106.136 193.538 104.848 194.023 103.261 194.023V191.811C104.213 191.811 104.979 191.485 105.557 190.831C106.155 190.159 106.509 189.235 106.621 188.059ZM120.858 189.151C120.858 188.461 120.662 187.854 120.27 187.331C119.878 186.79 119.374 186.286 118.758 185.819C118.142 185.353 117.48 184.877 116.77 184.391C116.08 183.906 115.426 183.374 114.81 182.795C114.194 182.217 113.69 181.563 113.298 180.835C112.906 180.089 112.71 179.23 112.71 178.259H115.258C115.258 178.931 115.454 179.538 115.846 180.079C116.238 180.602 116.742 181.106 117.358 181.591C117.974 182.058 118.628 182.534 119.318 183.019C120.028 183.505 120.69 184.037 121.306 184.615C121.922 185.175 122.426 185.829 122.818 186.575C123.21 187.303 123.406 188.162 123.406 189.151H120.858ZM112.71 178.315C112.71 177.289 112.944 176.411 113.41 175.683C113.877 174.955 114.53 174.395 115.37 174.003C116.21 173.611 117.172 173.415 118.254 173.415V175.599C117.321 175.599 116.584 175.842 116.042 176.327C115.52 176.813 115.258 177.475 115.258 178.315H112.71ZM123.406 189.095C123.406 190.103 123.173 190.981 122.706 191.727C122.24 192.455 121.586 193.015 120.746 193.407C119.925 193.799 118.964 193.995 117.862 193.995V191.783C118.796 191.783 119.524 191.55 120.046 191.083C120.588 190.598 120.858 189.935 120.858 189.095H123.406ZM120.886 178.063C120.793 177.223 120.494 176.607 119.99 176.215C119.505 175.805 118.926 175.599 118.254 175.599V173.415C119.132 173.415 119.925 173.593 120.634 173.947C121.344 174.302 121.932 174.787 122.398 175.403C122.865 176.019 123.154 176.747 123.266 177.587L120.886 178.063ZM114.502 188.031C114.614 189.207 114.96 190.131 115.538 190.803C116.136 191.457 116.91 191.783 117.862 191.783V193.995C116.276 193.995 114.978 193.51 113.97 192.539C112.981 191.569 112.384 190.225 112.178 188.507L114.502 188.031ZM135.465 189.151C135.465 188.461 135.269 187.854 134.877 187.331C134.485 186.79 133.981 186.286 133.365 185.819C132.749 185.353 132.087 184.877 131.377 184.391C130.687 183.906 130.033 183.374 129.417 182.795C128.801 182.217 128.297 181.563 127.905 180.835C127.513 180.089 127.317 179.23 127.317 178.259H129.865C129.865 178.931 130.061 179.538 130.453 180.079C130.845 180.602 131.349 181.106 131.965 181.591C132.581 182.058 133.235 182.534 133.925 183.019C134.635 183.505 135.297 184.037 135.913 184.615C136.529 185.175 137.033 185.829 137.425 186.575C137.817 187.303 138.013 188.162 138.013 189.151H135.465ZM127.317 178.315C127.317 177.289 127.551 176.411 128.017 175.683C128.484 174.955 129.137 174.395 129.977 174.003C130.817 173.611 131.779 173.415 132.861 173.415V175.599C131.928 175.599 131.191 175.842 130.649 176.327C130.127 176.813 129.865 177.475 129.865 178.315H127.317ZM138.013 189.095C138.013 190.103 137.78 190.981 137.313 191.727C136.847 192.455 136.193 193.015 135.353 193.407C134.532 193.799 133.571 193.995 132.469 193.995V191.783C133.403 191.783 134.131 191.55 134.653 191.083C135.195 190.598 135.465 189.935 135.465 189.095H138.013ZM135.493 178.063C135.4 177.223 135.101 176.607 134.597 176.215C134.112 175.805 133.533 175.599 132.861 175.599V173.415C133.739 173.415 134.532 173.593 135.241 173.947C135.951 174.302 136.539 174.787 137.005 175.403C137.472 176.019 137.761 176.747 137.873 177.587L135.493 178.063ZM129.109 188.031C129.221 189.207 129.567 190.131 130.145 190.803C130.743 191.457 131.517 191.783 132.469 191.783V193.995C130.883 193.995 129.585 193.51 128.577 192.539C127.588 191.569 126.991 190.225 126.785 188.507L129.109 188.031Z" fill="black"/>
<g clip-path="url(#clip0_85_3513)">
<path d="M171.556 67.2425C171.298 67.2425 171.169 67.2425 170.91 67.3705C170.394 67.3705 169.232 66.9857 168.587 66.8577C167.683 66.6008 167.167 66.4728 166.78 66.4728C163.294 66.216 160.454 67.1146 157.227 69.2956C155.935 70.1942 154.774 71.0919 153.612 71.9905C151.676 73.402 149.869 74.8133 147.673 76.0968C145.737 77.2514 143.284 77.8931 141.09 78.4059C140.186 78.6628 139.282 78.9187 138.378 79.1756C130.375 81.6137 121.596 83.2819 111.785 84.1796C107.137 84.5645 101.715 84.9493 97.7137 83.4099C97.4553 83.2819 97.1978 83.2819 96.8096 83.153C96.164 83.0251 94.7439 82.5113 94.228 82.1265C93.9695 81.6136 93.3239 81.3568 92.8079 81.4847C92.1622 81.7416 91.9038 82.3833 92.0335 83.0242C92.4207 84.0507 93.9695 84.6924 96.0352 85.3332C96.1639 85.3332 96.2936 85.3332 96.2936 85.4612C96.2936 85.7181 96.4224 85.9741 96.552 86.2309C98.6178 88.669 99.9083 89.9514 101.199 91.2349C102.491 92.5184 104.04 93.2881 105.46 94.1858C106.234 94.5706 107.008 94.9555 107.654 95.4692C108.3 95.8541 108.945 95.9821 109.59 96.1109C109.849 96.1109 109.977 96.2389 110.106 96.2389C112.946 96.8806 115.528 97.2655 118.497 97.2655C119.53 97.2655 120.562 97.2655 121.724 97.1375C128.566 96.6247 135.925 95.2133 143.411 93.0312L143.927 92.9032C147.542 91.8767 151.802 90.5942 154.771 88.0273C157.87 85.3324 159.806 83.2802 161.742 79.046L162 78.5332C163.292 75.5823 165.356 71.3482 168.197 70.5783C168.584 70.4503 168.971 70.1935 169.101 69.8086C170.521 70.1935 171.166 70.1935 171.682 69.8086C172.069 69.5517 172.198 69.1669 172.198 68.782C172.717 67.7554 172.201 67.2426 171.555 67.2426L171.556 67.2425ZM100.167 86.3606C100.554 86.4886 101.071 86.4886 101.587 86.6175C101.587 87.0023 101.587 87.3872 101.716 87.9009V88.0289C101.329 87.5152 100.813 87.0014 100.167 86.3606V86.3606ZM103.91 86.7455H105.459C105.717 86.7455 106.879 86.6175 107.138 86.6175C106.75 86.7455 103.91 88.5417 103.91 88.6706C103.781 88.2849 103.91 87.1303 103.91 86.7455V86.7455ZM108.042 92.6472C107.654 92.3903 107.267 92.2623 106.88 92.0054C106.106 91.6206 105.331 91.1069 104.686 90.722C105.202 90.4651 107.654 88.4129 108.3 88.1561C108.299 88.285 108.042 92.3911 108.042 92.6473L108.042 92.6472ZM111.011 93.6737H110.752C110.881 93.1609 111.139 92.6472 111.398 92.1343L111.527 91.8775C111.527 91.7495 112.688 90.338 112.818 90.2092C113.334 90.722 113.334 92.7751 114.625 94.1865L114.884 94.4434C113.592 94.3154 112.302 94.0585 111.011 93.6737L111.011 93.6737ZM116.304 90.338C116.304 90.21 113.851 86.4885 113.722 86.3607C114.626 86.2327 118.111 85.9758 119.015 85.8478C118.757 86.4887 116.433 90.2091 116.304 90.3381V90.338ZM121.854 94.5721C120.95 94.5721 120.176 94.7001 119.273 94.7001C119.401 94.4432 119.401 94.1873 119.531 93.9304C119.531 93.6735 119.66 93.4176 119.79 93.2887C119.918 93.1607 120.048 92.9038 120.305 92.647C120.564 92.2621 120.951 92.0052 121.08 91.4924C121.08 91.3644 121.209 91.3644 121.209 91.2355C121.209 91.3635 121.337 91.4924 121.337 91.4924C121.466 91.7493 121.725 92.0052 121.853 92.1341C122.628 92.9038 123.661 93.6735 124.694 94.3152C123.791 94.3152 122.887 94.4432 121.854 94.5721L121.854 94.5721ZM125.856 86.3604C125.856 86.8733 125.082 88.9264 124.823 89.1832C124.565 88.9263 122.37 85.0769 122.37 85.0769C123.016 84.9489 125.597 84.5641 126.243 84.4352C126.243 84.5641 125.856 85.9755 125.856 86.3603L125.856 86.3604ZM128.567 93.8023C128.696 93.4174 128.567 92.9037 128.567 92.3909V92.006C128.567 91.7491 128.955 90.7226 129.213 89.9529C129.859 90.4657 130.762 91.2363 131.149 91.7491C131.795 92.3908 132.182 92.7757 132.44 92.9037C132.569 92.9037 132.569 93.0317 132.699 93.0317C131.278 93.2885 129.859 93.5454 128.567 93.8023H128.567ZM133.086 89.0542C132.957 88.9262 130.763 84.9479 130.763 83.6653C131.409 83.5373 133.732 82.8956 134.378 82.7667C134.505 83.6653 133.344 88.2844 133.086 89.054L133.086 89.0542ZM136.442 92.2619C136.571 91.877 136.701 91.4922 136.701 91.1073C136.701 90.8505 136.83 90.4656 136.959 90.3376C137.088 90.2096 137.218 89.9528 137.346 89.6959C137.605 89.439 137.734 89.0542 137.992 88.6693C137.992 88.5413 138.121 88.4125 138.121 88.2845C138.637 88.6693 139.283 89.1831 139.799 89.5679C140.704 90.2096 141.219 90.7225 141.607 90.8514C139.798 91.4922 138.121 91.877 136.442 92.2619L136.442 92.2619ZM140.96 85.3337C140.444 85.2058 138.766 81.998 138.12 81.7411C138.507 81.6131 138.895 81.4843 139.153 81.4843C139.669 81.3563 141.348 80.8425 141.864 80.7146C141.864 80.5857 141.09 84.9487 140.96 85.3336L140.96 85.3337ZM158.647 71.2194C159.421 70.7066 160.325 70.1929 161.1 69.808C160.971 70.9626 160.841 72.3739 160.584 73.0157C160.197 72.8877 159.68 72.7588 159.293 72.6308C158.517 72.5029 156.581 73.1446 156.065 73.1446C156.452 72.7597 158.13 71.6043 158.647 71.2194H158.647ZM144.963 89.9528V89.3111V89.0542C145.092 88.5414 145.222 87.8997 145.222 87.386C145.35 86.7442 145.48 86.2314 145.609 85.7177C145.609 85.7177 145.609 85.8457 145.737 85.8457C145.996 86.1025 148.191 87.6419 150.126 88.2837C148.448 88.7984 146.641 89.4392 144.963 89.9529L144.963 89.9528ZM148.448 82.8957C148.061 82.7677 145.737 79.5599 145.737 79.4311C146.383 79.1743 149.869 77.378 150.514 77.1221C150.772 77.6349 148.578 82.3829 148.448 82.8957H148.448ZM153.741 85.8465C153.612 85.9745 153.354 86.2314 153.095 86.3594C153.224 85.4608 153.095 84.3062 152.837 83.0236C152.708 82.3819 152.708 81.6122 152.578 81.0993C152.837 81.0993 152.966 81.2273 153.094 81.2273C153.223 81.2273 154.386 81.4842 155.418 81.6122C156.579 81.7402 157.354 81.869 157.871 81.7402C156.71 83.1525 155.42 84.4351 153.741 85.8465L153.741 85.8465ZM160.325 77.2499L160.066 77.7627C159.679 78.5324 159.42 79.1742 159.033 79.8159C159.033 79.0462 158.129 78.6613 157.742 77.5068C157.484 76.8651 156.322 76.2233 156.193 75.5825C156.58 75.7105 158.259 74.9408 158.646 75.0697C159.808 75.4546 160.582 75.5825 161.099 75.5825C160.842 76.0954 160.583 76.7371 160.325 77.2499L160.325 77.2499ZM162.649 72.7596C162.778 71.733 162.52 69.4238 162.52 68.7823C163.424 68.5254 165.36 68.7823 166.263 68.7823C165.102 69.4231 163.552 71.4763 162.649 72.7596H162.649Z" fill="black"/>
<path d="M167.683 90.0813C166.65 90.7231 165.747 91.4928 164.714 92.1345C159.551 95.8549 154.774 99.4485 142.51 101.245C136.055 102.271 128.052 102.913 124.953 102.014C123.792 101.63 121.726 101.373 119.531 101.116C117.466 100.859 115.012 100.474 113.981 100.089C113.077 99.8324 112.173 99.5765 111.269 99.4476C110.495 99.3196 109.72 99.1907 109.075 98.9348C107.655 98.5499 106.106 97.6513 104.556 96.8816L103.91 96.4968C101.974 95.3422 100.296 93.9308 98.4884 92.3905C98.1011 92.0056 97.7139 91.6208 97.197 91.3639C96.2929 90.7222 95.6482 90.0804 94.8738 89.4396C92.9378 87.9002 91.388 86.7447 89.7105 84.1788C88.5489 82.2545 87.7744 79.8166 87.9032 77.7634C87.9032 77.5065 88.032 77.1217 88.032 76.6089C88.1608 75.5823 88.4192 74.2998 88.1608 73.4012C88.032 72.7594 87.7735 72.3746 87.5151 71.8617C87.2567 71.3489 86.9991 70.8352 86.8694 70.3223C86.7407 69.8095 86.7407 69.2957 86.611 68.654V68.0123C87.3854 68.2692 88.2895 68.5252 89.064 68.5252C90.3553 68.5252 91.6457 68.1403 92.8073 67.4986C93.7114 66.8569 96.0347 64.6758 95.1305 62.8795C94.8721 62.3667 94.8721 62.2378 89.8374 60.9553C89.1918 60.8273 88.5461 60.5704 87.7717 60.3135C86.0932 59.8007 84.4155 59.287 82.7371 59.159C82.7371 59.031 82.4786 59.031 82.0914 59.031C81.9626 58.7741 81.833 58.6461 81.7042 58.3893C80.8001 56.9778 80.0257 53.6421 79.8969 50.9474C80.0257 51.0754 80.0257 51.2043 80.1553 51.3323C82.3498 54.9249 87.6428 58.1326 91.3863 59.8008C91.9023 60.0577 93.7096 60.6994 95.388 60.6994C96.2921 60.6994 97.0665 60.5714 97.7112 60.0577C98.2272 59.6728 98.4857 59.0311 98.0985 58.3894C97.7112 57.8766 97.0656 57.6197 96.42 58.0046C95.5159 58.5174 93.5799 58.1325 92.1598 57.4917C88.4166 55.8234 83.8978 52.8726 82.0905 49.9218C81.8321 49.5369 81.5745 49.1521 81.1864 48.7672C80.928 48.3824 80.5407 47.8686 80.2823 47.3558C80.7983 46.4572 81.5736 45.5595 82.4768 44.6609C82.864 44.276 83.1224 44.0192 83.3809 43.6343C83.7681 43.1215 84.1553 42.7357 84.5425 42.2229C85.0585 41.5811 85.4466 41.0683 85.9626 40.6835C86.6083 40.0417 87.3827 39.6569 88.1571 39.144C88.9315 38.6312 89.8356 38.1175 90.4803 37.4758C93.1918 35.0377 96.8062 33.6263 100.678 32.3439C103.777 31.1893 106.875 30.1628 109.586 28.3666C111.652 26.9552 115.653 25.287 119.01 23.8754C120.43 23.2336 121.85 22.7208 122.883 22.2071C123.27 22.0791 123.399 21.6943 123.528 21.4374C123.787 21.3094 124.044 21.0525 124.174 20.7957C125.981 16.3044 127.789 13.0967 130.113 10.7877C131.275 9.6331 132.566 8.60655 134.115 7.70805C134.76 7.19521 135.535 6.68147 136.18 6.16863C136.826 5.78378 137.213 5.14206 137.729 4.50036C138.633 3.34579 139.149 2.83208 139.795 2.96094H140.182C140.569 3.60266 141.086 4.1155 141.473 4.62922C141.861 5.01407 142.248 5.39892 142.506 5.91266C143.022 6.81125 143.41 7.70892 143.798 8.73543C144.185 9.88999 144.702 10.9165 145.346 11.9431C145.734 12.5848 146.25 12.9697 146.638 13.2266C146.896 13.4834 147.283 13.6114 147.412 13.8683C147.541 13.9963 147.541 14.1252 147.671 14.2531C148.187 15.0228 148.962 16.1774 149.994 16.5622C150.123 16.6902 150.381 16.6902 150.768 16.6902C153.221 16.6902 158.514 13.9953 158.643 13.9953C159.159 13.6104 159.417 12.9687 159.03 12.327C158.647 11.6853 158.001 11.5573 157.355 11.9422C156.322 12.5839 152.062 14.2512 150.901 14.3802C150.513 14.1234 149.996 13.3537 149.609 12.8408C149.481 12.7128 149.351 12.5839 149.351 12.456C148.964 11.9431 148.447 11.5574 148.06 11.3014C147.672 11.0445 147.414 10.9165 147.285 10.6597C146.769 9.76109 146.381 8.86341 145.994 7.83691C145.607 6.68234 145.09 5.65579 144.445 4.62921C144.058 3.98749 143.541 3.47465 143.154 2.96094C142.766 2.57608 142.379 2.06235 142.121 1.67749C141.864 1.29264 141.477 1.16465 141.09 1.16465C140.961 0.907787 140.702 0.651813 140.315 0.651813C138.121 0.138971 136.829 1.80638 135.926 2.96089C135.539 3.47373 135.152 3.98747 134.765 4.24434C134.119 4.75718 133.473 5.27091 132.699 5.65577C131.279 6.68234 129.73 7.7089 128.439 9.1203C125.211 12.4561 123.276 16.9471 122.113 19.8979V20.0259C121.08 20.5387 119.79 21.0525 118.37 21.6942C114.884 23.2336 110.882 24.9019 108.688 26.4413C106.235 28.1096 103.395 29.1363 100.297 30.1618C96.4239 31.5732 92.2933 32.9846 89.3235 35.8076C88.6778 36.3204 88.0322 36.8341 87.2578 37.219C86.3537 37.7318 85.4505 38.3736 84.6761 39.1432C84.1601 39.6561 83.6432 40.2978 83.1273 40.9395C82.74 41.3244 82.4816 41.8381 82.0944 42.223L81.1903 43.1215C80.4159 44.0201 79.5118 44.9178 78.8671 45.9443C78.4798 46.2012 78.2214 46.586 78.2214 47.0989V47.3557C78.2214 47.4837 78.0926 47.6126 78.0926 47.7406C77.5766 50.3065 78.0926 55.5674 79.5127 58.5182H79.1255C78.8671 58.5182 78.4798 58.3902 78.2214 58.3902C76.8013 58.1334 75.51 58.0054 74.7356 56.9788C74.3484 56.466 73.574 56.3371 73.0571 56.7219C72.5411 57.1068 72.4115 57.8765 72.7987 58.3902C74.09 60.0585 76.1549 60.4433 77.8334 60.6993C78.0918 60.6993 78.3493 60.8273 78.7375 60.8273C79.6416 60.9553 80.5447 61.0841 81.3191 61.0841C81.4479 61.341 81.7063 61.469 81.9648 61.7259C82.6104 62.4956 83.2561 63.1373 83.772 63.907C83.9008 64.5487 84.1593 65.1904 84.5465 65.7032C84.8049 66.7298 84.9337 67.6275 85.0625 68.7829C85.0625 69.2957 85.1912 69.9374 85.3209 70.4511C85.4497 71.3497 85.8369 72.1194 86.225 72.7602C86.4834 73.1451 86.6122 73.5299 86.741 73.9148C86.8698 74.2996 86.741 75.3262 86.6122 76.0959C86.4834 76.6087 86.4834 77.1225 86.3538 77.5073C86.225 79.9454 86.9994 83.0241 88.5483 85.3341C90.3555 88.1569 92.1629 89.5682 94.2286 91.2367C94.8743 91.7495 95.6487 92.3913 96.4231 93.033C96.8103 93.4178 97.1975 93.6747 97.7144 94.0595C99.5217 95.599 101.329 97.2672 103.653 98.4218L104.299 98.8066C105.848 99.5763 107.526 100.603 109.205 101.116C109.979 101.373 110.883 101.501 111.658 101.629C112.562 101.757 113.336 101.885 113.981 102.141C115.272 102.526 117.467 102.911 119.92 103.168C121.856 103.425 124.051 103.681 124.954 104.067C126.246 104.451 128.182 104.579 130.248 104.579C134.895 104.579 140.704 103.81 143.544 103.425C156.325 101.501 161.617 97.6512 166.781 93.8018C167.685 93.16 168.717 92.3903 169.621 91.7486C170.137 91.3638 170.267 90.5941 169.88 90.0804C168.975 89.8244 168.329 89.6964 167.683 90.0812L167.683 90.0813ZM85.5792 63.1367V62.367C85.5792 62.239 85.5792 61.9822 85.4505 61.8542C86.0961 62.111 86.8705 62.239 87.5162 62.4959C87.9034 62.6239 88.4203 62.7528 88.8075 62.8807C88.6787 63.3936 88.8075 64.0353 89.1947 64.549C89.4531 64.8059 89.7107 64.9339 90.0988 64.9339C90.2276 64.9339 90.486 64.9339 90.7444 64.8059C91.1317 64.549 91.3901 64.1642 91.5189 63.7793C92.2933 64.0362 92.8102 64.1642 93.3262 64.2922C93.0677 64.805 92.4221 65.3187 92.0348 65.5756C90.6148 66.4742 88.8075 66.6022 87.3874 65.8325C87.0002 65.5756 86.613 65.3196 86.3546 65.0628C86.0952 64.2913 85.8377 63.7775 85.5793 63.1367H85.5792Z" fill="black"/>
<path d="M157.614 43.5057C156.839 44.0185 155.935 44.4042 155.161 44.7891C154.386 45.174 153.741 45.4308 152.966 45.8157C152.45 46.2005 151.805 46.4574 151.288 46.7143C149.739 47.484 148.189 48.3825 146.769 49.2802C145.736 49.9219 144.703 50.4348 143.542 50.9485C142.509 51.4613 141.476 51.975 140.443 52.4879H140.315C140.056 52.6159 139.54 52.7447 139.282 53.1296C138.378 54.413 139.669 55.5677 140.315 56.0804L140.573 56.3373C141.735 57.8767 144.446 58.3904 146.769 58.3904C147.673 58.3904 148.577 58.2625 149.222 58.1336L149.609 58.0056C150.771 57.7487 152.063 57.3639 153.095 56.5942C153.87 56.0813 154.257 55.5676 154.515 54.9259C154.644 54.7979 154.774 54.541 154.903 54.413C156.839 51.7181 158.001 49.5371 157.872 46.0735C158.259 45.8166 158.646 45.6886 159.033 45.4318C159.549 45.1749 160.066 44.7901 160.453 44.4052C161.228 43.8924 161.873 43.3786 162.648 43.1218C163.293 42.9938 163.681 42.3521 163.422 41.7103C163.293 41.0686 162.648 40.6838 162.002 40.9406C160.84 41.3255 159.936 41.9672 159.033 42.6089C158.388 42.9929 158.001 43.3777 157.614 43.5057L157.614 43.5057ZM152.838 53.2575C152.709 53.5144 152.579 53.6424 152.45 53.8992C152.192 54.2841 152.063 54.5409 151.676 54.7978C151.03 55.3106 149.74 55.5675 148.836 55.8244L148.319 55.9515C146.641 56.4643 143.156 55.9515 142.252 54.9249C142.123 54.7969 141.993 54.54 141.736 54.4121C142.64 53.8992 143.543 53.5135 144.447 53.0006C145.609 52.4878 146.77 51.9741 147.803 51.2044C148.191 50.9475 148.449 50.8195 148.836 50.5626C148.578 51.2044 148.836 51.7172 149.223 51.9741C149.482 52.2309 149.739 52.3589 150.127 52.3589C150.256 52.4869 150.386 52.6158 150.515 52.6158C150.773 52.7438 151.031 52.7438 151.289 52.7438C151.676 52.7438 152.193 52.6158 152.58 52.2309C153.226 51.5892 153.485 50.4347 153.226 49.536C153.097 49.2791 152.968 49.0232 152.839 48.8943C152.839 48.7663 152.71 48.7663 152.71 48.6374C153.226 48.3806 153.743 48.1246 154.259 47.8677C154.646 47.6109 155.033 47.4829 155.55 47.226C155.161 49.665 154.258 51.2042 152.838 53.2574L152.838 53.2575Z" fill="black"/>
<path d="M131.537 54.6684C131.795 54.6684 131.924 54.6684 132.183 54.5404C132.828 54.1555 133.603 53.8987 134.377 53.5138C135.539 53.129 136.83 52.6152 137.863 51.7176C138.508 51.2047 139.154 50.563 139.67 50.0493C140.057 49.5364 140.445 49.1507 140.832 48.7658C142.51 47.2264 143.93 45.815 145.738 43.7618C146.254 43.249 146.77 42.6073 147.416 42.0936C148.19 41.3239 148.965 40.6821 149.739 39.6555C151.159 37.7312 152.321 35.2933 153.354 33.112C153.483 32.7272 153.741 32.3423 153.87 31.9575C154.128 31.3157 153.87 30.674 153.354 30.418C152.838 30.1612 152.063 30.418 151.805 30.9309C151.547 31.3157 151.418 31.7006 151.289 32.0855C150.256 34.2666 149.223 36.4477 147.803 38.244C147.287 39.0137 146.642 39.6554 145.867 40.2971C145.222 40.81 144.576 41.4517 144.06 42.0934C142.381 44.1465 140.961 45.5579 139.413 46.8405C138.897 47.2254 138.508 47.7391 137.992 48.252C137.477 48.7648 136.96 49.2785 136.444 49.6634C135.669 50.3051 134.636 50.69 133.604 51.0748C132.699 51.4597 131.796 51.7166 131.022 52.2294C130.504 52.6151 130.247 53.2569 130.634 53.8986C130.763 54.5394 131.15 54.6683 131.537 54.6683L131.537 54.6684Z" fill="black"/>
<path d="M125.599 59.8007C128.697 60.4424 131.666 60.9553 134.248 60.9553C135.41 60.9553 139.283 61.8538 142.639 62.7515C145.479 63.5212 148.448 64.1629 150.385 64.5478C151.03 64.6758 151.676 64.1629 151.676 63.6492C151.805 63.0075 151.289 62.3657 150.772 62.3657C148.836 61.9809 145.996 61.3392 143.156 60.5695C139.154 59.5429 135.668 58.6452 134.248 58.6452C131.925 58.6452 129.085 58.1324 126.115 57.4907C115.787 55.5664 101.845 52.9994 94.8739 68.5251H94.7452C92.5507 68.6531 90.8721 68.782 90.2264 69.9366C90.0976 70.3214 89.8392 70.9631 90.2264 71.7328C90.4848 72.1177 90.8721 72.3746 91.2593 72.3746C91.388 72.3746 91.6465 72.3745 91.7752 72.2466C92.1625 71.9897 92.4209 71.6048 92.4209 71.092C92.8081 70.964 93.4538 70.964 93.9698 70.8351C93.5825 71.7337 93.3241 72.7594 93.0657 73.786C92.9369 74.4277 93.3241 75.0694 93.8401 75.1974H94.0985C94.6145 75.1974 95.1314 74.8126 95.2602 74.2988C95.6474 72.8874 96.1643 71.6039 96.5515 70.3215C97.0675 70.0646 97.3259 69.5518 97.1971 68.9101C103.394 55.5665 115.141 57.7475 125.598 59.8007L125.599 59.8007Z" fill="black"/>
</g>
<defs>
<clipPath id="clip0_85_3513">
<rect width="101" height="105" fill="white" transform="translate(73)"/>
</clipPath>
</defs>
</svg>
